<?xml version="1.0" encoding="utf-8"?>
<!-- Generator: Adobe Illustrator 25.3.1, SVG Export Plug-In . SVG Version: 6.00 Build 0)  -->
<svg version="1.1" id="Layer_1" xmlns="http://www.w3.org/2000/svg" xmlns:xlink="http://www.w3.org/1999/xlink" x="0px" y="0px"
	 viewBox="0 0 15 15" style="enable-background:new 0 0 15 15;" xml:space="preserve">
<style type="text/css">
	.st0{fill:#FFFFFF;}
</style>
<g id="Group_2675" transform="translate(0 0)">
	<path id="Path_989" class="st0" d="M12.68,3.86L9.69,0.88L8.82,0H1.05v14.93H5.7v-0.88H1.93V0.88h6.89v3.86h3.86v2.55h0.88V4.74
		L12.68,3.86z M9.69,3.86V2.12l1.75,1.75H9.69z"/>
	<path id="Path_990" class="st0" d="M11.7,11.67c0.84-0.82,0.86-2.16,0.04-3c-0.82-0.84-2.16-0.86-3-0.04s-0.86,2.16-0.04,3
		c0.01,0.01,0.03,0.03,0.04,0.04c-1.13,0.48-1.87,1.59-1.88,2.82c0,0.24,0.2,0.44,0.44,0.44l5.77,0c0.01,0,0.03,0,0.04,0
		c0.11,0,0.21-0.04,0.29-0.11c0.09-0.09,0.14-0.2,0.14-0.33C13.6,13.29,12.87,12.2,11.7,11.67z M10.27,11.37
		c-0.66-0.01-1.2-0.54-1.21-1.21c0-0.67,0.54-1.21,1.21-1.21c0.67,0,1.21,0.54,1.21,1.21C11.47,10.83,10.93,11.37,10.27,11.37z
		 M12.6,14.02H7.83c0.23-1,1.23-1.75,2.38-1.75C11.38,12.27,12.36,13.01,12.6,14.02z"/>
</g>
<rect id="Rectangle_1225" x="3.2" y="5.16" class="st0" width="4.2" height="0.88"/>
<rect id="Rectangle_1226" x="3.2" y="7.14" class="st0" width="2.1" height="0.88"/>
</svg>
