<svg id="Group_6174" data-name="Group 6174" xmlns="http://www.w3.org/2000/svg" width="73.282" height="87.524" viewBox="0 0 73.282 87.524">
  <g id="Group_2675" data-name="Group 2675" transform="translate(0 0)">
    <path id="Path_989" data-name="Path 989" d="M505.005,2279.51,487.5,2262l-5.137-5.138h-45.5v87.522h27.215v-5.136H442V2262H482.36v22.646h22.646V2299.6h5.137v-14.957Zm-17.509,0v-10.244l10.244,10.244Z" transform="translate(-436.86 -2256.863)" fill="#fff"/>
    <path id="Path_990" data-name="Path 990" d="M491.747,2314.846a12.438,12.438,0,1,0-17.334,0,18.164,18.164,0,0,0-11.023,16.512,2.637,2.637,0,0,0,2.6,2.6l33.8-.006a2.407,2.407,0,0,0,.25.013,2.506,2.506,0,0,0,1.707-.65,2.618,2.618,0,0,0,.835-1.93C502.854,2324.334,498.577,2317.933,491.747,2314.846Zm-8.424-1.768a7.26,7.26,0,0,1-7.108-7.068,7.067,7.067,0,1,1,7.108,7.068Zm13.672,15.529h-27.95c1.351-5.851,7.195-10.252,13.945-10.252C489.822,2318.355,495.588,2322.673,496.995,2328.607Z" transform="translate(-429.318 -2246.444)" fill="#fff"/>
  </g>
  <rect id="Rectangle_1225" data-name="Rectangle 1225" width="24.618" height="5.137" transform="translate(12.577 30.264)" fill="#fff"/>
  <rect id="Rectangle_1226" data-name="Rectangle 1226" width="12.309" height="5.137" transform="translate(12.577 41.828)" fill="#fff"/>
</svg>
