<?xml version="1.0" encoding="utf-8"?>
<!-- Generator: Adobe Illustrator 25.3.1, SVG Export Plug-In . SVG Version: 6.00 Build 0)  -->
<svg version="1.1" id="Layer_1" xmlns="http://www.w3.org/2000/svg" xmlns:xlink="http://www.w3.org/1999/xlink" x="0px" y="0px"
	 viewBox="0 0 15 15" style="enable-background:new 0 0 15 15;" xml:space="preserve">
<style type="text/css">
	.st0{fill:#FFFFFF;}
</style>
<rect id="Rectangle_1225" x="3.2" y="5.16" class="st0" width="4.2" height="0.88"/>
<rect id="Rectangle_1226" x="3.2" y="7.14" class="st0" width="2.1" height="0.88"/>
<g>
	<g id="Group_6152" transform="translate(13.188 13.188)">
		<g id="Group_6151">
			<path id="Path_5825" class="st0" d="M-4.4-9.97h-5.14c-0.24,0-0.43,0.19-0.43,0.43c0,0.24,0.19,0.43,0.43,0.43l0,0h5.14
				c0.24,0,0.43-0.19,0.43-0.43C-3.97-9.78-4.17-9.97-4.4-9.97L-4.4-9.97L-4.4-9.97z"/>
		</g>
	</g>
	<g id="Group_6154" transform="translate(13.188 21.98)">
		<g id="Group_6153">
			<path id="Path_5826" class="st0" d="M-6.12-17.05h-3.43c-0.24,0-0.43,0.19-0.43,0.43c0,0.24,0.19,0.43,0.43,0.43h3.43
				c0.24,0,0.43-0.19,0.43-0.43C-5.69-16.86-5.88-17.05-6.12-17.05L-6.12-17.05z"/>
		</g>
	</g>
	<g id="Group_6156">
		<g id="Group_6155">
			<path id="Path_5827" class="st0" d="M10.07,0.65H2.36c-0.95,0-1.71,0.77-1.71,1.71v8.57c0,0.17,0.1,0.32,0.25,0.39
				c0.06,0.03,0.12,0.04,0.18,0.04c0.1,0,0.2-0.04,0.27-0.1L3.8,9.21h6.27c0.95,0,1.71-0.77,1.71-1.71V2.36
				C11.78,1.41,11.02,0.65,10.07,0.65z M10.93,7.5c0,0.47-0.38,0.86-0.86,0.86h0H3.65c-0.1,0-0.2,0.04-0.27,0.1l-1.87,1.56V2.36
				c0-0.47,0.38-0.86,0.86-0.86l0,0h7.71c0.47,0,0.86,0.38,0.86,0.86c0,0,0,0,0,0V7.5z"/>
		</g>
	</g>
	<g id="Group_6158" transform="translate(17.584 17.584)">
		<g id="Group_6157">
			<path id="Path_5828" class="st0" d="M-4.94-13.51c-0.24,0-0.43,0.19-0.43,0.43c0,0.24,0.19,0.43,0.43,0.43c0,0,0,0,0,0
				c0.47,0,0.86,0.38,0.86,0.86v7.25l-1.45-1.16C-5.61-5.77-5.7-5.8-5.8-5.8h-6c-0.47,0-0.86-0.38-0.86-0.86v-0.43
				c0-0.24-0.19-0.43-0.43-0.43s-0.43,0.19-0.43,0.43v0.43c0,0.95,0.77,1.71,1.71,1.71h5.85l2.02,1.62c0.18,0.15,0.45,0.12,0.6-0.07
				c0.06-0.08,0.09-0.17,0.09-0.27v-8.14C-3.23-12.74-4-13.51-4.94-13.51z"/>
		</g>
	</g>
</g>
</svg>
