<?xml version="1.0" encoding="utf-8"?>
<!-- Generator: Adobe Illustrator 25.3.1, SVG Export Plug-In . SVG Version: 6.00 Build 0)  -->
<svg version="1.1" id="Layer_1" xmlns="http://www.w3.org/2000/svg" xmlns:xlink="http://www.w3.org/1999/xlink" x="0px" y="0px"
	 viewBox="0 0 15 15" style="enable-background:new 0 0 15 15;" xml:space="preserve">
<style type="text/css">
	.st0{fill:#FFFFFF;}
</style>
<rect id="Rectangle_1225" x="3.2" y="5.16" class="st0" width="4.2" height="0.88"/>
<rect id="Rectangle_1226" x="3.2" y="7.14" class="st0" width="2.1" height="0.88"/>
<g id="Group_6173" transform="translate(15106.701 4540.459)">
	<g id="Group_6172" transform="translate(-15147.701 -4540.459)">
		<path id="Path_5838" d="M52.94,1.87c-2.45-2.45-6.42-2.46-8.87-0.01c-2.3,2.3-2.47,5.97-0.38,8.46l0,0
			c0.24,0.29,0.5,0.55,0.79,0.79l3.72,3.72c0.17,0.17,0.45,0.17,0.62,0l3.72-3.72c1.42-1.19,2.24-2.95,2.24-4.81
			C54.78,4.65,54.12,3.05,52.94,1.87z M51.93,10.49l-3.43,3.43l-3.43-3.43c-0.01-0.01-0.02-0.02-0.03-0.03
			c-2.29-1.91-2.6-5.31-0.69-7.6c1.91-2.29,5.31-2.6,7.6-0.69c2.29,1.91,2.6,5.31,0.69,7.6c-0.21,0.25-0.44,0.48-0.69,0.69
			C51.95,10.47,51.94,10.48,51.93,10.49z"/>
		<path id="Path_5839" d="M49.87,4.87h-1.56c-0.24,0-0.44,0.2-0.44,0.44v0v2.71c0,0.24,0.2,0.44,0.44,0.44
			c0.24,0,0.44-0.2,0.44-0.44V7.11h1.12c0.62,0.02,1.13-0.46,1.15-1.08c0.02-0.62-0.46-1.13-1.08-1.15
			C49.92,4.87,49.9,4.87,49.87,4.87L49.87,4.87z M49.87,6.23h-1.12V5.75h1.12c0.13,0,0.24,0.1,0.25,0.23s-0.1,0.24-0.23,0.25
			C49.88,6.23,49.88,6.23,49.87,6.23z"/>
		<path id="Path_5840" d="M47.02,4.87c-0.24,0-0.44,0.2-0.44,0.44v0v2.71c0,0.24,0.2,0.44,0.44,0.44c0.24,0,0.44-0.2,0.44-0.44V5.31
			C47.46,5.07,47.26,4.87,47.02,4.87C47.02,4.87,47.02,4.87,47.02,4.87z"/>
	</g>
</g>
</svg>
