<?xml version="1.0" encoding="utf-8"?>
<!-- Generator: Adobe Illustrator 25.3.1, SVG Export Plug-In . SVG Version: 6.00 Build 0)  -->
<svg version="1.1" id="Layer_1" xmlns="http://www.w3.org/2000/svg" xmlns:xlink="http://www.w3.org/1999/xlink" x="0px" y="0px"
	 viewBox="0 0 15 15" style="enable-background:new 0 0 15 15;" xml:space="preserve">
<style type="text/css">
	.st0{fill:#FFFFFF;}
</style>
<rect id="Rectangle_1225" x="3.2" y="5.16" class="st0" width="4.2" height="0.88"/>
<rect id="Rectangle_1226" x="3.2" y="7.14" class="st0" width="2.1" height="0.88"/>
<g id="Group_6176" transform="translate(15117.354 4266.905)">
	<g id="Group_6175" transform="translate(-14298.69 -3500.919)">
		<path id="Path_5841" class="st0" d="M-805.8-753.7h-10.81c-0.72,0-1.3-0.58-1.3-1.3v-7.78c0-0.72,0.58-1.3,1.3-1.3h0.82
			c0.14,0,0.26,0.12,0.26,0.26c0,0,0,0,0,0c0,0.14-0.12,0.26-0.26,0.26c0,0,0,0,0,0h-0.82c-0.43,0-0.78,0.35-0.78,0.78v7.78
			c0,0.43,0.35,0.78,0.78,0.78h10.81c0.43,0,0.78-0.35,0.78-0.78v-7.78c0-0.43-0.35-0.78-0.78-0.78h-1.55
			c-0.14,0-0.26-0.12-0.26-0.26c0,0,0,0,0,0c0-0.14,0.12-0.26,0.26-0.26c0,0,0,0,0,0h1.55c0.72,0,1.3,0.58,1.3,1.3v7.78
			C-804.51-754.28-805.09-753.7-805.8-753.7z"/>
		<path id="Path_5842" class="st0" d="M-815.76-752.97h1.39v-0.72h-1.39V-752.97z M-814.11-752.45h-1.91
			c-0.14,0-0.26-0.12-0.26-0.26c0,0,0,0,0,0v-1.24c0-0.14,0.12-0.26,0.26-0.26c0,0,0,0,0,0h1.91c0.14,0,0.26,0.12,0.26,0.26
			c0,0,0,0,0,0v1.24C-813.85-752.57-813.96-752.45-814.11-752.45C-814.11-752.45-814.11-752.45-814.11-752.45z"/>
		<path id="Path_5843" class="st0" d="M-808.05-752.97h1.39v-0.72h-1.39V-752.97z M-806.4-752.45h-1.91c-0.14,0-0.26-0.12-0.26-0.26
			c0,0,0,0,0,0v-1.24c0-0.14,0.12-0.26,0.26-0.26c0,0,0,0,0,0h1.91c0.14,0,0.26,0.12,0.26,0.26c0,0,0,0,0,0v1.24
			C-806.14-752.57-806.26-752.45-806.4-752.45C-806.4-752.45-806.4-752.45-806.4-752.45z"/>
		<path id="Path_5844" class="st0" d="M-817.69-752.73c0.3,0.59,0.92,0.97,1.58,0.97h9.8c0.67,0,1.28-0.38,1.58-0.97h-1.41
			c0.01,0.14-0.11,0.27-0.25,0.27c0,0,0,0-0.01,0h-1.91c-0.14,0-0.26-0.12-0.26-0.26c0,0,0,0,0,0c0-0.01-5.27-0.01-5.27-0.01
			c0.01,0.14-0.11,0.27-0.25,0.27c0,0,0,0-0.01,0h-1.91c-0.14,0-0.26-0.12-0.26-0.26C-816.28-752.73-817.69-752.73-817.69-752.73
			L-817.69-752.73z M-806.31-751.24h-9.8c-0.89,0-1.71-0.52-2.08-1.33c-0.07-0.15-0.06-0.32,0.03-0.46c0.09-0.14,0.24-0.22,0.4-0.22
			h1.74c0.14,0,0.26,0.12,0.26,0.26c0,0,0,0,0,0c0,0.01,1.39,0.01,1.39,0.01c-0.01-0.14,0.11-0.27,0.25-0.27c0,0,0,0,0.01,0h5.79
			c0.14,0,0.26,0.12,0.26,0.26c0,0,0,0,0,0c0,0.01,1.39,0.01,1.39,0.01c-0.01-0.14,0.11-0.27,0.25-0.27c0,0,0,0,0.01,0h1.74
			c0.16,0,0.31,0.08,0.4,0.22c0.09,0.14,0.1,0.31,0.03,0.46C-804.61-751.76-805.42-751.24-806.31-751.24L-806.31-751.24z"/>
		<path id="Path_5845" class="st0" d="M-805.83-754.96h-10.76c-0.14,0-0.26-0.12-0.26-0.26c0,0,0,0,0,0c0-0.14,0.12-0.26,0.26-0.26
			c0,0,0,0,0,0h10.76c0.14,0,0.26,0.12,0.26,0.26c0,0,0,0,0,0C-805.57-755.08-805.68-754.96-805.83-754.96
			C-805.83-754.96-805.83-754.96-805.83-754.96z"/>
		<path id="Path_5846" class="st0" d="M-809.55-762.7h-4.06c-0.14,0-0.26-0.12-0.26-0.26c0-0.14,0.12-0.26,0.26-0.26c0,0,0,0,0,0
			h4.06c0.14,0,0.26,0.12,0.26,0.26S-809.41-762.7-809.55-762.7L-809.55-762.7z"/>
		<path id="Path_5847" class="st0" d="M-809.55-761.62h-4.06c-0.14,0-0.26-0.12-0.26-0.26c0,0,0,0,0,0c0-0.14,0.12-0.26,0.26-0.26
			h4.06c0.14,0,0.26,0.12,0.26,0.26S-809.41-761.62-809.55-761.62L-809.55-761.62z"/>
		<path id="Path_5848" class="st0" d="M-809.55-760.54h-4.06c-0.14,0-0.26-0.12-0.26-0.26c0,0,0,0,0,0c0-0.14,0.12-0.26,0.26-0.26
			h4.06c0.14,0,0.26,0.12,0.26,0.26l0,0C-809.29-760.65-809.41-760.53-809.55-760.54L-809.55-760.54L-809.55-760.54z"/>
		<path id="Path_5849" class="st0" d="M-809.55-759.45h-4.06c-0.14,0-0.26-0.12-0.26-0.26c0,0,0,0,0,0c0-0.14,0.12-0.26,0.26-0.26
			c0,0,0,0,0,0h4.06c0.14,0,0.26,0.12,0.26,0.26c0,0,0,0,0,0C-809.29-759.57-809.41-759.45-809.55-759.45L-809.55-759.45
			L-809.55-759.45z"/>
		<path id="Path_5850" class="st0" d="M-809.55-758.37h-4.06c-0.14,0-0.26-0.12-0.26-0.26c0,0,0,0,0,0c0-0.14,0.12-0.26,0.26-0.26
			l0,0h4.06c0.14,0,0.26,0.12,0.26,0.26l0,0C-809.29-758.48-809.41-758.37-809.55-758.37
			C-809.55-758.37-809.55-758.37-809.55-758.37L-809.55-758.37z"/>
		<path id="Path_5851" class="st0" d="M-814.5-757.02h5.83v-7h-5.83V-757.02z M-808.41-756.5h-6.35c-0.14,0-0.26-0.12-0.26-0.26l0,0
			v-7.51c0-0.14,0.12-0.26,0.26-0.26l0,0h6.35c0.14,0,0.26,0.12,0.26,0.26l0,0v7.51C-808.15-756.61-808.27-756.5-808.41-756.5
			L-808.41-756.5L-808.41-756.5z"/>
		<path id="Path_5852" class="st0" d="M-808.15-758.02h0.53v-7h-5.83v0.49h5.04c0.14,0,0.26,0.12,0.26,0.26l0,0L-808.15-758.02
			L-808.15-758.02z M-807.36-757.51h-1.05c-0.14,0-0.26-0.12-0.26-0.26l0,0v-6.25h-5.04c-0.14,0-0.26-0.12-0.26-0.26l0,0v-1.01
			c0-0.14,0.12-0.26,0.26-0.26c0,0,0,0,0,0h6.35c0.14,0,0.26,0.12,0.26,0.26l0,0v7.51C-807.1-757.62-807.21-757.51-807.36-757.51
			C-807.36-757.51-807.36-757.51-807.36-757.51L-807.36-757.51z"/>
	</g>
</g>
</svg>
