<?xml version="1.0" encoding="utf-8"?>
<!-- Generator: Adobe Illustrator 25.3.1, SVG Export Plug-In . SVG Version: 6.00 Build 0)  -->
<svg version="1.1" id="Layer_1" xmlns="http://www.w3.org/2000/svg" xmlns:xlink="http://www.w3.org/1999/xlink" x="0px" y="0px"
	 viewBox="0 0 15 15" style="enable-background:new 0 0 15 15;" xml:space="preserve">
<style type="text/css">
	.st0{fill:#FFFFFF;}
</style>
<rect id="Rectangle_1225" x="3.2" y="5.16" class="st0" width="4.2" height="0.88"/>
<rect id="Rectangle_1226" x="3.2" y="7.14" class="st0" width="2.1" height="0.88"/>
<g id="Group_6171" transform="translate(15103.231 4661.631)">
	<g id="Group_6170" transform="translate(-14841.231 -4637.631)">
		<g id="Group_6163" transform="translate(-262 -24)">
			<g id="Group_6162" transform="translate(0)">
				<path id="Path_5834" class="st0" d="M12.9,4.09c-0.02-0.06-0.06-0.11-0.1-0.15l-3.7-3.7C9.06,0.2,9.01,0.16,8.95,0.14
					C8.9,0.11,8.84,0.1,8.78,0.1H2.76c-0.51,0-0.92,0.41-0.92,0.92v12.95c0,0.51,0.41,0.92,0.92,0.92h9.25
					c0.51,0,0.92-0.41,0.92-0.92V4.26C12.94,4.2,12.92,4.14,12.9,4.09z M9.24,1.68l2.12,2.12H9.24L9.24,1.68z M12.01,13.97H2.76
					V1.03h5.55V3.8c0,0.51,0.41,0.92,0.93,0.92h2.77V13.97z"/>
			</g>
		</g>
		<g id="Group_6165" transform="translate(-247.513 24.289)">
			<g id="Group_6164" transform="translate(0)">
				<path id="Path_5835" class="st0" d="M-9.41-38.94c-0.26,0-0.46,0.21-0.46,0.46v2.77c0,0.26,0.21,0.46,0.46,0.46
					c0.26,0,0.46-0.21,0.46-0.46v-2.77C-8.95-38.73-9.16-38.94-9.41-38.94z"/>
			</g>
		</g>
		<g id="Group_6167" transform="translate(-223.368 4.974)">
			<g id="Group_6166">
				<path id="Path_5836" class="st0" d="M-28.93-23.32c-0.26,0-0.46,0.21-0.46,0.46v6.47c0,0.26,0.21,0.46,0.46,0.46
					c0.26,0,0.46-0.21,0.46-0.46v-6.47C-28.47-23.12-28.68-23.32-28.93-23.32z"/>
			</g>
		</g>
		<g id="Group_6169" transform="translate(-235.441 14.632)">
			<g id="Group_6168" transform="translate(0)">
				<path id="Path_5837" class="st0" d="M-19.17-31.13c-0.26,0-0.46,0.21-0.46,0.46v4.62c0,0.26,0.21,0.46,0.46,0.46
					c0.26,0,0.46-0.21,0.46-0.46v-4.62C-18.71-30.92-18.92-31.13-19.17-31.13z"/>
			</g>
		</g>
	</g>
</g>
</svg>
