<svg id="noun_profile_405165" xmlns="http://www.w3.org/2000/svg" width="24" height="24" viewBox="0 0 24 24">
  <g id="Group_8" data-name="Group 8">
    <circle id="Ellipse_4" data-name="Ellipse 4" cx="3.616" cy="3.616" r="3.616" transform="translate(8.384 6.803)" fill="#3276b8"/>
    <path id="Path_32" data-name="Path 32" d="M14.907,2.908a12,12,0,1,0,12,12A12.014,12.014,0,0,0,14.907,2.908ZM22.16,22.044c-.194-2.924-2.64-4.355-5.614-4.355h-.569l-1.07,1.61-1.07-1.61H13.27c-2.974,0-5.265,1.43-5.459,4.355A8.583,8.583,0,0,1,4.7,14.908c0-5.958,4.244-9.871,10.2-9.871s10.131,3.912,10.131,9.87C25.038,18.084,24.35,20.064,22.16,22.044Z" transform="translate(-2.907 -2.908)" fill="#3276b8"/>
  </g>
</svg>
