<svg xmlns="http://www.w3.org/2000/svg" width="16.982" height="16.983" viewBox="0 0 16.982 16.983">
  <g id="noun_columns_120337" transform="translate(-71.018 -30.508)">
    <path id="Path_2141" data-name="Path 2141" d="M16.275,0H13.091c-.708,0-.708,0-.708.708V16.275c0,.708,0,.708.708.708h3.184c.708,0,.708,0,.708-.708V.708C16.982,0,16.982,0,16.275,0ZM3.892,0H.708C0,0,0,0,0,.708V16.275c0,.707,0,.707.708.707H3.892c.708,0,.708,0,.708-.708V.708C4.6,0,4.6,0,3.892,0ZM10.26,0H6.722c-.708,0-.708,0-.708.708V16.275c0,.708,0,.708.708.708H10.26c.708,0,.708,0,.708-.708V.708C10.968,0,10.968,0,10.26,0Z" transform="translate(71.018 30.508)" fill="#3276b8"/>
  </g>
</svg>
