<svg xmlns="http://www.w3.org/2000/svg" width="19.35" height="24" viewBox="0 0 19.35 24">
  <g id="noun_Security_957673" transform="translate(1056.7 -978)">
    <g id="Group_28" data-name="Group 28" transform="translate(-1056.7 978)">
      <path id="Path_39" data-name="Path 39" d="M-928.025,953l-9.675,3.05v5.925a15.9,15.9,0,0,0,6.75,12.975l2.925,2.05,2.925-2.05a15.828,15.828,0,0,0,6.75-12.975V956.05Zm8.325,8.975a14.432,14.432,0,0,1-6.175,11.85l-2.15,1.5-2.15-1.5a14.466,14.466,0,0,1-6.175-11.85v-4.95l8.325-2.625,8.325,2.625Z" transform="translate(937.7 -953)" fill="#3276b8"/>
      <path id="Path_40" data-name="Path 40" d="M-911.5,973.639v2.45l1.654-.214v-2.267a1.294,1.294,0,0,1,1.286-1.286h1.776a1.294,1.294,0,0,1,1.286,1.286v2.267l1.654.214v-2.45a2.941,2.941,0,0,0-2.94-2.94h-1.776A2.922,2.922,0,0,0-911.5,973.639Z" transform="translate(917.346 -966.497)" fill="#3276b8"/>
      <path id="Path_41" data-name="Path 41" d="M-911.487,987.9h-.153l-4.2.521A1.324,1.324,0,0,0-917,989.738v5.115a1.324,1.324,0,0,0,1.164,1.317l4.2.521h.306l4.2-.521a1.324,1.324,0,0,0,1.164-1.317v-5.115a1.324,1.324,0,0,0-1.164-1.317l-4.2-.521Zm.949,3.43a.914.914,0,0,1-.459.8l.276,1.991h-1.531l.276-1.991a.914.914,0,0,1-.459-.8.954.954,0,0,1,.95-.95A.917.917,0,0,1-910.537,991.331Z" transform="translate(921.162 -980.013)" fill="#3276b8"/>
    </g>
  </g>
</svg>
