<svg xmlns="http://www.w3.org/2000/svg" width="21.9" height="24.3" viewBox="0 0 21.9 24.3">
  <g id="noun_personal_3624556" transform="translate(-4.85 -1.85)">
    <g id="Personal_data_protection" data-name="Personal data protection" transform="translate(5 2)">
      <path id="Path_2151" data-name="Path 2151" d="M46.075,46.433a.358.358,0,0,1,.358.358.358.358,0,1,0,.717,0,1.075,1.075,0,0,0-.717-1.009v-.424a.358.358,0,0,0-.717,0v.424a1.072,1.072,0,0,0,.358,2.084.358.358,0,1,1-.358.358.358.358,0,0,0-.717,0,1.075,1.075,0,0,0,.717,1.009v.424a.358.358,0,1,0,.717,0v-.424a1.072,1.072,0,0,0-.358-2.084.358.358,0,1,1,0-.717Z" transform="translate(-28.417 -27.092)" fill="#3276b8"/>
      <path id="Path_2152" data-name="Path 2152" d="M25.4,18H25V16a2.8,2.8,0,0,0-2.4-2.768V2.4a.4.4,0,0,0-.4-.4H5.4a.4.4,0,0,0-.4.4V24a.4.4,0,0,0,.4.4H17.8v.4A1.2,1.2,0,0,0,19,26h6.4a1.2,1.2,0,0,0,1.2-1.2V19.2A1.2,1.2,0,0,0,25.4,18Zm-1.2-2v2h-.4V16a1.6,1.6,0,1,0-3.2,0v2h-.4V16a2,2,0,1,1,4,0ZM23,18H21.4V16A.8.8,0,0,1,23,16ZM5.8,23.6V2.8h16V13.232A2.8,2.8,0,0,0,19.4,16v2H19a1.2,1.2,0,0,0-1.2,1.2v4.4Zm20,1.2a.4.4,0,0,1-.4.4H19a.4.4,0,0,1-.4-.4V19.2a.4.4,0,0,1,.4-.4h6.4a.4.4,0,0,1,.4.4Z" transform="translate(-5 -2)" fill="#3276b8" stroke="#3276b8" stroke-width="0.3"/>
      <path id="Path_2153" data-name="Path 2153" d="M15.092,6H9.358A.358.358,0,0,0,9,6.358v5.017a.358.358,0,0,0,.358.358h5.733a.358.358,0,0,0,.358-.358V6.358A.358.358,0,0,0,15.092,6ZM11.15,11.017v-.358a1.075,1.075,0,1,1,2.15,0v.358Zm1.075-2.508a.358.358,0,1,1,.358-.358A.358.358,0,0,1,12.225,8.508Zm2.508,2.508h-.717v-.358A1.792,1.792,0,0,0,12.881,9a1.075,1.075,0,1,0-1.313,0,1.792,1.792,0,0,0-1.135,1.663v.358H9.717v-4.3h5.017Z" transform="translate(-7.567 -4.567)" fill="#3276b8"/>
      <path id="Path_2154" data-name="Path 2154" d="M30.075,13.717h-.717a.358.358,0,1,1,0-.717h.717a.358.358,0,1,1,0,.717Z" transform="translate(-19.32 -8.584)" fill="#3276b8"/>
      <path id="Path_2155" data-name="Path 2155" d="M38.225,13.717H35.358a.358.358,0,0,1,0-.717h2.867a.358.358,0,1,1,0,.717Z" transform="translate(-22.716 -8.584)" fill="#3276b8"/>
      <path id="Path_2156" data-name="Path 2156" d="M30.075,9.717h-.717a.358.358,0,1,1,0-.717h.717a.358.358,0,1,1,0,.717Z" transform="translate(-19.32 -6.492)" fill="#3276b8"/>
      <path id="Path_2157" data-name="Path 2157" d="M38.225,9.717H35.358a.358.358,0,0,1,0-.717h2.867a.358.358,0,1,1,0,.717Z" transform="translate(-22.716 -6.492)" fill="#3276b8"/>
      <path id="Path_2158" data-name="Path 2158" d="M30.075,17.717h-.717a.358.358,0,0,1,0-.717h.717a.358.358,0,0,1,0,.717Z" transform="translate(-19.32 -10.978)" fill="#3276b8"/>
      <path id="Path_2159" data-name="Path 2159" d="M38.225,17.717H35.358a.358.358,0,0,1,0-.717h2.867a.358.358,0,1,1,0,.717Z" transform="translate(-22.716 -10.978)" fill="#3276b8"/>
      <path id="Path_2160" data-name="Path 2160" d="M22.108,26.717H11.358a.358.358,0,1,1,0-.717h10.75a.358.358,0,1,1,0,.717Z" transform="translate(-8.85 -16.366)" fill="#3276b8"/>
      <path id="Path_2161" data-name="Path 2161" d="M20.675,32.717H11.358a.358.358,0,1,1,0-.717h9.317a.358.358,0,0,1,0,.717Z" transform="translate(-8.85 -19.957)" fill="#3276b8"/>
      <path id="Path_2162" data-name="Path 2162" d="M20.675,38.717H11.358a.358.358,0,1,1,0-.717h9.317a.358.358,0,0,1,0,.717Z" transform="translate(-8.85 -23.548)" fill="#3276b8"/>
      <path id="Path_2163" data-name="Path 2163" d="M19.242,44.717H11.358a.358.358,0,1,1,0-.717h7.883a.358.358,0,1,1,0,.717Z" transform="translate(-8.85 -27.14)" fill="#3276b8"/>
      <path id="Path_2164" data-name="Path 2164" d="M19.242,50.717H11.358a.358.358,0,1,1,0-.717h7.883a.358.358,0,1,1,0,.717Z" transform="translate(-8.85 -30.3)" fill="#3276b8"/>
    </g>
  </g>
</svg>
