<svg xmlns="http://www.w3.org/2000/svg" xmlns:xlink="http://www.w3.org/1999/xlink" width="52.5" height="49.5" viewBox="0 0 52.5 49.5">
  <defs>
    <filter id="Icon_material-add-a-photo" x="0" y="0" width="52.5" height="49.5" filterUnits="userSpaceOnUse">
      <feOffset input="SourceAlpha"/>
      <feGaussianBlur stdDeviation="3" result="blur"/>
      <feFlood flood-opacity="0.4"/>
      <feComposite operator="in" in2="blur"/>
      <feComposite in="SourceGraphic"/>
    </filter>
  </defs>
  <g transform="matrix(1, 0, 0, 1, 0, 0)" filter="url(#Icon_material-add-a-photo)">
    <path id="Icon_material-add-a-photo-2" data-name="Icon material-add-a-photo" d="M4.5,6V1.5h3V6H12V9H7.5v4.5h-3V9H0V6ZM9,15V10.5h4.5V6H24l2.745,3H31.5a3.009,3.009,0,0,1,3,3V30a3.009,3.009,0,0,1-3,3H7.5a3.009,3.009,0,0,1-3-3V15ZM19.5,28.5A7.5,7.5,0,1,0,12,21,7.5,7.5,0,0,0,19.5,28.5ZM14.7,21a4.8,4.8,0,1,0,4.8-4.8A4.795,4.795,0,0,0,14.7,21Z" transform="translate(9 7.5)" fill="#fff"/>
  </g>
</svg>
