<svg xmlns="http://www.w3.org/2000/svg" width="20" height="18.334" viewBox="0 0 20 18.334">
  <path id="Path_1948" data-name="Path 1948" d="M24.25,25.25l.661.661a.833.833,0,0,0,1.178,0l.661-.661h.417a.833.833,0,0,1,.833.833V29a.833.833,0,0,1-.833.833H23.833A.833.833,0,0,1,23,29V26.084a.833.833,0,0,1,.833-.833Zm-15,0,.661.661a.833.833,0,0,0,1.178,0l.661-.661h.417a.833.833,0,0,1,.833.833V29a.833.833,0,0,1-.833.833H8.833A.833.833,0,0,1,8,29V26.084a.833.833,0,0,1,.833-.833Zm6.763,1.788v.417H14.926q3.057,1.9,7.128.02l.208.361q-4.3,2.024-7.5-.03v.9h-.417V27.038ZM25.5,21.5a1.667,1.667,0,1,1-1.667,1.667A1.667,1.667,0,0,1,25.5,21.5Zm-15,0a1.667,1.667,0,1,1-1.667,1.667A1.667,1.667,0,0,1,10.5,21.5Zm11.58-8.107Q25.982,16.1,25.8,19.9l.779-.45.208.361-1.444.833L24.514,19.2l.361-.208.544.941q.119-3.6-3.546-6.182Zm-8.792-.226L14.732,14h0L13.9,15.443l-.361-.208.543-.942q-3.175,1.7-3.581,6.163h-.417q.394-4.733,3.775-6.479l-.778-.45ZM16.75,15.25l.661.661a.833.833,0,0,0,1.178,0l.661-.661h.417a.833.833,0,0,1,.833.833V19a.833.833,0,0,1-.833.833H16.333A.833.833,0,0,1,15.5,19V16.083a.833.833,0,0,1,.833-.833ZM18,11.5a1.667,1.667,0,1,1-1.667,1.667A1.667,1.667,0,0,1,18,11.5Z" transform="translate(-8 -11.5)"/>
</svg>
