<svg xmlns="http://www.w3.org/2000/svg" width="309.597" height="363.451" viewBox="0 0 309.597 363.451">
  <g id="Layer_1" data-name="Layer 1" transform="translate(-136.926 -53.306)">
    <g id="Group_95" data-name="Group 95" transform="translate(136.926 53.306)">
      <g id="Applicant_Personal" data-name="Applicant Personal">
        <g id="Group_94" data-name="Group 94">
          <g id="Group_120" data-name="Group 120" transform="translate(48.792 203.383)">
            <path id="Path_2066" data-name="Path 2066" d="M219.815,649.38l-.474-1.355,1.355-.474.474,1.355Zm-1.422-4.064-.474-1.355,1.355-.474.474,1.355Zm-1.422-4.064L216.5,639.9l1.355-.474.474,1.355Zm-1.422-4.064-.474-1.355,1.355-.474.474,1.355Zm-1.422-4.064-.474-1.355,1.355-.474.474,1.355Zm-1.421-4.063-.474-1.355,1.355-.474.474,1.355ZM211.285,625l-.474-1.355,1.355-.474.474,1.355Zm-1.421-4.064-.474-1.354,1.355-.474.474,1.354Zm-1.422-4.064-.474-1.354,1.355-.474.474,1.354Zm.7-3.592-1.026-1,1-1.026,1.026,1Zm3.011-3.078-1.026-1,1-1.026,1.026,1Zm3.01-3.077-1.026-1,1-1.026,1.026,1Zm3.011-3.078-1.026-1,1-1.026,1.026,1Zm3.011-3.078-1.026-1,1-1.026,1.026,1Zm3.011-3.077-1.026-1,1-1.026,1.026,1Zm3.011-3.078-1.026-1,1-1.026,1.026,1Zm3.011-3.077-1.026-1,1-1.026,1.026,1Zm3.011-3.077-1.026-1,1-1.026,1.026,1Zm3.011-3.078-1.026-1,1-1.026,1.026,1Zm3.011-3.077-1.026-1,1-1.026,1.026,1Z" transform="translate(-207.968 -580.476)" fill="#b4c5cd"/>
          </g>
          <g id="Group_121" data-name="Group 121" transform="translate(142.679 259.789)">
            <path id="Path_2067" data-name="Path 2067" d="M410.746,706.134l-2.139-4.929-3.226,4.214-1.139-.873,4.71-6.151,2.359,5.436,2.949-2.389,1.889,1.757-.977,1.051-.977-.909Z" transform="translate(-404.242 -698.395)" fill="#b4c5cd"/>
          </g>
          <g id="Group_123" data-name="Group 123" transform="translate(59.114 49.648)">
            <path id="Path_2069" data-name="Path 2069" d="M233.178,265.645l-3.632-3.3.966-1.061,2.355,2.142,2.683-4.334,1.22.756Z" transform="translate(-229.546 -259.088)" fill="#b4c5cd"/>
          </g>
          <g id="Group_124" data-name="Group 124" transform="translate(7.05 129.286)">
            <path id="Path_2070" data-name="Path 2070" d="M120.7,435.76l3.89-10.187,7.3,7.01Zm4.458-7.652-2.1,5.49,6.031-1.712Z" transform="translate(-120.704 -425.573)" fill="#b4c5cd"/>
          </g>
          <g id="Group_125" data-name="Group 125" transform="translate(267.6)">
            <path id="Path_2071" data-name="Path 2071" d="M669.341,165.983,665.393,155.3l13.1.694Zm-1.846-9.139,2.377,6.435,5.509-6.017Z" transform="translate(-665.393 -155.296)" fill="#b4c5cd"/>
          </g>
          <g id="Group_61" data-name="Group 61" transform="translate(207.512 194.376)">
            <g id="Group_59" data-name="Group 59">
              <g id="Group_53" data-name="Group 53">
                <path id="Path_1951" data-name="Path 1951" d="M215.375,122.516l-.144.1q-11.825,6.681-8.466,18.178,2.806,11.749,17.671,15.722a69.974,69.974,0,0,0,17.5,2.541q-2.135.324,33.78-.246,19.713-1.243,26.575-7.127,5.865-6.018,5.451-8.325a18.513,18.513,0,0,0-.1-7.79q-3.068-11.415-11.373-13.316-11.312-4.217-29.137-4.223Q221.676,119.2,215.375,122.516Z" transform="translate(-206.023 -118.029)" fill="#f6777b"/>
              </g>
              <g id="Group_54" data-name="Group 54" transform="translate(13.685 12.661)">
                <path id="Path_1952" data-name="Path 1952" d="M217.326,122.245a.678.678,0,0,0-.643.411l-1.736,4.054-3.784.547a.68.68,0,0,0-.273,1.243l3.349,2.165-1.448,4.79a.679.679,0,0,0,1.168.637l3.189-3.766,3.2,3.373a.673.673,0,0,0,.478.21.708.708,0,0,0,.369-.1.683.683,0,0,0,.291-.8l-1.442-4.238,3.649-2.553a.679.679,0,0,0,.27-.73.686.686,0,0,0-.6-.5l-4.18-.381-1.228-3.886a.676.676,0,0,0-.613-.475Z" transform="translate(-210.579 -122.245)" fill="#fff"/>
              </g>
              <g id="Group_55" data-name="Group 55" transform="translate(29.119 12.481)">
                <path id="Path_1953" data-name="Path 1953" d="M222.465,122.185a.686.686,0,0,0-.643.411l-1.736,4.054-3.784.547a.68.68,0,0,0-.273,1.243l3.349,2.165L217.93,135.4a.678.678,0,0,0,.1.595.687.687,0,0,0,.535.282.694.694,0,0,0,.538-.24l3.189-3.769,3.2,3.373a.681.681,0,0,0,1.138-.688l-1.442-4.238,3.652-2.55a.682.682,0,0,0-.33-1.237l-4.18-.381L223.1,122.66a.687.687,0,0,0-.616-.475Z" transform="translate(-215.719 -122.185)" fill="#fff"/>
              </g>
              <g id="Group_56" data-name="Group 56" transform="translate(44.42 12.027)">
                <path id="Path_1954" data-name="Path 1954" d="M227.56,122.034a.674.674,0,0,0-.64.411l-1.736,4.054-3.787.547a.678.678,0,0,0-.27,1.243l3.346,2.165-1.448,4.793a.684.684,0,0,0,.637.877.688.688,0,0,0,.535-.24l3.189-3.769,3.2,3.373a.685.685,0,0,0,.844.114.683.683,0,0,0,.294-.8l-1.442-4.238,3.649-2.55a.682.682,0,0,0-.327-1.237l-4.18-.381-1.228-3.886a.681.681,0,0,0-.616-.475Z" transform="translate(-220.814 -122.034)" fill="#fff"/>
              </g>
              <g id="Group_57" data-name="Group 57" transform="translate(60.53 12.325)">
                <path id="Path_1955" data-name="Path 1955" d="M232.924,122.133a.679.679,0,0,0-.64.411l-1.739,4.054-3.784.547a.681.681,0,0,0-.27,1.246l3.346,2.162-1.448,4.793a.681.681,0,0,0,1.171.637l3.189-3.766,3.2,3.37a.683.683,0,0,0,.478.213.682.682,0,0,0,.658-.9l-1.439-4.238,3.649-2.55a.68.68,0,0,0-.327-1.234l-4.183-.384-1.225-3.886a.684.684,0,0,0-.616-.474Z" transform="translate(-226.178 -122.133)" fill="#fff"/>
              </g>
              <g id="Group_58" data-name="Group 58" transform="translate(76.642 12.286)">
                <path id="Path_1956" data-name="Path 1956" d="M238.289,122.12a.681.681,0,0,0-.643.411l-1.736,4.054-3.784.547a.674.674,0,0,0-.568.526.682.682,0,0,0,.294.718l3.349,2.165-1.448,4.793a.676.676,0,0,0,.634.874.665.665,0,0,0,.535-.24l3.192-3.766,3.2,3.373a.681.681,0,0,0,1.138-.688l-1.442-4.238,3.652-2.55a.682.682,0,0,0-.327-1.237l-4.183-.381-1.225-3.886a.683.683,0,0,0-.616-.475Z" transform="translate(-231.543 -122.12)" fill="#fff"/>
              </g>
            </g>
            <g id="Group_60" data-name="Group 60" transform="translate(71.591 7.673)">
              <path id="Path_1957" data-name="Path 1957" d="M254.731,120.584a20.311,20.311,0,0,0-3.769,4.661,13.376,13.376,0,0,0-1.321,4q-.369,1.987-.8,7.265l-.366,1.7a12.23,12.23,0,0,1-2.619,4.931q-1.924,2.8-3.586,3.042l-.877.228q-1.167-.023-2.144-.021a38.245,38.245,0,0,0-4.153.159,4.779,4.779,0,0,0-2.523,1.009q-1.045.419-2.712,6,18.15-1.4,24.677-6.994,5.865-6.018,5.451-8.325a18.513,18.513,0,0,0-.1-7.79q-1.734-6.455-5.141-9.866Z" transform="translate(-229.861 -120.584)" fill="rgba(0,0,0,0.15)"/>
            </g>
          </g>
          <g id="Group_62" data-name="Group 62" transform="translate(50.826 337.626)">
            <path id="Path_1958" data-name="Path 1958" d="M153.85,165.728h0Z" transform="translate(-153.85 -165.728)" fill="#ece4e2"/>
          </g>
          <g id="Group_67" data-name="Group 67" transform="translate(0 150.064)">
            <g id="Group_63" data-name="Group 63" transform="translate(16.674 56.866)">
              <path id="Path_1959" data-name="Path 1959" d="M142.478,122.329l7.736-.12,1.165,73.329-7.733.126Z" transform="translate(-142.478 -122.209)" fill="#a7b1ba"/>
            </g>
            <g id="Group_64" data-name="Group 64" transform="translate(38.615)">
              <path id="Path_1960" data-name="Path 1960" d="M149.784,103.652l23.945-.378,2.186,137.313-23.945.384Z" transform="translate(-149.784 -103.274)" fill="#a7b1ba"/>
            </g>
            <g id="Group_65" data-name="Group 65" transform="translate(73.371 30.954)">
              <path id="Path_1961" data-name="Path 1961" d="M161.357,113.647l4.418-.066,1.913,120.128-4.421.072Z" transform="translate(-161.357 -113.581)" fill="#ece4e2"/>
            </g>
            <g id="Group_66" data-name="Group 66" transform="translate(0 74.47)">
              <path id="Path_1962" data-name="Path 1962" d="M136.926,128.149l4.922-.078.679,42.483-4.925.081Z" transform="translate(-136.926 -128.071)" fill="#a7b1ba"/>
            </g>
          </g>
          <g id="Group_68" data-name="Group 68" transform="translate(61.631 187.565)">
            <path id="Path_1963" data-name="Path 1963" d="M166.479,194.5c-2.042,9.295-4.081,18.59-4.15,32.948s1.826,33.786,3.724,53.214c-1.748,3.88-3.493,7.76,2.709,9.367a44.861,44.861,0,0,0,10.214.922c5.985,0,12.508-.631,16.061-1.607,5.922-1.628,3.616-4.219-.49-5.1a26.766,26.766,0,0,0-5.385-.42c-1.67,0-3.352.06-4.865.06a22.2,22.2,0,0,1-3.093-.165c-3.325-.49-4.072-2.306-4.817-4.123,6.436-29.849,12.872-59.7,14.827-87.006s-.574-52.07-3.1-76.834c-12.968,1.045-25.939,2.093-29.543,15.217S160.719,169.3,166.479,194.5Z" transform="translate(-157.448 -115.761)" fill="#d56b6f"/>
          </g>
          <g id="Group_69" data-name="Group 69" transform="translate(68.592 333.674)">
            <path id="Path_1964" data-name="Path 1964" d="M175.567,164.412q-1.892,1.5-4.727,3.94a13.149,13.149,0,0,1-2.826,1.787,8.2,8.2,0,0,1-2.808.649.661.661,0,0,1-.213.015q-.739,0-4-.267c-.3,0-.577.018-.829.042q.568,5.946,1.246,12.628-2.167,4.419-1.478,6.34,1.14,3.955,13.583,3.952c.267,0,.541,0,.817,0q18.285-.324,19.644-3.949-.622-2.216-4.481-2.835-.941-.365-7.172-.363c-1.342,0-2.868.012-4.577.036l-2.646-.466q-2.153-.541-3.358-3.775,2.059-9.257,3.835-17.731Z" transform="translate(-159.766 -164.412)" fill="#e8ad9e"/>
          </g>
          <g id="Group_70" data-name="Group 70" transform="translate(68.592 353.315)">
            <path id="Path_1965" data-name="Path 1965" d="M172.675,170.952a10.182,10.182,0,0,1-2.216,1.345,6.025,6.025,0,0,1-2.045.351H168.3a1.13,1.13,0,0,1-.168.009q-.806,0-4.553-.538c-.279-.027-.559-.042-.844-.042a8.874,8.874,0,0,0-1.012.06,5.284,5.284,0,0,0-1.363.372,6.226,6.226,0,0,0-.432,3.934q1.14,3.955,13.583,3.952c.267,0,.541,0,.817,0q18.285-.324,19.644-3.949-.622-2.216-4.481-2.835-.941-.365-7.172-.363c-1.342,0-2.868.012-4.577.036l-2.646-.466a4.141,4.141,0,0,1-2.415-1.865Z" transform="translate(-159.766 -170.952)" fill="#0d1b45"/>
          </g>
          <g id="Group_71" data-name="Group 71" transform="translate(61.656 193.022)">
            <path id="Path_1966" data-name="Path 1966" d="M184.7,117.578c-.24,0-.478,0-.718,0l-8.286.664a42.273,42.273,0,0,0-14.716,5.316l-1.508,1.09a22.37,22.37,0,0,0-.925,2.688,34.336,34.336,0,0,0-1.066,7.514l-.03,4.406q.135,4.613.787,9.9,1.5,13.05,8.22,41.7l-.511,2.328a134.473,134.473,0,0,0-3.64,30.621q-.275,13.839,3.724,53.214-2.167,4.419-1.478,6.34,1.14,3.955,13.583,3.952c.267,0,.541,0,.817,0q18.285-.324,19.644-3.949-.622-2.216-4.481-2.835-.937-.365-7.118-.363-.635.518-1.288,1.078a19.406,19.406,0,0,1-5.289,1.937c-.844.078-1.643.114-2.4.114q-6.451,0-8.394-3.766a6.232,6.232,0,0,1-.5-2.5q2.225-1.969,3.358-21.641-.613-15.92.553-36.363-1.667-16.573-1.481-24.293a26.507,26.507,0,0,1,1.466-8.694q3.077-12,12.622-12.98a5.5,5.5,0,0,1,1.15-.105,19.767,19.767,0,0,1,5.084.9q.095-4.676-.255-17.893-.518-14.4-2.952-38.264Q186.74,117.577,184.7,117.578Z" transform="translate(-157.456 -117.578)" fill="rgba(0,0,0,0.16)"/>
          </g>
          <g id="Group_72" data-name="Group 72" transform="translate(34.116 194.602)">
            <path id="Path_1967" data-name="Path 1967" d="M208.368,194.518c-7.448,5.922-14.9,11.845-24.011,22.941s-19.905,27.362-30.69,43.628c-3.805,1.91-7.607,3.817-3.811,8.98s15.2,13.575,20.815,16.049a8.18,8.18,0,0,0,3.072.838c2.336,0,1.772-2.607-.237-5.1-2.634-3.271-7.745-6.349-10.019-8.826s-1.7-4.361-1.135-6.241c27.179-16.686,54.361-33.372,66.407-58.136s8.959-57.61,5.871-90.457c-2.427-.045-4.85-.087-7.235-.087-13.451,0-25.629,1.415-29.344,12.217C193.674,143.043,201.022,168.78,208.368,194.518Z" transform="translate(-148.286 -118.104)" fill="#f6777b"/>
          </g>
          <g id="Group_73" data-name="Group 73" transform="translate(34.123 324.385)">
            <path id="Path_1968" data-name="Path 1968" d="M162.436,161.319q-4.09,6.077-8.772,13.2-5.735,2.41-5.352,5.667-.351,3.158,11.265,12.343Q169.9,200.3,173.8,200.3a2.991,2.991,0,0,0,.871-.12q1.55-1.387-1.171-4.9-.018-.721-9.394-8.2l-1.535-1.823q-1.333-1.779-.225-5.048,10.492-6.289,18.989-11.857c-.333-.123-.667-.228-1-.315a6.281,6.281,0,0,0-1.093-.075c-.339,0-.736.015-1.186.042q-4.46.5-5.859.5c-.141,0-.258,0-.351-.012a8,8,0,0,1-3.679-.868,10.807,10.807,0,0,1-3.105-2.6h0a24.7,24.7,0,0,1-2.619-3.709Z" transform="translate(-148.288 -161.319)" fill="#e8ad9e"/>
          </g>
          <g id="Group_74" data-name="Group 74" transform="translate(34.122 338.464)">
            <path id="Path_1969" data-name="Path 1969" d="M151.826,166.007q-3.829,2.108-3.514,4.787-.351,3.158,11.265,12.343,10.321,7.771,14.226,7.772a2.991,2.991,0,0,0,.871-.12q1.55-1.387-1.171-4.9-.018-.721-9.394-8.2l-1.535-1.823a4.058,4.058,0,0,1-.709-2.832h-.012c-.183,0-.36.006-.532.006a9.673,9.673,0,0,1-4.349-.8l-.018,0q-.3,0-1.859-1.853-2.072-2.834-3.261-4.388Z" transform="translate(-148.288 -166.007)" fill="#0d1b45"/>
          </g>
          <g id="Group_75" data-name="Group 75" transform="translate(34.123 204.635)">
            <path id="Path_1970" data-name="Path 1970" d="M227.885,121.445c-.4,0-.8.012-1.18.036l-2.928.12a48.981,48.981,0,0,0-27.044,12.683q.072,2.8.411,5.922-.063,2.131,2.883,16.388,1.851,8.645,8.337,31.23l-1.862,1.484a134.36,134.36,0,0,0-22.149,21.458q-8.947,10.559-30.69,43.628-5.735,2.41-5.352,5.667-.351,3.158,11.265,12.343,10.321,7.771,14.226,7.772a2.991,2.991,0,0,0,.871-.12q1.55-1.387-1.171-4.9-.009-.419-3.138-3.084Q159.7,269.826,159,267.764q-5.217-8.694-.453-14.2,3.987-5.793,13.827-12.271l8.3-9.421q1.649-1.888,6.352-14.779a24.583,24.583,0,0,1,4.132-5.814,67.489,67.489,0,0,1,7.5-6.643q16.051-9.384,17.106-11.92a6.473,6.473,0,0,0,.811-3.048q.041-10.969.694-14.544.766-5.708,3.294-8.163a16.879,16.879,0,0,1,9.694-2.8c.484,0,.973.018,1.475.048a22.289,22.289,0,0,1,5.409,1.225q.162-2.811.219-5.679.036-18.1-1.625-37.1A30.082,30.082,0,0,0,227.885,121.445Z" transform="translate(-148.288 -121.445)" fill="rgba(0,0,0,0.16)"/>
          </g>
          <g id="Group_76" data-name="Group 76" transform="translate(52.99 141.598)">
            <path id="Path_1971" data-name="Path 1971" d="M181.8,173.463c2.1-34.735,4.2-69.47-2.856-72.747a2.911,2.911,0,0,0-1.222-.261c-7.544,0-22.107,26.107-23.1,42.534C153.575,160.357,167.69,166.91,181.8,173.463Z" transform="translate(-154.571 -100.455)" fill="#3276b8"/>
          </g>
          <g id="Group_77" data-name="Group 77" transform="translate(69.467 146.743)">
            <path id="Path_1972" data-name="Path 1972" d="M160.057,102.216l.006.051a.12.12,0,0,0,.027.069l.027.021.033.012h.039l.048-.009.054-.018.06-.027.294-.147Z" transform="translate(-160.057 -102.168)" fill="#e8ad9e"/>
          </g>
          <g id="Group_78" data-name="Group 78" transform="translate(53.784 158.041)">
            <path id="Path_1973" data-name="Path 1973" d="M185.3,105.93l-2.234.943-1.58.667q-14.735,6.766-21,18.884-3.041,4.739-5.643,13.671l1.081,3.093,1.622,3,2.048,2.7a32.012,32.012,0,0,0,6.964,5.9,102.345,102.345,0,0,0,14.725,7.709l.52-8.667q1.5-24.839,1.514-37.973a13.172,13.172,0,0,0-3.2-1.91l3.078-4.754v-.015h.012Z" transform="translate(-154.835 -105.93)" fill="rgba(0,0,0,0.16)"/>
          </g>
          <g id="Group_79" data-name="Group 79" transform="translate(52.85 133.766)">
            <path id="Path_1974" data-name="Path 1974" d="M175.865,106.079,154.524,214.452c10.37-.877,20.743-1.757,32.78-6.739s25.746-14.07,39.453-23.161l-9.986-77.963c-6.709-4.328-13.418-8.655-20.236-8.739l-.207,0C189.577,97.847,182.721,101.964,175.865,106.079Z" transform="translate(-154.524 -97.847)" fill="#3276b8"/>
          </g>
          <g id="Group_80" data-name="Group 80" transform="translate(98.256 159.897)">
            <path id="Path_1975" data-name="Path 1975" d="M188.7,106.548c-.135.147-.27.3-.4.451l-1.406,1.8a26.784,26.784,0,0,0-2.379,4.132,11.9,11.9,0,0,0-1.333,4,34.906,34.906,0,0,0-.192,7.971l3.192,23.572q.91,10.969.207,13.3a6.043,6.043,0,0,1-1.117,2.132q-3.126,2.581-13.965,17.259a22.617,22.617,0,0,0-1.667,2.874q10.739-6.073,26.828-16.92l-7.757-60.575Z" transform="translate(-169.643 -106.548)" fill="rgba(0,0,0,0.16)"/>
          </g>
          <g id="Group_87" data-name="Group 87" transform="translate(177.495)">
            <g id="Group_81" data-name="Group 81">
              <path id="Path_1976" data-name="Path 1976" d="M216.528,70.917s-3.045,4.808-4.244,7.382a88.245,88.245,0,0,0-3.805,9.887,191.391,191.391,0,0,0-6.133,25.314c-5.652,31.074-9.815,64.1-2.084,94.727a33.873,33.873,0,0,0,12.184,18.6c10.325,7.6,24.035,11.232,37.537,11.232a71.459,71.459,0,0,0,21-3.081c7.379-2.291,14.833-6.412,19.458-12.6,12.289-16.449,15.091-38.486,18.617-58.713,3.457-19.83,5.7-40.012,5.451-60.139-.126-10.337-.138-21.368-4.67-30.657-7.06-14.463-26.242-19.557-44.516-19.557a98.958,98.958,0,0,0-19.416,1.91c-8.535,1.733-17.256,4.778-24.029,10.25A62.022,62.022,0,0,0,216.528,70.917Z" transform="translate(-196.028 -53.306)" fill="#a7b1ba"/>
            </g>
            <g id="Group_82" data-name="Group 82" transform="translate(20.11 34.902)">
              <path id="Path_1977" data-name="Path 1977" d="M262.425,64.929l-.093,0h-.114a22.862,22.862,0,0,0-5.4.514l-.763.258-.619.411-.492.535a5.283,5.283,0,0,0-.685,1.294l-.85,3-.171.288-.219.105.3.24a6.659,6.659,0,0,0,2.391.631,29.363,29.363,0,0,0,3.493.192c.087.006.213.006.378.006.463,0,1.228-.03,2.3-.075q9.861-.649,12.361-.751,1.568-.072,2.979-.087c.6,0,1.171,0,1.727.009l.565-6.178c-.625.012-1.222.024-1.79.033q-2.6.041-4.43-.006-3.234-.077-8.625-.387Q262.973,64.92,262.425,64.929ZM264.119,88.2H263.8a52.807,52.807,0,0,0-8.277.363l-1.159.231-.925.393-.73.514a4.537,4.537,0,0,0-.988,1.264l-1.159,2.943-.252.282-.327.1.466.246a15.255,15.255,0,0,0,3.691.7q2.478.239,5.37.3c.135.009.33.012.586.018q1.063.014,3.535,0,15.262-.342,19.16-.366,2.451-.022,4.658.006,1.406.023,2.712.063l.589-6.184c-.982,0-1.919-.006-2.814-.015q-4.068-.032-6.922-.129-5.05-.162-13.421-.622Q264.967,88.21,264.119,88.2Zm-37.165,36.957-.237-.009-.291-.015q-10.037-.459-13.776-.228l-1.9.141-1.5.306-1.168.435a4.9,4.9,0,0,0-1.541,1.126l-1.7,2.7-.393.243-.535.069.787.267a43.959,43.959,0,0,0,6.139.931q4.126.41,8.944.682c.225.018.55.036.976.06q1.779.095,5.922.264,25.88.824,32.588,1.1,4.235.162,8.07.363,2.451.131,4.733.273l.544-5.973q-2.572-.113-4.9-.219-7.055-.329-11.989-.628-8.663-.523-22.908-1.556Q228.379,125.224,226.954,125.158Zm-.535,16.136-.237-.015-.291-.018q-10.041-.626-13.782-.462l-1.9.108-1.508.279-1.168.414a4.759,4.759,0,0,0-1.541,1.09l-1.7,2.655-.393.237-.535.057.787.282a45.226,45.226,0,0,0,6.142,1.027q4.131.478,8.95.829c.225.021.553.045.979.075q1.784.126,5.922.36,25.9,1.261,32.612,1.649,4.239.239,8.082.5,2.446.167,4.73.348l.541-5.922-4.916-.3q-7.055-.446-11.986-.829-8.667-.662-22.926-1.931Q227.847,141.385,226.419,141.294Zm-8.7,16.8-.153-.012-.186-.015a65.266,65.266,0,0,0-8.859-.318l-1.234.126-.985.288-.769.423a3.758,3.758,0,0,0-1.027,1.1l-1.174,2.646-.261.24-.348.063.5.267a19.606,19.606,0,0,0,3.961.946q2.662.419,5.76.706c.144.018.351.039.628.063q1.14.1,3.793.282,16.393.905,20.593,1.2,2.644.171,5.027.381,1.518.131,2.928.276l.487-5.73-.015,0c-1.057-.081-2.069-.159-3.03-.237q-4.383-.36-7.46-.676-5.437-.554-14.448-1.646Q218.632,158.171,217.722,158.1Zm12.268,18.8-.216-.021-.27-.027q-9.122-.9-12.532-.841l-1.733.054-1.375.234-1.069.375a4.33,4.33,0,0,0-1.414,1.042l-1.574,2.583-.36.228-.49.042.718.3a38.889,38.889,0,0,0,5.592,1.186q3.762.586,8.145,1.066c.2.027.5.06.889.1q1.622.171,5.382.52,23.461,1.942,29.522,2.508,3.829.347,7.295.709,2.2.234,4.253.472l.535-5.823c-1.541-.15-3.009-.291-4.409-.432q-6.37-.631-10.827-1.144-7.834-.892-20.743-2.541Q231.288,177.025,229.99,176.9Z" transform="translate(-202.724 -64.927)" fill="#fff"/>
            </g>
            <g id="Group_83" data-name="Group 83" transform="translate(15.561 25.384)">
              <path id="Path_1978" data-name="Path 1978" d="M211.347,108.535l-2.526-1.871a22.7,22.7,0,0,1-7.586-16.379q-.437-9.951,6.391-18.755,6.919-8.149,16.458-9.631,7.685-.437,9.127.49a20.858,20.858,0,0,1,5.685,2.5A21.891,21.891,0,0,1,248.68,80q1.631,9.64-4.015,19.046-6.064,9.14-15.464,11.818A21.89,21.89,0,0,1,211.347,108.535Z" transform="translate(-201.209 -61.758)" fill="#fff"/>
            </g>
            <g id="Group_84" data-name="Group 84" transform="translate(20.458 60.608)">
              <path id="Path_1979" data-name="Path 1979" d="M218.646,73.487h-.051a32.531,32.531,0,0,0-12.953,4.331,29.152,29.152,0,0,0-2.8,1.934,24.585,24.585,0,0,0,1.258,2.595,17.859,17.859,0,0,0,12.13,9.2,20.349,20.349,0,0,0,2.631.24,18.64,18.64,0,0,0,12.707-4.646,25.558,25.558,0,0,0,4.727-5.244l-3.2-.405a8.7,8.7,0,0,1-1.937-.631,13.836,13.836,0,0,1-2.643-1.637q-5.343-4.509-5.841-4.622A7.845,7.845,0,0,0,218.646,73.487Z" transform="translate(-202.84 -73.487)" fill="#3276b8"/>
            </g>
            <g id="Group_85" data-name="Group 85" transform="translate(32.087 39.826)">
              <path id="Path_1980" data-name="Path 1980" d="M206.712,88.268c1.433-1.622,2.865-3.24,2.568-5.457s-2.331-5.024-2.057-8.448,2.853-7.457,5.322-7.775a2.312,2.312,0,0,1,.321-.021c2.349,0,4.508,3.252,4.589,6.514.081,3.409-2.111,6.826-2.841,9.451s0,4.454.724,6.286c-1.97,4.051-3.94,8.1-5.376,8.1h-.048C208.478,96.827,207.595,92.548,206.712,88.268Z" transform="translate(-206.712 -66.567)" fill="#e8ad9e"/>
            </g>
            <g id="Group_86" data-name="Group 86" transform="translate(30.327 29.425)">
              <path id="Path_1981" data-name="Path 1981" d="M216.7,67.345l.018.135a.576.576,0,0,0,.126.315.44.44,0,0,0,.15.141.2.2,0,0,0,.093.024h.006a.517.517,0,0,0,.141-.15.621.621,0,0,0,.069-.111h.009c-.1-.069-.234-.162-.345-.225-.129-.072-.219-.108-.261-.129Zm2.583,3.613a.411.411,0,0,0-.219.084,1.319,1.319,0,0,0-.3.306.806.806,0,0,0-.168.369,1.449,1.449,0,0,0-.018.414c.006.048.012.1.021.144h.006a.207.207,0,0,0,.117.036l.033,0a3.089,3.089,0,0,0,.571-.279.642.642,0,0,0,.315-.369.762.762,0,0,0-.126-.493c-.114-.213-.141-.2-.216-.21Zm-11.352,3.52a.94.94,0,0,0-.39.153,1.364,1.364,0,0,0-.192.135h.006a.366.366,0,0,0,.1.06.377.377,0,0,0,.123.021.948.948,0,0,0,.387-.123c.216-.114.144-.075.114-.15a.127.127,0,0,0-.138-.1ZM214.084,63.1a3.03,3.03,0,0,1,.4.018,2.813,2.813,0,0,1,1,.321,3.886,3.886,0,0,1,.883.673,5.051,5.051,0,0,1,.658.82,5.85,5.85,0,0,1,.36.646h.006l.141.057a2,2,0,0,1,.646.426,1.9,1.9,0,0,1,.429.658,1.574,1.574,0,0,1,.1.688,5.112,5.112,0,0,1-.066.589,5.838,5.838,0,0,1-.135.619,3.127,3.127,0,0,1-.12.408,3.791,3.791,0,0,1-.216.423c-.1.159-.213.348-.354.559a1.579,1.579,0,0,0-.162.264c-.018.039-.033.075-.048.111s-.021.069-.03.105a.6.6,0,0,0-.024.144.7.7,0,0,0,.027.2,2.245,2.245,0,0,0,.108.288,5.891,5.891,0,0,0,.4.619l.03.039v0a1.592,1.592,0,0,1,.186-.568,1.989,1.989,0,0,1,.414-.535,1.053,1.053,0,0,1,.481-.258.419.419,0,0,1,.105-.012.571.571,0,0,1,.432.216,1.3,1.3,0,0,1,.354.82,1.1,1.1,0,0,1-.315.829,2.255,2.255,0,0,1-.757.487,1.013,1.013,0,0,1-.234.069h.006l.015.021a.948.948,0,0,0,.12.126c.045.036.1.072.141.1s.55.207.988.378.8.324,1.1.468a3.785,3.785,0,0,1,.685.4,5.709,5.709,0,0,1,.706.778,7.055,7.055,0,0,1,.571.811,1.854,1.854,0,0,1,.255.637,2.5,2.5,0,0,1,.006.64,3.189,3.189,0,0,1-.171.718,4.047,4.047,0,0,1-.354.745,2.112,2.112,0,0,1-.469.532h.006c.072.174.141.369.216.595a4.056,4.056,0,0,1,.234,1.156,5.443,5.443,0,0,1-.06,1,7.908,7.908,0,0,1-.246,1.093,7.47,7.47,0,0,1-.532,1.27,5.993,5.993,0,0,1-.769,1.132,4.87,4.87,0,0,1-.955.859,3.784,3.784,0,0,1-1.3.538,2.383,2.383,0,0,1-.45.045,1.761,1.761,0,0,1-.784-.171,2.1,2.1,0,0,1-.9-.907,3.113,3.113,0,0,1-.354-1.114,7.592,7.592,0,0,1-.081-.841,3.681,3.681,0,0,1,.027-.7,3.258,3.258,0,0,1,.075-.405c.027-.1.057-.2.09-.3s.072-.21.117-.33l.051-.12.006,0a8,8,0,0,0-1.159-.538c-.517-.2-.928-.33-1.312-.435a7.532,7.532,0,0,0-1.919-.3h-.192a2.517,2.517,0,0,0-.387.03,5.677,5.677,0,0,0-.775.171c-.309.087-.667.2-.919.279a1.656,1.656,0,0,1-.408.093,1,1,0,0,1-.132.006c-.033,0-.063,0-.1,0a1.346,1.346,0,0,1-.306-.054,3.319,3.319,0,0,1-.652-.264,4.674,4.674,0,0,1-.748-.49,4.827,4.827,0,0,1-.739-.715,3.29,3.29,0,0,1-.538-.94,4.86,4.86,0,0,1-.288-1.111,5.729,5.729,0,0,1-.054-1.216,3.451,3.451,0,0,1,.174-.928,3.24,3.24,0,0,1,.336-.712c.039-.06.078-.12.12-.174h.009a3.208,3.208,0,0,1-.174-.844,3.256,3.256,0,0,1,.072-1.078,3.662,3.662,0,0,1,.426-1.009,6.074,6.074,0,0,1,.4-.574h0a2.76,2.76,0,0,1-.285-.447,2.875,2.875,0,0,1-.2-.5,2.8,2.8,0,0,1-.105-.658,4.916,4.916,0,0,1,.063-1.06,4.528,4.528,0,0,1,.309-1.072,4.124,4.124,0,0,1,.5-.88,1.414,1.414,0,0,1,.417-.387,2.408,2.408,0,0,1,.414-.2,4.6,4.6,0,0,1,.448-.138,1.615,1.615,0,0,1,.345-.048h.018a2.038,2.038,0,0,1,.348.021,3.078,3.078,0,0,1,.5.114,3.251,3.251,0,0,1,.763.357c.045.03.09.06.135.093v0a5.244,5.244,0,0,1,.2-.847,5.181,5.181,0,0,1,.519-1.111,3.335,3.335,0,0,1,.694-.8,2.17,2.17,0,0,1,.862-.435A2.874,2.874,0,0,1,214.084,63.1Z" transform="translate(-206.126 -63.104)"/>
            </g>
          </g>
          <g id="Group_88" data-name="Group 88" transform="translate(101.664 119.627)">
            <path id="Path_1982" data-name="Path 1982" d="M242.08,107.062a110.236,110.236,0,0,1,3.9-11.995c.727-1.55,1.3-1.928,1.826-1.928a2.177,2.177,0,0,1,.733.174l.183,6.3c2.388-2.37,4.778-4.739,6.547-4.739a1.7,1.7,0,0,1,.568.093c1.8.619,2.757,4.493,1.637,8s-4.313,6.643-7.505,9.778c-8.19,24.849-16.383,49.7-31.378,54.394a19.608,19.608,0,0,1-5.868.856c-14.328,0-31.879-13.511-38.57-26.834-6.793-13.514-2.412-26.84,5.138-26.84a7.484,7.484,0,0,1,2.979.658c9.25,4,21.236,26.981,31.663,28.822a7.775,7.775,0,0,0,1.384.123C225.145,143.923,233.611,125.493,242.08,107.062Z" transform="translate(-170.778 -93.139)" fill="#3276b8"/>
          </g>
          <g id="Group_89" data-name="Group 89" transform="translate(165.05 119.594)">
            <path id="Path_1983" data-name="Path 1983" d="M205.347,93.128q-1.689,0-4.844,11.541l-.7,2.415q-3.91,8.924-7.916,16.521c.655-.024,1.2-.033,1.634-.033a4.841,4.841,0,0,1,1.255.087,6.942,6.942,0,0,1,4.018,2.1,18.526,18.526,0,0,1,2.631,5.307l.024.045q2.96-8.023,6.238-18.341,5.469-5.045,7.184-8.908a8.752,8.752,0,0,0-.49-8.3,1.461,1.461,0,0,0-1.285-.706q-2.131,0-6.655,4.787l-.183-6.3-.733-.174A.5.5,0,0,0,205.347,93.128Z" transform="translate(-191.884 -93.128)" fill="#e8ad9e"/>
          </g>
          <g id="Group_90" data-name="Group 90" transform="translate(86.222 101.604)">
            <path id="Path_1984" data-name="Path 1984" d="M165.636,121.486c2.093-3.484,4.183-6.967,4.216-12.553s-2-13.274.886-17.725a9.849,9.849,0,0,1,8.124-4.069,7.269,7.269,0,0,1,5.826,2.517c3.267,4.108,2.009,13.544.2,17.335-.769,1.616-1.637,2.2-2.562,2.2-1.243,0-2.589-1.066-3.934-2.132a8.4,8.4,0,0,0-.757,5.12c.4,2.234,1.775,5.256,3.15,8.277a18.044,18.044,0,0,1-6.457,1.943c-.321.021-.652.03-.994.03A47.213,47.213,0,0,1,165.636,121.486Z" transform="translate(-165.636 -87.138)" fill="#e8ad9e"/>
          </g>
          <g id="Group_91" data-name="Group 91" transform="translate(95.904 118.729)">
            <path id="Path_1985" data-name="Path 1985" d="M168.911,92.84a.058.058,0,0,0-.051.054l.619,1.2c.342.571.541.913.6,1.027l.526,1.252c.18.342.384.706.61,1.1l.06.1.015-.069a14.308,14.308,0,0,1,.652-1.862l.108.09-.883-1.159q-.559-.5-1.018-.865c-.736-.517-1.117-.8-1.144-.829A.19.19,0,0,0,168.911,92.84Z" transform="translate(-168.86 -92.84)" fill="rgba(0,0,0,0.16)"/>
          </g>
          <g id="Group_92" data-name="Group 92" transform="translate(82.642 132.655)">
            <path id="Path_1986" data-name="Path 1986" d="M164.444,102.2c3.376,1.49,6.751,2.979,10.238,2.979.171,0,.342-.006.517-.012,3.667-.159,7.46-2.036,11.253-3.916-1.183-1.883-2.367-3.769-4.174-3.769-.06,0-.12,0-.18.006-1.907.132-4.5,2.327-7.031,2.327h-.021c-2.523-.012-4.982-2.216-6.739-2.216h-.03C166.519,97.621,165.48,99.91,164.444,102.2Z" transform="translate(-164.444 -97.477)" fill="#3276b8"/>
          </g>
          <g id="Group_93" data-name="Group 93" transform="translate(80.787 86.243)">
            <path id="Path_1987" data-name="Path 1987" d="M176.487,88.153c-.009.039-.024.1-.048.2a.843.843,0,0,1-.258.45.868.868,0,0,1-.276.207.449.449,0,0,1-.162.033h-.006c-.036,0-.129-.09-.222-.2a1.059,1.059,0,0,1-.108-.159l-.012,0c.174-.105.42-.24.619-.333.231-.108.39-.162.466-.2Zm-4.886,5.22a.7.7,0,0,1,.363.111,1.884,1.884,0,0,1,.469.432.94.94,0,0,1,.234.52,1.725,1.725,0,0,1-.021.592c-.015.069-.033.135-.054.207h-.012a.543.543,0,0,1-.2.054l-.057-.006a5.1,5.1,0,0,1-.937-.384c-.321-.183-.462-.351-.49-.517a1.047,1.047,0,0,1,.279-.706c.225-.306.27-.294.4-.3Zm19.13,4.781a1.712,1.712,0,0,1,.667.213,2.411,2.411,0,0,1,.318.189l-.012,0a.727.727,0,0,1-.174.087.7.7,0,0,1-.219.033,1.666,1.666,0,0,1-.661-.171c-.36-.159-.24-.105-.18-.21a.245.245,0,0,1,.255-.144Zm-9.2-16.13a6.017,6.017,0,0,0-.7.039,5.937,5.937,0,0,0-1.757.5,7.665,7.665,0,0,0-1.6.985,9,9,0,0,0-1.931,2.123l-.012,0c-.084.024-.168.051-.249.081a4.149,4.149,0,0,0-1.162.631,3.19,3.19,0,0,0-.817.949,1.992,1.992,0,0,0-.264.979,5.661,5.661,0,0,0,.036.838,7.627,7.627,0,0,0,.147.877,3.4,3.4,0,0,0,.156.577,4,4,0,0,0,.312.595c.141.225.318.49.532.787a2.641,2.641,0,0,1,.246.372c.024.054.045.105.063.156a1.4,1.4,0,0,1,.042.15.94.94,0,0,1,.021.2,1.034,1.034,0,0,1-.078.291,2.369,2.369,0,0,1-.222.411,8.443,8.443,0,0,1-.757.895l-.054.057h0a1.853,1.853,0,0,0-.246-.8,2.457,2.457,0,0,0-.64-.748,1.643,1.643,0,0,0-.787-.357,1.137,1.137,0,0,0-.174-.015,1.191,1.191,0,0,0-.769.321,1.949,1.949,0,0,0-.709,1.174,1.285,1.285,0,0,0,.429,1.171,3.542,3.542,0,0,0,1.222.676,1.972,1.972,0,0,0,.4.093H172.2l-.03.03a1.323,1.323,0,0,1-.222.18,2.025,2.025,0,0,1-.255.15c-.084.039-.964.309-1.73.562s-1.408.481-1.928.688a8.083,8.083,0,0,0-1.219.586,10.7,10.7,0,0,0-1.3,1.123,11.894,11.894,0,0,0-1.072,1.156,2.759,2.759,0,0,0-.517.91,3.1,3.1,0,0,0-.1.91,3.733,3.733,0,0,0,.192,1.018,5.136,5.136,0,0,0,.5,1.054,2.858,2.858,0,0,0,.724.748l-.012,0c-.141.243-.285.526-.441.847a5.281,5.281,0,0,0-.55,1.649,6.331,6.331,0,0,0-.033,1.418,9.107,9.107,0,0,0,.276,1.553,8.579,8.579,0,0,0,.733,1.811,7.59,7.59,0,0,0,1.153,1.61,7.128,7.128,0,0,0,1.517,1.222,6.531,6.531,0,0,0,2.156.769,4.743,4.743,0,0,0,.76.063,3.749,3.749,0,0,0,1.363-.246,3.833,3.833,0,0,0,1.667-1.3,4.38,4.38,0,0,0,.757-1.6,9.458,9.458,0,0,0,.249-1.21,4.627,4.627,0,0,0,.045-1,3.3,3.3,0,0,0-.078-.58c-.03-.141-.066-.285-.111-.435s-.1-.3-.159-.472q-.022-.059-.072-.171l-.012,0a17.236,17.236,0,0,1,2.063-.784c.913-.282,1.643-.48,2.318-.637a18.073,18.073,0,0,1,1.877-.339c.574-.069,1.1-.1,1.481-.105.12,0,.228-.006.33-.006a5.148,5.148,0,0,1,.667.039,12.121,12.121,0,0,1,1.321.24c.526.12,1.132.282,1.562.39a3.467,3.467,0,0,0,.7.135c.078,0,.153.006.228.006.057,0,.111,0,.165,0a3.132,3.132,0,0,0,.541-.081,6.925,6.925,0,0,0,1.174-.387,9.816,9.816,0,0,0,1.366-.715,9.231,9.231,0,0,0,1.387-1.045,5.434,5.434,0,0,0,1.066-1.363,6.937,6.937,0,0,0,.646-1.613,7.239,7.239,0,0,0,.252-1.757,4.024,4.024,0,0,0-.189-1.339,3.721,3.721,0,0,0-.5-1.024,2.869,2.869,0,0,0-.189-.249l-.012,0a4.283,4.283,0,0,0,.411-1.222,3.814,3.814,0,0,0,.012-1.553,4.224,4.224,0,0,0-.616-1.445,7.228,7.228,0,0,0-.622-.817v0a4.951,4.951,0,0,0,.553-.655,4.16,4.16,0,0,0,.414-.727,3.71,3.71,0,0,0,.267-.949,6.039,6.039,0,0,0,.03-1.523,5.268,5.268,0,0,0-.405-1.535A4.96,4.96,0,0,0,192,86.771a2.12,2.12,0,0,0-.676-.547,4.532,4.532,0,0,0-.7-.273,7.731,7.731,0,0,0-.757-.18,3.077,3.077,0,0,0-.6-.06h-.03a4.46,4.46,0,0,0-.61.042,6.325,6.325,0,0,0-.88.18,6.993,6.993,0,0,0-1.372.541c-.081.042-.165.087-.246.135h0a6.061,6.061,0,0,0-.24-1.2,5.978,5.978,0,0,0-.76-1.568,4.264,4.264,0,0,0-1.1-1.126,3.673,3.673,0,0,0-1.43-.589A5.64,5.64,0,0,0,181.532,82.023Z" transform="translate(-163.826 -82.023)"/>
          </g>
        </g>
      </g>
    </g>
    <g id="Group_122" data-name="Group 122" transform="translate(147.266 68.22)">
      <path id="Path_2068" data-name="Path 2068" d="M182.267,317.038,181.273,316l1.035-.994.994,1.035Zm-2.983-3.1-.994-1.035,1.035-.995.994,1.036Zm-2.983-3.1-.994-1.035,1.035-.994.994,1.035Zm-2.983-3.1-.994-1.035,1.035-.994.994,1.035Zm-2.982-3.1-.994-1.035,1.035-.994.994,1.035Zm-2.983-3.1-.994-1.035,1.035-.994.994,1.035Zm-2.983-3.1-.994-1.035,1.035-.994.994,1.035Zm-2.982-3.1-.994-1.035,1.035-.994.994,1.035Zm-2.983-3.1-.994-1.035,1.035-.994.994,1.035Zm-2.983-3.1-.994-1.035,1.035-.995.994,1.036Zm-2.982-3.1-.994-1.035,1.035-.994.994,1.035Zm-2.983-3.1-.994-1.035,1.035-.994.994,1.035Zm-2.983-3.1-.994-1.035,1.035-.994.994,1.035Zm-2.983-3.1-.994-1.035,1.035-.994.994,1.035Zm-2.983-3.1-.994-1.035,1.035-.994.994,1.035Zm-2.983-3.1-.994-1.035,1.035-.994.994,1.035Zm-2.982-3.1-.994-1.035,1.035-.994.994,1.035Zm-2.983-3.1-.994-1.035,1.034-.995.994,1.035Zm-2.983-3.1-.994-1.035,1.035-.994.994,1.035Zm.39-3.241-1.112-.907.907-1.113,1.112.907Zm2.721-3.336-1.112-.907.907-1.112,1.112.907Zm2.721-3.336-1.112-.907.907-1.112,1.112.907Zm2.721-3.336L136.017,247l.907-1.112,1.113.907Zm2.721-3.336-1.113-.907.907-1.112,1.113.907Zm2.721-3.336-1.113-.907.907-1.113,1.113.907Zm2.721-3.336L144.18,237l.907-1.112,1.112.907Zm2.721-3.336-1.112-.907.907-1.112,1.112.907Zm2.721-3.336-1.112-.907.907-1.113,1.112.907Zm2.721-3.336-1.112-.907.907-1.112,1.113.907Zm2.721-3.336-1.113-.907.907-1.112,1.113.907Zm2.721-3.336-1.113-.907.907-1.112,1.113.907Zm2.721-3.336-1.112-.907.907-1.112,1.112.907Zm2.721-3.336-1.112-.907.907-1.113,1.112.907Zm2.721-3.336-1.112-.907.907-1.112,1.112.907Zm2.721-3.336-1.112-.907.907-1.112,1.112.907Zm2.721-3.336-1.112-.907.907-1.112,1.112.907Zm2.721-3.336-1.112-.907.907-1.112,1.112.907Zm2.721-3.336-1.112-.907.907-1.113,1.112.907Zm2.721-3.336-1.112-.907.907-1.112,1.112.907Zm2.721-3.336-1.112-.907.907-1.112,1.112.907Zm2.721-3.336-1.112-.907.388-.476,1.112.907Z" transform="translate(-127.582 -186.475)" fill="#b4c5cd"/>
    </g>
  </g>
</svg>
