<svg xmlns="http://www.w3.org/2000/svg" xmlns:xlink="http://www.w3.org/1999/xlink" width="328.578" height="363.451" viewBox="0 0 328.578 363.451">
  <defs>
    <linearGradient id="linear-gradient" x1="0.531" y1="-0.038" x2="0.464" y2="1.098" gradientUnits="objectBoundingBox">
      <stop offset="0.035" stop-color="#606060"/>
      <stop offset="0.678" stop-color="#3f6f9e"/>
      <stop offset="1" stop-color="#3276b8"/>
    </linearGradient>
    <linearGradient id="linear-gradient-2" x1="0.332" y1="0.323" x2="0.616" y2="0.896" gradientUnits="objectBoundingBox">
      <stop offset="0" stop-color="#1b1a20"/>
      <stop offset="0.978" stop-color="#7d4532"/>
    </linearGradient>
    <linearGradient id="linear-gradient-3" x1="-0.185" y1="0.374" x2="0.691" y2="0.629" gradientUnits="objectBoundingBox">
      <stop offset="0.212" stop-color="#ebbf85"/>
      <stop offset="1" stop-color="#d27d49"/>
    </linearGradient>
    <linearGradient id="linear-gradient-4" x1="18.929" y1="0.132" x2="18.857" y2="0.986" gradientUnits="objectBoundingBox">
      <stop offset="0.261" stop-color="#144f87"/>
      <stop offset="0.885" stop-color="#5cadb5"/>
    </linearGradient>
    <linearGradient id="linear-gradient-5" x1="66.463" y1="11.661" x2="66.411" y2="12.469" xlink:href="#linear-gradient-4"/>
    <linearGradient id="linear-gradient-6" x1="0.646" y1="0.703" x2="0.089" y2="0.09" xlink:href="#linear-gradient-2"/>
  </defs>
  <g id="Group_126" data-name="Group 126" transform="translate(-111.399 -155.296)">
    <g id="Group_99" data-name="Group 99" transform="translate(203.677 174.742)">
      <g id="Group_98" data-name="Group 98">
        <path id="Path_1988" data-name="Path 1988" d="M431.823,195.948,304.31,215.6l39.364,185.841,116.56-23.27Z" transform="translate(-304.31 -195.948)" fill="url(#linear-gradient)"/>
        <g id="Group_97" data-name="Group 97" transform="translate(20.128 14.089)">
          <path id="Path_1989" data-name="Path 1989" d="M354.86,280.409l97.353-26.874L441.486,225.4l-95.1,14.962Z" transform="translate(-346.388 -225.402)" fill="#3276b8"/>
          <path id="Path_1990" data-name="Path 1990" d="M513.4,372.048l5.549,35.132L463.22,418.306l-5.892-37.618Z" transform="translate(-404.26 -301.901)" fill="#3276b8"/>
          <path id="Path_1991" data-name="Path 1991" d="M401.681,399.519,405.65,440.8l-20.524,4.1-8.016-40.119Z" transform="translate(-362.414 -316.231)" fill="#3276b8"/>
          <path id="Path_1992" data-name="Path 1992" d="M483.962,476.492l2.284,19.34-86.717,15.9L396.75,493.9Z" transform="translate(-372.66 -356.384)" fill="#3276b8"/>
          <path id="Path_1993" data-name="Path 1993" d="M372.319,352.622l61.579-7.23-2.447-15.463-61.091,13.1Z" transform="translate(-358.893 -279.929)" fill="#3276b8"/>
          <path id="Path_1994" data-name="Path 1994" d="M420.434,547.833,492.285,533.6l-.6-3.877-71.851,14.238Z" transform="translate(-384.699 -384.15)" fill="#3276b8"/>
          <path id="Path_1995" data-name="Path 1995" d="M411.286,576.6l67.027-13.187-.6-3.877-67.659,13.311Z" transform="translate(-379.597 -399.706)" fill="#3276b8"/>
        </g>
      </g>
    </g>
    <g id="Group_116" data-name="Group 116" transform="translate(256.63 193.886)">
      <g id="Group_113" data-name="Group 113" transform="translate(0)">
        <path id="Path_1996" data-name="Path 1996" d="M492.075,248.281c-2.676,3.591-8.271,14.625-9.535,20.168,1.646,11.937,11.7,13.4,1.542,31.649-3.185,5.725-16.67,14.406-14.131,31.419,3.088,6.588,8.918,13.858,14.406,15.779.571.2-.855-4.484-.581-5.855a42.027,42.027,0,0,0,3.978,8.506c6.277,9.364,20.522,14.637,26.892,14.544,10.524-.155,18.87-6.077,22.4-14.314.609-1.423,3.155-6.311,3.945-9.011a72.193,72.193,0,0,1-1.442,9.147c4.139-5.1,10.36-16.419,10.36-16.419s9.808-11.419,4.939-26.343c-8.309-10.7-15.127-18.48-19.071-25.382-6.952-12.165-8.468-29.946-8.463-30.182.211-1.215,4.861-7.1,2.289-13.174-6.982-3.2-16.944-2.881-22.5-2.058C507.1,236.757,497.273,241.3,492.075,248.281Z" transform="translate(-443.505 -236.091)" fill="url(#linear-gradient-2)"/>
        <g id="Group_100" data-name="Group 100" transform="translate(35.642 34.807)">
          <path id="Path_1997" data-name="Path 1997" d="M489.691,374.844c-1.318-10.707,5.284-21.936,11.109-31.844,1.91-3.247,3.713-6.315,5.169-9.228,3.786-7.571,4.236-19.1,3.616-24.995l.409-.043c.626,5.947.168,17.571-3.656,25.221-1.463,2.926-3.27,6-5.183,9.253-5.792,9.851-12.356,21.016-11.055,31.584Z" transform="translate(-489.521 -308.735)" fill="#543b38"/>
        </g>
        <g id="Group_101" data-name="Group 101" transform="translate(73.835 40.503)">
          <path id="Path_1998" data-name="Path 1998" d="M579.677,388.107l-.154-.381c7.611-3.086,12.59-9.232,14.8-18.268,2.433-9.952-4.032-17.98-9.735-25.063-1.475-1.832-2.868-3.562-4.023-5.23-7.906-11.419-11.167-18.278-11.2-18.346l.372-.175c.032.067,3.281,6.9,11.165,18.287,1.146,1.656,2.535,3.38,4,5.205,5.764,7.157,12.3,15.269,9.814,25.42C592.48,378.727,587.418,384.968,579.677,388.107Z" transform="translate(-569.365 -320.644)" fill="#543b38"/>
        </g>
        <path id="Path_1999" data-name="Path 1999" d="M448.629,424.238,462.9,408.871l12.76-16.464,5.123-7.093-1.027-12.485s-7.011.823-10.456,3.808c-2.284,2.737-3.35,4.676-5.714,7.813a109.442,109.442,0,0,0-14.68,15.367c-5.214,7.957-10.977,15.641-14.818,25.108.646,1.511,7.011,9.742,8.232,10.564,3.391-.977,8.155-2.763,11.525-4.116Z" transform="translate(-424.962 -307.363)" fill="#2e57ab"/>
        <path id="Path_2000" data-name="Path 2000" d="M479.272,507.609c-3.5-1.235-7.546-2.539-7.546-2.539l-3.053-3.636-5.145-6.791-2.984-4.734c-3.141.11-8.026,3.293-11.113,6.38,3.087,2.47,6.757,5.488,9.775,7.821,5.694,4.116,7.255,4.706,10.095,7.176.949.685.939,1.27,1.74,2.607a26.7,26.7,0,0,1,3.909,2.565c.176.044-.068,1.715-.068,2.332,1.372.549,3.978,1.372,3.978,1.372s2.158-4.949,5.139-10.986C483.6,508.662,480.5,508.158,479.272,507.609Z" transform="translate(-432.966 -368.439)" fill="#f6777b"/>
        <path id="Path_2001" data-name="Path 2001" d="M510.609,377.028l-5.678,7.848s.823,3.978,1.646,7.134c2.041,3.173,5.768,11.09,6.723,12.9.772,4.091,1.51,7.306,2.539,13.583.1,3.6-.634,7.861-1.749,13.48-1.459,5.214-4.449,10.6-6.414,17.39.015,4.289,2.347,10.955.789,15.409-1.656,4.73,51.353-2.4,51.353-2.4l-.727-16.551-7.922-17.037L549.522,417.8l2.744-18.454s1.715-.891,4.528-4.528c1.029-5.077-.549-10.976-.549-10.976l-3.033-16.492-5.463-4.253c-1.633-.823-11.067-2.881-17.878-5.762-5.186,2.47-21.083,9.6-21.083,9.6Z" transform="translate(-461.918 -299.283)" fill="#3276b8"/>
        <path id="Path_2002" data-name="Path 2002" d="M471.252,636.776c4.665-8.781,11.388-21.664,16.739-31.831,8.232-15.641,7.663-14.478,19.208-40.337l-10.191-9.152-18.589-9.279c-8.319,23.513-14.68,47.129-14.68,47.129s-1.542,15.206-5.658,37.021c0,0-5.762,11.937-8.506,19.072,4.665,7.682,11.877,12.993,17.562,12.621A249.071,249.071,0,0,0,471.252,636.776Z" transform="translate(-433.041 -397.791)" fill="#3276b8"/>
        <path id="Path_2003" data-name="Path 2003" d="M426.811,779.29c-.823,4.8-.636,11.777-.852,13.762-1.206,11.072-1.618,18.205-5.322,26.164l-5.626,12.073h18.247l.275-9.6v-9.124l4.444-13.946,6.67-14.455c3.018-6.518,5.077-10.666,5.077-14.612-4.939-2.95-11.868-6.38-17.837-9.879C431.332,761.863,427.764,773.73,426.811,779.29Z" transform="translate(-415.011 -509.16)" fill="#f6777b"/>
        <path id="Path_2004" data-name="Path 2004" d="M580.021,663.545c1.642-1.8,13.583-13.583,14.269-17.287-1.226-5.254-3.265-10.565-5.762-21.267,0,0,2.81-22.727,4.149-32.013-.48-25.245-5.508-53.217-5.508-53.217l-14.2,11.078-13.249,9.255,14.955,65.993.737,28.279S579.563,664.031,580.021,663.545Z" transform="translate(-490.496 -394.444)" fill="#3276b8"/>
        <path id="Path_2005" data-name="Path 2005" d="M613.1,774.448c.211,1.478-.058,17.762,0,19.757.412,13.995,1.646,16.052,1.646,16.052l5.351,10.7,5.077,7.134.549,3.129L601.63,831.2a41.952,41.952,0,0,0,.769-5.3c.249-3.018,1.146-10.517.823-14.27-.923-10.729-10.153-35.671-10.153-35.671a50.138,50.138,0,0,0-.549-7.684c5.489-3.293,13.034-7,18.934-10.154C612.009,760.315,612.867,772.813,613.1,774.448Z" transform="translate(-507.609 -508.352)" fill="#f6777b"/>
        <path id="Path_2006" data-name="Path 2006" d="M605.615,401.89c-4.684-1.913-17.933-7.913-23.176-10.672-7.762-2.456-9.781-3.586-9.781-3.586l-6.384-8.806,20.027-1.433L608.8,387l16.175,7.9c2.229-2.166,4.633-5.263,6.653-6.849,2.7,1.272,5.594,6.856,7.674,9.286l-5.86,9.954C616.539,406.008,613.882,404.13,605.615,401.89Z" transform="translate(-493.918 -309.743)" fill="#2e57ab"/>
        <path id="Path_2007" data-name="Path 2007" d="M710.958,350.936a11.819,11.819,0,0,1-1.571,4.3l-2.8,3.942-3.194,4.452-6.969,6.75c.636,2.543,5.612,4.334,9.994,7.335,4.8-7.059,8.6-18.842,9.994-21.833.938-.634,1.453-.822,2.776-1.6a44.773,44.773,0,0,1,2.725-4.209s3.416-2.607,3.734-2.952a17.375,17.375,0,0,0-1.449-2.92c-.5-4.608-3.441-9.8-9.784-3.767-.509.405-2.06,4.516-2.318,5.555C711.7,347.6,711.144,350.012,710.958,350.936Z" transform="translate(-561.812 -289.039)" fill="#f6777b"/>
        <path id="Path_2008" data-name="Path 2008" d="M530.464,362.06l17.01,12.1L559.411,361.2l-13.789-6.38Z" transform="translate(-475.238 -297.966)" fill="#f6777b"/>
        <path id="Path_2009" data-name="Path 2009" d="M544.051,324.675l-1.771,17.491L538.2,344.42s8.792,3.169,13.1,4.647a29.728,29.728,0,0,0,8.028-5.492l-4.52-2.218-5.7-15.343Z" transform="translate(-479.271 -282.243)" fill="#d7ac74"/>
        <g id="Group_102" data-name="Group 102" transform="translate(78.44 39.457)">
          <path id="Path_2010" data-name="Path 2010" d="M602.176,339.549c-12.294-2.663-23.076-20.7-23.184-20.883l.354-.209c.107.18,10.8,18.064,22.916,20.689Z" transform="translate(-578.992 -318.457)" fill="#543b38"/>
        </g>
        <path id="Path_2011" data-name="Path 2011" d="M548.548,324.44c-.028,1.69-.5,11.393-.5,11.393l6.817,1.123,2.411-2.939-1.971-7.464Z" transform="translate(-484.411 -282.121)" fill="#c28757"/>
        <path id="Path_2012" data-name="Path 2012" d="M523.861,273.522l28.827-7.082,1.426,11.335a27.929,27.929,0,0,1,2.023,5.855,31.485,31.485,0,0,1-4.528,12.622s-3.674,5.748-5.258,6.8c-4.838-1.075-13.726-4.868-16.11-7.513C524.319,288.972,523.861,273.522,523.861,273.522Z" transform="translate(-471.793 -251.865)" fill="#ebbf85"/>
        <path id="Path_2013" data-name="Path 2013" d="M533.635,286.826l3.978-3.1s5.1-3.728,6.936-2.746c1.972,1.056,2.042,4.225,2.042,4.225s-3.661,2.887-6.2,3.239C538.826,288.664,533.635,286.826,533.635,286.826Z" transform="translate(-476.892 -259.364)" fill="#d9a164"/>
        <path id="Path_2014" data-name="Path 2014" d="M567.012,280.456c.81-.81,4.451-.617,5.153-.646a26.463,26.463,0,0,1,3.636.755,12.072,12.072,0,0,1-.251,4.961c-.845.916-2.676,2.218-4.084,2.042a7.984,7.984,0,0,1-4.085-2.323A35.606,35.606,0,0,1,567.012,280.456Z" transform="translate(-494.303 -258.839)" fill="#d9a164"/>
        <path id="Path_2015" data-name="Path 2015" d="M572.909,274.567l1.715-1.783a18.5,18.5,0,0,1,3.636,1.646l.343,1.029-3.087-.618Z" transform="translate(-497.379 -255.174)" fill="#4b2d32"/>
        <path id="Path_2016" data-name="Path 2016" d="M523.832,284.567a153.418,153.418,0,0,1,18.948-3.159c7.409-1.646,11.113.412,11.113.412l.443,2.6.723,2.61s-.206,2.333-3.122,2.3c-1.179-.014-3.714-1.36-5.556-1.956a4.533,4.533,0,0,0-4.219.1c-5.607,3.247-5.825,2.288-9.221,2.494-2.359.143-6.627-1.979-6.627-1.979l-2.161-.1Z" transform="translate(-471.778 -259.34)" fill="#2e57ab"/>
        <path id="Path_2017" data-name="Path 2017" d="M473.593,717.792l2.784,1.963,4.625-.317-3.293,4.391h-5.762Z" transform="translate(-444.712 -487.315)" fill="#212430" opacity="0.35" style="mix-blend-mode: overlay;isolation: isolate"/>
        <path id="Path_2018" data-name="Path 2018" d="M604.973,717.5l4.322-.617,1.235-1.441.411,4.733-2.264,1.646Z" transform="translate(-514.106 -486.089)" fill="#212430" opacity="0.35" style="mix-blend-mode: overlay;isolation: isolate"/>
        <path id="Path_2019" data-name="Path 2019" d="M514.827,387.944s4.531,25.04,3.91,25.245,21.4,13.445,21.4,13.445l17.562-16.19.342-22.5-17.9,7.615Z" transform="translate(-467.08 -315.248)" fill="#f6777b"/>
        <path id="Path_2020" data-name="Path 2020" d="M456.969,475.376a14.084,14.084,0,0,0-2.949,2.058c.412,0,5.9,2.058,5.9,2.058l-1.3-2.469,2.333-2.744Z" transform="translate(-435.36 -360.285)" fill="#26428f"/>
        <path id="Path_2021" data-name="Path 2021" d="M689.039,412.091c.9,2.259-.874,3.214-1.734,5.061-1.234-2.179-5.986-6.591-5.986-6.591l3.725,1.652,2.212-1.652Z" transform="translate(-553.932 -327.046)" fill="#26428f"/>
        <path id="Path_2022" data-name="Path 2022" d="M525.3,426.793c-2.475.521-8.506-.961-8.506-.961a45.238,45.238,0,0,1-5.625-4.528,14.668,14.668,0,0,1-1.784-7.546l-1.441,7.82,5.351,9.673s3.943.779,10.734,2.631c3.7-1.441,10.6-11.754,10.6-11.754A54.789,54.789,0,0,1,525.3,426.793Z" transform="translate(-463.489 -328.714)" fill="#262935" opacity="0.39" style="mix-blend-mode: overlay;isolation: isolate"/>
        <path id="Path_2023" data-name="Path 2023" d="M598.414,414.021l-1.99-6.071a44.929,44.929,0,0,1,0,9.57c-2.058,3.635-8.026,5.351-8.026,5.351l-4.733,1.235,7.442,5.306s6.129-6.469,6.964-8.393C598.277,418.961,598.414,414.021,598.414,414.021Z" transform="translate(-502.99 -325.684)" fill="#262935" opacity="0.39" style="mix-blend-mode: overlay;isolation: isolate"/>
        <path id="Path_2024" data-name="Path 2024" d="M567.214,294.807l1.261,1.985,1.99,2.058-3.431,1.921-2.572,1.063-.139-4.258.669-2.324Z" transform="translate(-492.9 -266.663)" fill="url(#linear-gradient-3)"/>
        <path id="Path_2025" data-name="Path 2025" d="M549.833,312.8l-1.479-2.675,3.591-.845-1.63,1.525Z" transform="translate(-484.57 -274.212)" fill="#d9a164"/>
        <path id="Path_2026" data-name="Path 2026" d="M576.638,310.183l2.538-.686-1.1,2.264-.412-1.167Z" transform="translate(-499.324 -274.326)" fill="#d9a164"/>
        <path id="Path_2027" data-name="Path 2027" d="M551.74,312.174a49.94,49.94,0,0,0,7.932.752,38.833,38.833,0,0,0,5.349-1.277,12.311,12.311,0,0,1-1.441,3.018,4.339,4.339,0,0,1-3.128,3.458C557.323,318.69,552.486,314.147,551.74,312.174Z" transform="translate(-486.336 -275.448)" fill="#fff"/>
        <path id="Path_2028" data-name="Path 2028" d="M561.749,317.15s3.066.122,3.733.07c1.69-.133,2.605-.141,2.605-.141a6.291,6.291,0,0,1-2.605.634A18.979,18.979,0,0,1,561.749,317.15Z" transform="translate(-491.557 -278.281)" fill="#d4ccd4"/>
        <path id="Path_2029" data-name="Path 2029" d="M564.778,569.374s2.095-2.581,4.116-5.213c11.8-15.368,20.476-19.871,20.476-19.871l-1.235-8.438-25.553,23.1Z" transform="translate(-491.993 -392.405)" fill="#212430" opacity="0.24" style="mix-blend-mode: overlay;isolation: isolate"/>
        <g id="Group_106" data-name="Group 106" transform="translate(59.191 22.975)">
          <g id="Group_105" data-name="Group 105">
            <path id="Path_2030" data-name="Path 2030" d="M548.2,287.544a12.029,12.029,0,0,1-4.195,2.092c-1.637.462-4.119-.615-4.716-1.017.465-1.069,1.251-1.6,2.667-2.521S546.024,284.891,548.2,287.544Z" transform="translate(-539.034 -284.753)" fill="#fff"/>
            <path id="Path_2031" data-name="Path 2031" d="M544.32,289.35a2.836,2.836,0,0,0,2.923-.789c.325-.327.937-2.982-.877-3.666-1.429.192-3.465.188-3.83,1.965A3.042,3.042,0,0,0,544.32,289.35Z" transform="translate(-540.709 -284.467)" fill="url(#linear-gradient-4)"/>
            <g id="Group_104" data-name="Group 104">
              <g id="Group_103" data-name="Group 103">
                <path id="Path_2032" data-name="Path 2032" d="M538.752,287.8a9.819,9.819,0,0,1,1.831-2.458,7.119,7.119,0,0,1,1.027-.7c.118-.063.17-.093.29-.153s.212-.1.317-.143a5.177,5.177,0,0,1,.649-.215,4.1,4.1,0,0,1,2.686.211,7.215,7.215,0,0,1,2.321,2.211,13.12,13.12,0,0,0-2.689-1.179,3.728,3.728,0,0,0-1.949.012,4.828,4.828,0,0,0-.477.2l-.227.115c-.06.028-.181.1-.238.132-.32.193-.658.394-1.01.575C540.578,286.767,539.53,287.414,538.752,287.8Z" transform="translate(-538.752 -284)" fill="#221f1f"/>
              </g>
            </g>
          </g>
          <path id="Path_2033" data-name="Path 2033" d="M548.171,286.935a1.118,1.118,0,1,1-1.118-1.119A1.118,1.118,0,0,1,548.171,286.935Z" transform="translate(-542.499 -284.947)" fill="#221f1f"/>
          <path id="Path_2034" data-name="Path 2034" d="M552.692,289.452a.582.582,0,1,1-.581-.582A.582.582,0,0,1,552.692,289.452Z" transform="translate(-545.417 -286.54)" fill="#fff"/>
        </g>
        <g id="Group_110" data-name="Group 110" transform="translate(74.239 22.59)">
          <g id="Group_109" data-name="Group 109">
            <path id="Path_2035" data-name="Path 2035" d="M570.366,286.744c.952.617,3.476,1.688,4.857,1.474a9.725,9.725,0,0,0,2.431-.794,3.292,3.292,0,0,0-2.6-3.37A4.793,4.793,0,0,0,570.366,286.744Z" transform="translate(-570.291 -283.623)" fill="#fff"/>
            <path id="Path_2036" data-name="Path 2036" d="M577.24,288.832a4.164,4.164,0,0,1-2.532-.327c-.6-.431-1.324-2.422-.159-3.166,1.4-.024,3.226-.055,3.733.88C578.42,285.974,578.6,288.4,577.24,288.832Z" transform="translate(-572.149 -284.309)" fill="url(#linear-gradient-5)"/>
            <g id="Group_108" data-name="Group 108">
              <g id="Group_107" data-name="Group 107">
                <path id="Path_2037" data-name="Path 2037" d="M577.474,286.671a5.789,5.789,0,0,0-1.532-1.758,4.348,4.348,0,0,0-2.851-.245,18.618,18.618,0,0,0-2.881,1.652,7.312,7.312,0,0,1,2.433-2.558c1.1-.623,2.632-.8,3.426-.186a2.746,2.746,0,0,1,.808.849A4.092,4.092,0,0,1,577.474,286.671Z" transform="translate(-570.21 -283.195)" fill="#221f1f"/>
              </g>
            </g>
          </g>
          <path id="Path_2038" data-name="Path 2038" d="M578.361,286.252a1.15,1.15,0,1,1-1.149-1.1A1.127,1.127,0,0,1,578.361,286.252Z" transform="translate(-573.263 -284.214)" fill="#221f1f"/>
          <path id="Path_2039" data-name="Path 2039" d="M582.278,289.234a.6.6,0,1,1-.6-.574A.587.587,0,0,1,582.278,289.234Z" transform="translate(-575.881 -286.046)" fill="#fff"/>
        </g>
        <path id="Path_2040" data-name="Path 2040" d="M506.721,550.754A58.32,58.32,0,0,1,520.3,559.81c5.094,4.5,12.348,14.2,12.348,14.2l2.058-3.5s-13.066-18.477-14.164-18.477-11.8-5.763-11.8-5.763Z" transform="translate(-462.852 -397.84)" fill="#212430" opacity="0.23" style="mix-blend-mode: overlay;isolation: isolate"/>
        <path id="Path_2041" data-name="Path 2041" d="M508.012,541.784a46.652,46.652,0,0,1,13.345,9c2.159,2.195,12.758,15.326,12.758,15.326h2.47s8.332-11.036,11.1-14.227c2.378-2.745,13.6-12.253,13.6-12.253l-2.336-5.035s-14.591,7-25.087,7c-5.541,0-18.436-3.2-23.341-5.255Z" transform="translate(-463.525 -391.751)" fill="#f6777b"/>
        <path id="Path_2042" data-name="Path 2042" d="M521.363,301.9c-.7.422-3.954,7.4-4.658,11.207a9.906,9.906,0,0,1,4.366-3.239l2.144-.764Z" transform="translate(-468.06 -270.361)" fill="#212124"/>
        <path id="Path_2043" data-name="Path 2043" d="M520.42,281.389a29.184,29.184,0,0,1,5.076-8.438c11.25-8.644,25.634-2.065,26.946-18.467.358-4.472-31.315,7.894-31.315,7.894Z" transform="translate(-469.998 -245.12)" fill="#1b1a20"/>
        <g id="Group_111" data-name="Group 111" transform="translate(42.727 2.509)">
          <path id="Path_2044" data-name="Path 2044" d="M504.7,279.391l-.366-.188c.075-.145,7.588-14.591,18.86-19.7q1.594-.649,3.129-1.259c11.078-4.429,19.828-7.927,19.458-17.012l.411-.017c.383,9.376-8.487,12.922-19.716,17.411q-1.534.613-3.119,1.254C512.22,264.929,504.773,279.247,504.7,279.391Z" transform="translate(-504.333 -241.215)" fill="#434848"/>
        </g>
        <g id="Group_112" data-name="Group 112" transform="translate(40.773)">
          <path id="Path_2045" data-name="Path 2045" d="M500.818,273.181l-.57-.237c.053-.128,5.414-12.814,15.443-19.687,9.119-6.25,13.375-10.229,14.481-17.286l.61.1c-1.136,7.238-5.658,11.474-14.743,17.7C506.16,260.537,500.87,273.055,500.818,273.181Z" transform="translate(-500.248 -235.97)" fill="#434848"/>
        </g>
        <path id="Path_2046" data-name="Path 2046" d="M490.088,395.839s4.116.72,5.145.411c-.309-1.132-.823-2.573-.823-2.573l1.235-4.013-3.19,4.219Z" transform="translate(-454.175 -316.146)" fill="#26428f"/>
        <path id="Path_2047" data-name="Path 2047" d="M526.441,472.52l19.208,7.135s14.578-7.34,15.916-7.958a44.541,44.541,0,0,0-.549,4.939l-.549,7.958-13.72,8.781s-18.966-9.092-19.208-9.878c-.411-1.338-.216-5.695-.549-7.135A15.615,15.615,0,0,1,526.441,472.52Z" transform="translate(-473.137 -358.938)" fill="#fff" opacity="0.16" style="mix-blend-mode: overlay;isolation: isolate"/>
        <path id="Path_2048" data-name="Path 2048" d="M519,256.107l7.82-1.544s4.013-1.132,3.6,1.955c-.218,1.632,6.037.248,8.747-.823,4.425-1.749,2.263.926,2.263,2.675s4.2,1.646,5.865,1.646c2.058,0,1.727.432,1.51,1.235-1.921,4.459-9.844,6.792-14.475,7,.72-1.132-3.087-2.881-5.762-2.778-1.087.042-3.087.618-4.322.515s-1.338-1.646-1.029-3.4-2.264-1.853-3.6-.926-2.778-2.264-2.778-2.264Z" transform="translate(-468.127 -245.564)" fill="#ced3d7" style="mix-blend-mode: overlay;isolation: isolate"/>
        <path id="Path_2049" data-name="Path 2049" d="M613.185,884.231l-1.235,12.554,8.232-.206s-1.81.331-4.322-3.91C614.352,890.124,613.185,884.231,613.185,884.231Z" transform="translate(-517.745 -574.138)" fill="#6e2430" opacity="0.23"/>
        <path id="Path_2050" data-name="Path 2050" d="M725.763,363.519l1.547,5.525.815-4.571,1.151-2.194,3.121-8.223s.617-10.662,0-10.641-3.1,2.773-3.1,2.773Z" transform="translate(-577.116 -292.02)" fill="#6e2430" opacity="0.23"/>
        <path id="Path_2051" data-name="Path 2051" d="M500.052,541.015l5.454,1.646-1.338,2.984-2.572-.515-.1-2.367Z" transform="translate(-459.373 -395.098)" fill="#6e2430" opacity="0.23"/>
      </g>
      <g id="Group_115" data-name="Group 115" transform="translate(129.488 1.501)">
        <path id="Path_2052" data-name="Path 2052" d="M777.575,265.964s-5.487-1.1-8.162-1.7a16.727,16.727,0,0,1-4.092-.929c-.8-.186-1.274-.3-1.274-.3l-1.415,7.129-2.011,10.125-2.051,10.327c1.028.156,2.019.434,3.036.647,2.691.365,9.861,1.58,9.861,1.58l2.448-8.043a22.537,22.537,0,0,1-4.621-1.706c.052-.324.374-1.758.776-3.451.131-.55,1.716.047,1.857-.529.1-.425.316-1.619.419-2.03.219-.867-1.084-.522-1.258-1.258-.206-.869.733-3.063.817-3.178a20.593,20.593,0,0,1,4.074.421Z" transform="translate(-723.717 -251.593)" fill="#a7b1ba"/>
        <path id="Path_2053" data-name="Path 2053" d="M764.989,291.748c1.8-9.258,2.956-19.065,4.893-27.413a45.087,45.087,0,0,1-4.782-1.166c-2.15,8.944-3.962,18.341-5.632,27.6C760.6,290.973,763.841,291.561,764.989,291.748Z" transform="translate(-724.186 -251.66)" fill="#a7b1ba" opacity="0.39" style="mix-blend-mode: overlay;isolation: isolate"/>
        <path id="Path_2054" data-name="Path 2054" d="M733.212,327.042c-.133,1.287-9.54.544-9.3-.748,4.9-26.487,18.8-86.242,18.8-86.242l2.77-.944,6.321,2.75S735.247,307.39,733.212,327.042Z" transform="translate(-705.635 -239.108)" fill="#a7b1ba"/>
        <path id="Path_2055" data-name="Path 2055" d="M737.959,336.236c-.179,1.128-4.549.151-4.328-.991,1.52-7.881,5.175-24.384,4.433-27.048-.857-3.082-4.659-4.611-4.659-4.611.174-.835,1.793-7.624,1.97-8.463.163-.77,4.565,4.36,4.73,3.587,3.455-16.153,12.529-44.591,12.529-44.591l3.09-.608s-6.674,27.194-11.845,51.146C741.026,317.878,738.929,330.111,737.959,336.236Z" transform="translate(-710.591 -246.621)" fill="#a7b1ba" opacity="0.39" style="mix-blend-mode: overlay;isolation: isolate"/>
        <g id="Group_114" data-name="Group 114" transform="translate(0 86.08)">
          <path id="Path_2056" data-name="Path 2056" d="M701.983,458.391c-10.751-2.135-17.453-9.954-16.1-20.831,1.5-12.05,13.093-20.3,23.844-18.163s17.54,12.675,15.99,23.526C724.127,454.046,712.734,460.526,701.983,458.391ZM707.262,430c-5.489-.695-9.949,2.927-11.48,8.9-.813,3.172,2.053,10.763,7.479,11.841s11.332-.795,13.12-8.077C717.7,437.285,713.625,430.8,707.262,430Z" transform="translate(-685.71 -419.061)" fill="#a7b1ba"/>
        </g>
      </g>
      <path id="Path_2057" data-name="Path 2057" d="M741.7,329.4c-2.951-.653-2.028,5.857-1.514,7.3a14.642,14.642,0,0,0,2.174,3.669A18.084,18.084,0,0,0,744.5,342.8a27.047,27.047,0,0,0,3.69-.026,61.326,61.326,0,0,1,.2-11.109,2.678,2.678,0,0,0-1.767-1.024C745.025,330.208,742.62,329.608,741.7,329.4Z" transform="translate(-584.352 -284.686)" fill="#e83464"/>
      <path id="Path_2058" data-name="Path 2058" d="M727.757,347.42l.878-9.142,5.491-2.895.886,2.219-4.075,3.245-2.3,6.573Z" transform="translate(-578.156 -287.829)" fill="#e83464"/>
    </g>
    <g id="Group_119" data-name="Group 119" transform="translate(182.101 229.981)">
      <path id="Path_2059" data-name="Path 2059" d="M357.079,365.063s4.138-23.359,3.911-31.135c-.179-6.129-.256-13.1-8.336-18.27-5.578-3.571-17.068-5.3-23.466-3.53-5.03,1.393-12.6,6.844-15.242,11.292-3.888,6.54-8.407,30.246-8.407,30.246l7.888,1.671s3.556-21.355,7.2-27.365c1.634-2.7,6.977-6.935,10.065-7.7,4.653-1.149,14.574.043,18.15,3.209,2.122,1.878,3.226,8.014,3.125,10.824-.274,7.544-4.295,30.126-4.295,30.126Z" transform="translate(-283.375 -311.427)" fill="#cdd8e0"/>
      <path id="Path_2060" data-name="Path 2060" d="M307.134,383.321c-1.169,5.169-1.6,7.575-1.6,7.575l7.888,1.671s.626-3.932,1.9-9.775Z" transform="translate(-283.375 -348.654)" fill="#a7b1ba"/>
      <path id="Path_2061" data-name="Path 2061" d="M395.5,398.126c-1.085,6.945-1.884,11.316-1.884,11.316l9.41.629s.928-5.11,1.98-12.364Z" transform="translate(-329.319 -356.435)" fill="#a7b1ba"/>
      <path id="Path_2062" data-name="Path 2062" d="M348.364,411.4l-10.317-5.369-76.577,45.1,3.332,13.715,40.01,14.2,18.544,3.389,12.047-5.784,15.228-55.769Z" transform="translate(-260.386 -360.777)" fill="#80878c"/>
      <path id="Path_2063" data-name="Path 2063" d="M336.865,394.21l-63.129-10.839-6.842,7.062-7.69,51.143,2.967,12.215,41.458,13.439,13.179-1.462,8.262-5.239L338.887,405.7Z" transform="translate(-259.204 -348.957)" fill="#a7b1ba"/>
      <g id="Group_118" data-name="Group 118" transform="translate(29.161 59.081)">
        <g id="Group_117" data-name="Group 117">
          <path id="Path_2064" data-name="Path 2064" d="M339.791,448.142l.434-7.87-4.737-5.333-8.349,1.505-3,6.511,2.185,5.526-6.163,18.83,12.423,2.389,2.9-18.946Z" transform="translate(-320.166 -434.938)" fill="url(#linear-gradient-6)"/>
        </g>
      </g>
      <path id="Path_2065" data-name="Path 2065" d="M333.7,487.729l-6.351,21.3-11.623,6.117s-40.082-10.49-40.361-10.573,37.931,4.186,37.931,4.186l10.161-5.606Z" transform="translate(-267.631 -403.396)" fill="#fff" opacity="0.24"/>
    </g>
    <rect id="Rectangle_10" data-name="Rectangle 10" width="328.578" height="2.164" transform="translate(111.399 516.582)" fill="#d9dee2"/>
    <g id="Group_120" data-name="Group 120" transform="translate(157.592 358.679)">
      <path id="Path_2066" data-name="Path 2066" d="M219.815,649.38l-.474-1.355,1.355-.474.474,1.355Zm-1.422-4.064-.474-1.355,1.355-.474.474,1.355Zm-1.422-4.064L216.5,639.9l1.355-.474.474,1.355Zm-1.422-4.064-.474-1.355,1.355-.474.474,1.355Zm-1.422-4.064-.474-1.355,1.355-.474.474,1.355Zm-1.421-4.063-.474-1.355,1.355-.474.474,1.355ZM211.285,625l-.474-1.355,1.355-.474.474,1.355Zm-1.421-4.064-.474-1.354,1.355-.474.474,1.354Zm-1.422-4.064-.474-1.354,1.355-.474.474,1.354Zm.7-3.592-1.026-1,1-1.026,1.026,1Zm3.011-3.078-1.026-1,1-1.026,1.026,1Zm3.01-3.077-1.026-1,1-1.026,1.026,1Zm3.011-3.078-1.026-1,1-1.026,1.026,1Zm3.011-3.078-1.026-1,1-1.026,1.026,1Zm3.011-3.077-1.026-1,1-1.026,1.026,1Zm3.011-3.078-1.026-1,1-1.026,1.026,1Zm3.011-3.077-1.026-1,1-1.026,1.026,1Zm3.011-3.077-1.026-1,1-1.026,1.026,1Zm3.011-3.078-1.026-1,1-1.026,1.026,1Zm3.011-3.077-1.026-1,1-1.026,1.026,1Z" transform="translate(-207.968 -580.476)" fill="#b4c5cd"/>
    </g>
    <g id="Group_121" data-name="Group 121" transform="translate(251.479 415.085)">
      <path id="Path_2067" data-name="Path 2067" d="M410.746,706.134l-2.139-4.929-3.226,4.214-1.139-.873,4.71-6.151,2.359,5.436,2.949-2.389,1.889,1.757-.977,1.051-.977-.909Z" transform="translate(-404.242 -698.395)" fill="#b4c5cd"/>
    </g>
    <g id="Group_122" data-name="Group 122" transform="translate(119.14 170.21)">
      <path id="Path_2068" data-name="Path 2068" d="M182.267,317.038,181.273,316l1.035-.994.994,1.035Zm-2.983-3.1-.994-1.035,1.035-.995.994,1.036Zm-2.983-3.1-.994-1.035,1.035-.994.994,1.035Zm-2.983-3.1-.994-1.035,1.035-.994.994,1.035Zm-2.982-3.1-.994-1.035,1.035-.994.994,1.035Zm-2.983-3.1-.994-1.035,1.035-.994.994,1.035Zm-2.983-3.1-.994-1.035,1.035-.994.994,1.035Zm-2.982-3.1-.994-1.035,1.035-.994.994,1.035Zm-2.983-3.1-.994-1.035,1.035-.994.994,1.035Zm-2.983-3.1-.994-1.035,1.035-.995.994,1.036Zm-2.982-3.1-.994-1.035,1.035-.994.994,1.035Zm-2.983-3.1-.994-1.035,1.035-.994.994,1.035Zm-2.983-3.1-.994-1.035,1.035-.994.994,1.035Zm-2.983-3.1-.994-1.035,1.035-.994.994,1.035Zm-2.983-3.1-.994-1.035,1.035-.994.994,1.035Zm-2.983-3.1-.994-1.035,1.035-.994.994,1.035Zm-2.982-3.1-.994-1.035,1.035-.994.994,1.035Zm-2.983-3.1-.994-1.035,1.034-.995.994,1.035Zm-2.983-3.1-.994-1.035,1.035-.994.994,1.035Zm.39-3.241-1.112-.907.907-1.113,1.112.907Zm2.721-3.336-1.112-.907.907-1.112,1.112.907Zm2.721-3.336-1.112-.907.907-1.112,1.112.907Zm2.721-3.336L136.017,247l.907-1.112,1.113.907Zm2.721-3.336-1.113-.907.907-1.112,1.113.907Zm2.721-3.336-1.113-.907.907-1.113,1.113.907Zm2.721-3.336L144.18,237l.907-1.112,1.112.907Zm2.721-3.336-1.112-.907.907-1.112,1.112.907Zm2.721-3.336-1.112-.907.907-1.113,1.112.907Zm2.721-3.336-1.112-.907.907-1.112,1.113.907Zm2.721-3.336-1.113-.907.907-1.112,1.113.907Zm2.721-3.336-1.113-.907.907-1.112,1.113.907Zm2.721-3.336-1.112-.907.907-1.112,1.112.907Zm2.721-3.336-1.112-.907.907-1.113,1.112.907Zm2.721-3.336-1.112-.907.907-1.112,1.112.907Zm2.721-3.336-1.112-.907.907-1.112,1.112.907Zm2.721-3.336-1.112-.907.907-1.112,1.112.907Zm2.721-3.336-1.112-.907.907-1.112,1.112.907Zm2.721-3.336-1.112-.907.907-1.113,1.112.907Zm2.721-3.336-1.112-.907.907-1.112,1.112.907Zm2.721-3.336-1.112-.907.907-1.112,1.112.907Zm2.721-3.336-1.112-.907.388-.476,1.112.907Z" transform="translate(-127.582 -186.475)" fill="#b4c5cd"/>
    </g>
    <g id="Group_123" data-name="Group 123" transform="translate(167.914 204.944)">
      <path id="Path_2069" data-name="Path 2069" d="M233.178,265.645l-3.632-3.3.966-1.061,2.355,2.142,2.683-4.334,1.22.756Z" transform="translate(-229.546 -259.088)" fill="#b4c5cd"/>
    </g>
    <g id="Group_124" data-name="Group 124" transform="translate(115.85 284.582)">
      <path id="Path_2070" data-name="Path 2070" d="M120.7,435.76l3.89-10.187,7.3,7.01Zm4.458-7.652-2.1,5.49,6.031-1.712Z" transform="translate(-120.704 -425.573)" fill="#b4c5cd"/>
    </g>
    <g id="Group_125" data-name="Group 125" transform="translate(376.4 155.296)">
      <path id="Path_2071" data-name="Path 2071" d="M669.341,165.983,665.393,155.3l13.1.694Zm-1.846-9.139,2.377,6.435,5.509-6.017Z" transform="translate(-665.393 -155.296)" fill="#b4c5cd"/>
    </g>
  </g>
</svg>
