<svg xmlns="http://www.w3.org/2000/svg" width="273.697" height="436.65" viewBox="0 0 273.697 436.65">
  <g id="Group_155" data-name="Group 155" transform="translate(-286 -196)">
    <g id="Group_135" data-name="Group 135" transform="translate(165.296 18.525)">
      <g id="Group_132" data-name="Group 132" transform="translate(164.738 385.289)">
        <path id="Path_2137" data-name="Path 2137" d="M220.465,653.162l-.5-1.429,1.429-.5.5,1.429Zm-1.5-4.287-.5-1.429,1.429-.5.5,1.429Zm-1.5-4.287-.5-1.429,1.429-.5.5,1.429Zm-1.5-4.287-.5-1.429,1.429-.5.5,1.429Zm-1.5-4.287-.5-1.429,1.43-.5.5,1.429Zm-1.5-4.287-.5-1.429,1.429-.5.5,1.429Zm-1.5-4.287-.5-1.429,1.429-.5.5,1.429Zm-1.5-4.287-.5-1.428,1.429-.5.5,1.429Zm-1.5-4.287-.5-1.429,1.429-.5.5,1.429Zm.737-3.789-1.082-1.059,1.059-1.082L210.263,614Zm3.176-3.247-1.082-1.058,1.059-1.082,1.082,1.059Zm3.175-3.246-1.082-1.059,1.059-1.082,1.082,1.059Zm3.176-3.247-1.082-1.059,1.059-1.082,1.082,1.058Zm3.176-3.247-1.082-1.058,1.059-1.082,1.082,1.059Zm3.176-3.246L224,597.789l1.058-1.082,1.082,1.058Zm3.176-3.247-1.082-1.058,1.058-1.082,1.082,1.059Zm3.176-3.246-1.082-1.059,1.059-1.082,1.082,1.059Zm3.176-3.246-1.082-1.059,1.059-1.082,1.082,1.059Zm3.176-3.247-1.082-1.058,1.059-1.082,1.082,1.059Zm3.176-3.246-1.082-1.059,1.059-1.082,1.082,1.058Z" transform="translate(-207.968 -580.476)" fill="#b4c5cd"/>
      </g>
      <g id="Group_133" data-name="Group 133" transform="translate(124.175 186.475)">
        <path id="Path_2138" data-name="Path 2138" d="M185.269,324.2l-1.049-1.091,1.091-1.049,1.049,1.091Zm-3.147-3.274-1.049-1.092,1.092-1.049,1.049,1.092Zm-3.147-3.275-1.049-1.092,1.091-1.049,1.049,1.091Zm-3.147-3.275-1.049-1.091,1.091-1.049,1.049,1.091Zm-3.146-3.275-1.049-1.091,1.092-1.049,1.049,1.091Zm-3.147-3.274-1.049-1.091,1.091-1.049,1.049,1.091Zm-3.147-3.275-1.049-1.091,1.091-1.049,1.049,1.091Zm-3.146-3.275-1.049-1.091,1.091-1.049,1.049,1.091Zm-3.147-3.274-1.049-1.091,1.091-1.049,1.049,1.091Zm-3.147-3.274-1.049-1.092,1.092-1.049,1.049,1.092Zm-3.146-3.275-1.049-1.091,1.091-1.049,1.049,1.091Zm-3.147-3.274-1.049-1.091,1.091-1.049,1.049,1.091Zm-3.147-3.275-1.049-1.091,1.091-1.049,1.049,1.091Zm-3.147-3.274-1.049-1.091,1.091-1.049,1.049,1.092Zm-3.147-3.274-1.049-1.092,1.092-1.049,1.049,1.091Zm-3.147-3.275-1.049-1.091,1.091-1.049,1.049,1.091Zm-3.146-3.274-1.049-1.091,1.091-1.049,1.049,1.091Zm-3.147-3.275-1.049-1.091,1.091-1.049,1.049,1.092Zm-3.147-3.274-1.049-1.092,1.091-1.049,1.049,1.091Zm.412-3.419-1.173-.957.957-1.174,1.173.957Zm2.87-3.519-1.173-.957.957-1.173,1.173.957Zm2.87-3.52-1.173-.957.957-1.173,1.173.957Zm2.871-3.52-1.174-.957.957-1.173,1.174.957Zm2.87-3.519-1.174-.957.957-1.173,1.174.957Zm2.87-3.52-1.174-.957.957-1.174,1.174.957Zm2.87-3.52-1.173-.957.957-1.173,1.173.957Zm2.87-3.519-1.173-.957.957-1.173,1.173.957Zm2.87-3.52-1.173-.957.957-1.174,1.173.957Zm2.87-3.519-1.173-.957.957-1.173,1.174.957Zm2.871-3.52-1.174-.957.957-1.173,1.174.957Zm2.87-3.52-1.174-.957L160.4,221l1.174.957Zm2.87-3.519-1.173-.957.957-1.173,1.173.957Zm2.87-3.52-1.173-.957.957-1.174,1.173.957Zm2.87-3.519-1.173-.957.957-1.173,1.173.957Zm2.87-3.52-1.173-.957.957-1.173,1.173.957Zm2.87-3.52-1.173-.957.957-1.173,1.173.957Zm2.87-3.519-1.173-.957.957-1.173,1.173.957Zm2.87-3.52-1.173-.957.957-1.174,1.173.957Zm2.871-3.52-1.173-.957.957-1.173,1.173.957Zm2.87-3.519-1.173-.957.957-1.173,1.173.957Zm2.87-3.52-1.173-.957.409-.5,1.173.957Z" transform="translate(-127.582 -186.475)" fill="#b4c5cd"/>
      </g>
      <g id="Group_134" data-name="Group 134" transform="translate(120.704 307.125)">
        <path id="Path_2139" data-name="Path 2139" d="M120.7,436.319l4.1-10.746,7.7,7.395Zm4.7-8.072-2.211,5.792,6.362-1.806Z" transform="translate(-120.704 -425.573)" fill="#b4c5cd"/>
      </g>
    </g>
    <g id="Layer_2" data-name="Layer 2" transform="translate(150.488 -40.901)">
      <g id="Layer_1" data-name="Layer 1">
        <g id="_3" data-name=" 3">
          <rect id="Rectangle_12" data-name="Rectangle 12" width="196.014" height="365.583" rx="42.999" transform="translate(199.512 236.901)" fill="#a7b1ba"/>
          <rect id="Rectangle_13" data-name="Rectangle 13" width="186.681" height="354.804" rx="35.832" transform="translate(204.179 242.289)" fill="#fff"/>
          <path id="Path_2080" data-name="Path 2080" d="M325.213,252.717H269.824a5.75,5.75,0,0,1-5.752-5.748V239.1h66.894v7.859a5.753,5.753,0,0,1-5.753,5.753Z" fill="#a7b1ba"/>
          <rect id="Rectangle_14" data-name="Rectangle 14" width="73.311" height="4.667" rx="2.15" transform="translate(260.864 586.537)" fill="#b2c3fb"/>
          <rect id="Rectangle_15" data-name="Rectangle 15" width="61.834" height="61.834" rx="7.037" transform="translate(229.84 285.65)" fill="#3276b8"/>
          <rect id="Rectangle_16" data-name="Rectangle 16" width="91.926" height="32.19" rx="7.037" transform="translate(249.99 530.923)" fill="#b2c3fb"/>
          <rect id="Rectangle_17" data-name="Rectangle 17" width="43.633" height="39.19" rx="7.037" transform="translate(322.394 394.025)" fill="#b2c3fb"/>
          <rect id="Rectangle_18" data-name="Rectangle 18" width="63.394" height="9.334" rx="3.762" transform="translate(304.139 300.491)" fill="#b2c3fb"/>
          <rect id="Rectangle_19" data-name="Rectangle 19" width="48.226" height="5.056" rx="2.329" transform="translate(304.139 312.158)" fill="#d7e0ff"/>
          <path id="Path_2093" data-name="Path 2093" d="M341.662,666.193c-.063,2.057.744,5.209-.687,5.98s-11.1.8-17.733,1.322-13.125-2.668-14.094-4.629,1.193-4.677,1.193-4.677Z" fill="#fff"/>
          <path id="Path_2094" data-name="Path 2094" d="M326.736,475.848c-.7,1.429-7.29,4.853-15.74,4.268a27.334,27.334,0,0,1-6.629-1.286,28.787,28.787,0,0,1-6.683-3.181,32.886,32.886,0,0,1-4.531-3.5c-7.952-7.283-12.268-19.859-14.434-30.8A101.536,101.536,0,0,1,276.88,426.6a27.551,27.551,0,0,1,.148-5.782,6.9,6.9,0,0,1,1.236-2.537h0c2.461-3.262,7.527-4.735,8.352,6.207,1.026,13.605,8.125,29.293,25.34,31.384C311.955,455.868,327.888,473.489,326.736,475.848Z" fill="#ffc1c2"/>
          <path id="Path_2095" data-name="Path 2095" d="M282.452,425.1a6.57,6.57,0,0,1-5.492,3.061,27.76,27.76,0,0,1,.038-5.782,6.849,6.849,0,0,1,1.187-2.559A17.732,17.732,0,0,1,282.452,425.1Z" fill="#fc9d9d"/>
          <path id="Path_2096" data-name="Path 2096" d="M286.3,420.094s.244,3.825-2.052,5.488a6.884,6.884,0,0,1-5.242.762,8.744,8.744,0,0,1-5.554-9.672c.9-4.488,5.668-3.068,7.688-3.443s-2.71-9.016-1.044-10.784c1.442-1.516,4.568,6.395,5.779,14.006C286.077,417.7,286.226,418.921,286.3,420.094Z" fill="#ffc1c2"/>
          <path id="Path_2097" data-name="Path 2097" d="M321.568,537.042c-4.524,20.207-8.144,48.858,3.016,53.682s52.332,17.984,53.845,16.174,2.088-7.126.583-8.734S350.52,585.3,345.994,568.71s6.635-47.35-.906-47.953S321.568,537.042,321.568,537.042Z" fill="#3276b8"/>
          <path id="Path_2098" data-name="Path 2098" d="M332.425,531.916c-5.73,18.7-11.158,37.4-11.158,53.08s9.555,66.6,9.254,69.914,6.815.205,9.378.205.066-35.136,4.891-52.929,31.06-48.254,28.349-72.381S332.425,531.916,332.425,531.916Z" fill="#3276b8"/>
          <path id="Path_2099" data-name="Path 2099" d="M374.85,533.324c-4.206,5.984-14.532.131-24.8-1.659a26.018,26.018,0,0,0-7.374-.352c-12.267,1.408-22.77,16.135-23.675,7.39s2.413-22.469,7.841-36.943-1.658-22.62,3.619-35.438,19.453-11.762,28.35-16.436c0,0,17.04,3.217,15.029,17.892a81.18,81.18,0,0,0-.022,14.343c.3,4.937.79,10.415,1.276,15.91.157,1.758.311,3.516.458,5.262C376.711,516.9,377.463,529.606,374.85,533.324Z" fill="#f6777b"/>
          <path id="Path_2100" data-name="Path 2100" d="M349.316,479.44c-.809,1.616-10.118,4.5-20.53,4.891h0c-1.366.053-2.753.06-4.14.016a42.923,42.923,0,0,1-11.117-1.689c-14.476-4.425-11.044-7.147-11.044-7.147l8.538-18.841c2.236.181,4.4.26,6.489.271,16.612.061,28.636-4.666,36.227-4.046C362.284,453.6,350.522,477.026,349.316,479.44Z" fill="#f6777b"/>
          <path id="Path_2101" data-name="Path 2101" d="M341.268,654.166c-.619-1.459-11.093-1.1-12.183.423s-.607,6.067-2.121,6.835-10.914-1.807-16.111,1.7,3.377,6.915,8.967,7.2,15.15.924,20.089-1.147S342.056,654.719,341.268,654.166Z" fill="#152d54"/>
          <path id="Path_2102" data-name="Path 2102" d="M375.557,503.292c-6.442-.676-10.923-1.58-10.977-3.42-.052-1.885.9-2.336-.131-4.2s-.767-16.383.523-22.466a28.927,28.927,0,0,1,7.5,6.687,15.764,15.764,0,0,1,1.348,2.227C374.222,488.636,374.945,496.091,375.557,503.292Z" fill="#e32710"/>
          <path id="Path_2103" data-name="Path 2103" d="M374.85,533.324c-4.206,5.984-14.533.131-24.8-1.659,10.781-5.7,21.059-31.214,21.059-31.214a16.507,16.507,0,0,1,3.984-2.421c.157,1.758.311,3.516.459,5.262C376.712,516.9,377.463,529.606,374.85,533.324Z" fill="#e32710"/>
          <path id="Path_2104" data-name="Path 2104" d="M387.735,489.111c-.081,3.288-.241,5.688-.407,7.411-.045.465-.094.88-.138,1.251a15.882,15.882,0,0,1-.476,2.678s-10.356-.9-17.894-3.523c-5.82-2.018-4.7-29.2-3.876-41.489.242-3.628.456-5.96.456-5.96,14.678.2,21.917,10.255,22.316,28.549C387.816,482.534,387.807,486.178,387.735,489.111Z" fill="#f6777b"/>
          <path id="Path_2105" data-name="Path 2105" d="M387.027,498.3a42.7,42.7,0,0,1-4.988,18.538c-5.58,10.556-23.675,19.453-26.842,24.581s.9,17.34-4.976,11.615a13.462,13.462,0,0,1-1.372-1.541c-4.026-5.306-1.416-11.07,3.935-18.217,5.88-7.841,15.681-21.413,16.888-34.985l17.343-1.357S387.045,497.421,387.027,498.3Z" fill="#ffc1c2"/>
          <path id="Path_2106" data-name="Path 2106" d="M387.028,498.3a42.676,42.676,0,0,1-4.988,18.538c-5.58,10.556-23.675,19.453-26.842,24.581s.906,17.34-4.976,11.615a13.561,13.561,0,0,1-1.372-1.541c3.562,1.459,2-1.174,2.138-6.149.152-5.58,4.6-14.226,12.137-18.648s12.567-17.393,15.17-27.406C378.3,499.285,382.578,496.717,387.028,498.3Z" fill="#ffa7a6"/>
          <path id="Path_2107" data-name="Path 2107" d="M387.735,489.112c-.081,3.287-.242,5.687-.407,7.41-5.482.368-20.366-2.252-20.366-2.252,1.343-1.306,4.384-1.937,9.071-1.259C380.642,493.678,386.576,491.573,387.735,489.112Z" fill="#e32710"/>
          <path id="Path_2108" data-name="Path 2108" d="M387.735,489.111c-.081,3.288-.242,5.688-.407,7.41-.046.466-.094.881-.138,1.252-3.361-.048-5.984-3.635-3.261-5.818,4.143-3.317,3.784-13.923,2.038-20.508-1.622-6.119-8.176-15.13-21.027-16.005.242-3.628.456-5.96.456-5.96,14.678.2,21.917,10.255,22.316,28.549C387.816,482.534,387.807,486.178,387.735,489.111Z" fill="#e32710"/>
          <path id="Path_2109" data-name="Path 2109" d="M385.2,493.464c3.317-.227,6.559-.151,6.408,2.487s.075,5.731-2.338,6.032-23.573-.426-23.975-2.639-.7-4.622.8-5.328S382.591,494.016,385.2,493.464Z" fill="#f05831"/>
          <path id="Path_2110" data-name="Path 2110" d="M324.643,484.347a42.88,42.88,0,0,1-11.117-1.689c-14.476-4.425-11.044-7.147-11.044-7.147l8.54-18.841a30.518,30.518,0,0,0,3.838.239c-.63,2.047-2.168,9.158-3.915,14.463C309.186,476.723,316.009,483.421,324.643,484.347Z" fill="#e32710"/>
          <path id="Path_2111" data-name="Path 2111" d="M304.366,478.83a28.805,28.805,0,0,1-6.683-3.181,32.886,32.886,0,0,1-4.531-3.5c-7.951-7.283-12.267-19.859-14.434-30.8,5.906,14.747,14.666,29.073,18,26.727,3.722-2.61,8.851-10.048,8.851-10.048S306.429,471.061,304.366,478.83Z" fill="#fc9d9d"/>
          <path id="Path_2112" data-name="Path 2112" d="M313.577,453.352c-1.257-.7-4.322-2.965-5.88-.552a127.9,127.9,0,0,0-7.691,16.235c-1.056,3.315-2.186,6.936-1.436,8.068s5.2,3.166,6.409,3.166,9.35-22.242,10.1-23.9S313.577,453.352,313.577,453.352Z" fill="#f05831"/>
          <path id="Path_2113" data-name="Path 2113" d="M389.455,599.085c1.958.619,5.214.7,5.568,2.287s-2.245,10.9-3.548,17.423-6.134,11.906-8.286,12.307-4.176-2.421-4.176-2.421Z" fill="#fff"/>
          <path id="Path_2114" data-name="Path 2114" d="M377.775,596.2c-1.566.2-4.078,10.374-2.9,11.837s5.673,2.233,6,3.9-4.7,10.012-2.741,15.969,7.57-1.371,9.364-6.674,5.006-14.327,4.358-19.643S378.521,595.587,377.775,596.2Z" fill="#152d54"/>
          <path id="Path_2115" data-name="Path 2115" d="M364.984,464.446c-2.61,10.155-18.8,14.075-22.821,4.726s1.8-14.056,6.421-15.963c3.86-1.6,6.656-4.157,6.517-9.311-.023-1.019-.089-2.114-.17-3.278l9.752-4.321s1.707,9.657,1.509,13.774S367.6,454.294,364.984,464.446Z" fill="#ffa7a6"/>
          <path id="Path_2116" data-name="Path 2116" d="M366.192,450.073c-.58-4.136-8-4.576-11.093-6.175-.024-1.019-.09-2.114-.171-3.278l10.158-4.746S366.39,445.95,366.192,450.073Z" fill="#dd4e4f"/>
          <path id="Path_2117" data-name="Path 2117" d="M356.967,442.9c-.415.147-.817.271-1.2.368h-.013c-10.157,2.61-8.743-12.087-10.091-21.248-.009-.072-.021-.142-.033-.21-.078-.531-.172-1.045-.275-1.53,2.5-7.642,13.467-5.3,20.639-2,3.44,1.584,6.011,3.392,6.354,4.416C373.4,425.856,369.184,438.523,356.967,442.9Z" fill="#ffc1c2"/>
          <path id="Path_2118" data-name="Path 2118" d="M356.969,442.9c-.414.147-.817.271-1.2.368,9.412-3.116,9.476-9.424,11.692-11.3,2.489-2.111.529-4.071-2.036-3.091s-.829-2.941-5.654-3.092c-4.754-.147-11.039-.442-14.105-3.762a1.922,1.922,0,0,1-.144-.157l.112-.053a42.817,42.817,0,0,1,20.359-3.533c3.44,1.584,6.011,3.393,6.354,4.416C373.4,425.856,369.184,438.523,356.969,442.9Z" fill="#ffa7a6"/>
          <path id="Path_2119" data-name="Path 2119" d="M379.713,421.107c-2.036,8.821-9.952,15.959-12.414,16.16-2.436.2,2.308-6.385-2.111-9.549-.049-.032-.1-.069-.15-.1-4.675-3.116-5.682-2.715-9.35-3.116s-7.69-.4-9.726-1.835c-7.238-3.543-11.234-15.2-6.032-21.614s6.758,8.369,15.73,6.936,11.46,1.886,12.667,5.053c.594,1.566,3.858,1.4,6.772,1.891C378.108,415.434,380.745,416.628,379.713,421.107Z" fill="#152d54"/>
          <path id="Path_2120" data-name="Path 2120" d="M344.624,420.78c-6.936-8.646-6.327-16.737-3.217-19.15s3.87,3.263,6.585,4.876-2.671.578-4.045-1.031-2.69,9.173,0,13.144S344.624,420.78,344.624,420.78Z" fill="#1d3e6d"/>
          <path id="Path_2121" data-name="Path 2121" d="M379.713,421.107c-2.036,8.821-9.952,15.96-12.414,16.161-2.436.2,2.308-6.386-2.111-9.549.878-.838,1.518-1.469,1.518-1.469,3.428-.3,3.579,4.749,5.162,4.092s5.957-4.582,6.559-10.048a4.934,4.934,0,0,0-3.326-5.363C378.108,415.434,380.747,416.628,379.713,421.107Z" fill="#10233f"/>
          <path id="Path_2122" data-name="Path 2122" d="M369.81,429.622a6.156,6.156,0,0,1-3.895,4.491c-1.056.4-1.995.412-2.335.033-.856-.956-.653-6.734-.653-6.734.072-.049.147-.094.223-.144h0C365.989,425.564,370.544,425.76,369.81,429.622Z" fill="#ffc1c2"/>
          <path id="Path_2123" data-name="Path 2123" d="M369.81,429.622a6.158,6.158,0,0,1-3.895,4.491c2.05-1.758,3.224-7.534-2.763-6.844C365.989,425.563,370.544,425.759,369.81,429.622Z" fill="#ffa7a6"/>
          <path id="Path_2124" data-name="Path 2124" d="M348.552,538.8c.225.015.561.064.424.244-4.915,6.4-.57,13.675,2.978,15.319,3.742,1.734,1.436,2.884-.522,2.469s-8.771-2.953-8.47-11.093C343.213,539.1,347.118,538.724,348.552,538.8Z" fill="#000b28"/>
          <path id="Path_2125" data-name="Path 2125" d="M386.924,642.3c-54.515,22.255-111.7,20.881-171.1-.086a4.26,4.26,0,0,1-2.847-4.013V567.374a4.251,4.251,0,0,1,5.392-4.1c58.218,16.34,113.635,17.607,165.61.379a4.252,4.252,0,0,1,5.6,4.032v70.667a4.263,4.263,0,0,1-2.651,3.944Z" fill="#0199fe" opacity="0.12" style="isolation: isolate"/>
          <path id="Path_2126" data-name="Path 2126" d="M364.558,604.148c-40.285,16.49-82.549,15.466-126.452-.067a2.884,2.884,0,0,1-1.915-2.714V590.8a2.891,2.891,0,0,1,3.677-2.778c43.136,12.155,84.189,13.1,122.681.261a2.891,2.891,0,0,1,3.818,2.734v10.463A2.9,2.9,0,0,1,364.558,604.148Z" fill="#114dbd" opacity="0.5" style="isolation: isolate"/>
          <path id="Path_2127" data-name="Path 2127" d="M311.622,600.957V612.59a3.476,3.476,0,0,1-3.368,3.478c-22.889.624-46.317-3.543-70.231-12.013a2.759,2.759,0,0,1-1.828-2.6V590.63a2.763,2.763,0,0,1,3.524-2.657c23.428,6.613,46.245,9.919,68.368,9.515a3.479,3.479,0,0,1,3.538,3.418v.053Z" fill="#114dbd" opacity="0.5" style="isolation: isolate"/>
          <path id="Path_2128" data-name="Path 2128" d="M364.659,631.846c-40.34,16.546-82.668,15.522-126.639-.051a2.761,2.761,0,0,1-1.833-2.61V618.361a2.766,2.766,0,0,1,2.767-2.765,2.811,2.811,0,0,1,.757.106c43.255,12.214,84.415,13.159,123,.251a2.766,2.766,0,0,1,3.655,2.616v10.725A2.754,2.754,0,0,1,364.659,631.846Z" fill="#114dbd" opacity="0.5" style="isolation: isolate"/>
          <path id="Path_2129" data-name="Path 2129" d="M279.777,627.106l-.842,11.187a3.458,3.458,0,0,1-3.71,3.186c-.1-.007-.206-.02-.308-.037a213.7,213.7,0,0,1-36.958-9.675,2.666,2.666,0,0,1-1.77-2.515V618.238a2.666,2.666,0,0,1,3.393-2.565,263.514,263.514,0,0,0,37.194,7.75A3.454,3.454,0,0,1,279.777,627.106Z" fill="#114dbd" opacity="0.5" style="isolation: isolate"/>
          <g id="Group_131" data-name="Group 131" opacity="0.74">
            <path id="Path_2130" data-name="Path 2130" d="M262.647,375.663v65.081S206.37,446.322,206.37,470.5V393.561S206.37,375.663,262.647,375.663Z" fill="#0199fe" opacity="0.15" style="isolation: isolate"/>
            <path id="Path_2131" data-name="Path 2131" d="M206.37,393.559v.552A4.62,4.62,0,0,1,206.37,393.559Z" fill="#07ae7b" opacity="0.51" style="isolation: isolate"/>
            <path id="Path_2132" data-name="Path 2132" d="M206.37,393.559v.552A4.62,4.62,0,0,1,206.37,393.559Z" fill="#07ae7b" opacity="0.51" style="isolation: isolate"/>
            <path id="Path_2133" data-name="Path 2133" d="M275.775,428.855v72.691c-28.058-4.387-57.061-13.263-69.4-31.044V394.111C206.536,397.885,210.347,419.927,275.775,428.855Z" fill="#0199fe" opacity="0.15" style="isolation: isolate"/>
            <path id="Path_2134" data-name="Path 2134" d="M211.037,393.8c.114-.465,1.009-3.262,6.563-6.237,5.8-3.1,17.448-6.752,40.381-7.192v56.248A161.079,161.079,0,0,0,233.11,442.1q-14.252,4.473-22.072,10.8Z" fill="#0199fe" opacity="0.15" style="isolation: isolate"/>
            <path id="Path_2135" data-name="Path 2135" d="M271.108,496.031c-29.965-5.327-50.626-14.624-60.071-27.049V410.976q1.239,1.123,2.7,2.262c11.725,9.093,31.015,15.7,57.37,19.663Z" fill="#0199fe" opacity="0.15" style="isolation: isolate"/>
          </g>
          <path id="Path_2136" data-name="Path 2136" d="M264.926,460.4l-.974,21.574a1.5,1.5,0,0,1-1.863,1h0c-15.1.716-36.519-6.434-45.024-16.846l.237-.723.932.339c1.631.582,3.427-.87,4.723-1.393a2.828,2.828,0,0,1,.309-.108.927.927,0,0,1,1.3.653c.522,1.469,2.357,2.2,4.26,2.26h.275a7.1,7.1,0,0,0,2.848-.564,6.379,6.379,0,0,1,3.843-.261c.089.018.175.036.261.059a5.987,5.987,0,0,1,3.38,1.957,3.226,3.226,0,0,0,2.126,1.157c.086.018.177.031.261.041a7.643,7.643,0,0,0,5.088-1.287,2.2,2.2,0,0,1,1.887-.5,1.373,1.373,0,0,1,.246.1c.98.49,1.566,2.028,2.329,3.319.461.783,1.669.667,3.114-.011.107-.05.217-.1.326-.162a16.761,16.761,0,0,0,6.3-6,11.042,11.042,0,0,1,1.99-2.584C264.924,462.071,263.948,461.087,264.926,460.4Z" fill="#114dbd" opacity="0.5" style="isolation: isolate"/>
          <rect id="Rectangle_20" data-name="Rectangle 20" width="6.635" height="44.334" rx="2.06" transform="translate(241.924 389.44)" fill="#114dbd" opacity="0.5" style="isolation: isolate"/>
          <rect id="Rectangle_21" data-name="Rectangle 21" width="6.635" height="44.334" rx="2.06" transform="translate(227.648 394.668)" fill="#114dbd" opacity="0.5" style="isolation: isolate"/>
          <rect id="Rectangle_22" data-name="Rectangle 22" width="6.635" height="44.334" rx="2.06" transform="translate(216.188 399.694)" fill="#114dbd" opacity="0.5" style="isolation: isolate"/>
        </g>
      </g>
    </g>
    <path id="Path_2071" data-name="Path 2071" d="M669.341,165.983,665.393,155.3l13.1.694Zm-1.846-9.139,2.377,6.435,5.509-6.017Z" transform="translate(-118.793 40.704)" fill="#b4c5cd"/>
  </g>
</svg>
