<svg xmlns="http://www.w3.org/2000/svg" width="40" height="40" viewBox="0 0 40 40">
  <g id="Group_6124" data-name="Group 6124" transform="translate(-336 -1148)">
    <g id="Group_3005" data-name="Group 3005" transform="translate(336.486 1148.178)">
      <circle id="Ellipse_371" data-name="Ellipse 371" cx="20" cy="20" r="20" transform="translate(-0.487 -0.178)" fill="#d1e7ff"/>
    </g>
    <path id="Path_2768" data-name="Path 2768" d="M1624.478,651.555a10.3,10.3,0,0,0-10.282,10.283c0,3.661,1.114,5.128,6.464,12.181.93,1.225,1.982,2.614,3.188,4.219a.79.79,0,0,0,1.264,0c1.2-1.6,2.246-2.98,3.17-4.2,5.364-7.073,6.48-8.545,6.48-12.2A10.3,10.3,0,0,0,1624.478,651.555Zm2.544,21.528c-.759,1-1.6,2.112-2.544,3.363-.945-1.259-1.792-2.376-2.557-3.383-5.205-6.86-6.142-8.1-6.142-11.225a8.7,8.7,0,1,1,17.4,0C1633.181,664.959,1632.24,666.2,1627.022,673.083Z" transform="translate(-1268.902 503.735)" fill="#292724"/>
    <path id="Path_2769" data-name="Path 2769" d="M1625.939,657.761a5.537,5.537,0,1,0,5.538,5.538A5.544,5.544,0,0,0,1625.939,657.761Zm0,9.492a3.955,3.955,0,1,1,3.957-3.955A3.959,3.959,0,0,1,1625.939,667.253Z" transform="translate(-1270.363 502.275)" fill="#292724"/>
  </g>
</svg>
