<svg xmlns="http://www.w3.org/2000/svg" width="40" height="39" viewBox="0 0 40 39">
  <g id="Group_6122" data-name="Group 6122" transform="translate(-336 -920)">
    <g id="Group_3005" data-name="Group 3005" transform="translate(336.486 919.583)">
      <ellipse id="Ellipse_371" data-name="Ellipse 371" cx="20" cy="19.5" rx="20" ry="19.5" transform="translate(-0.487 0.417)" fill="#d1e7ff"/>
    </g>
    <path id="Path_1396" data-name="Path 1396" d="M3070.7,1011.718a30.717,30.717,0,0,1-3.088-3.633,16.608,16.608,0,0,1-2.736-4.993,7.258,7.258,0,0,1,.064-4.448c.532-1.462,2.068-3.388,3.817-3.2,1.524.162,2.8,1.622,3.447,2.913a2.561,2.561,0,0,1,.283,1.933c-.295.854-1.236,1.3-1.754,2.036a2.821,2.821,0,0,0,.115,3.093,17.68,17.68,0,0,0,6.106,6.107,2.822,2.822,0,0,0,3.092.114c.741-.518,1.182-1.46,2.035-1.754a2.566,2.566,0,0,1,1.934.283c1.292.644,2.751,1.922,2.913,3.447.187,1.75-1.74,3.284-3.2,3.817a7.259,7.259,0,0,1-4.449.064,16.629,16.629,0,0,1-4.993-2.735A30.005,30.005,0,0,1,3070.7,1011.718Z" transform="translate(-2719.518 -66.631)" fill="none" stroke="#464646" stroke-linecap="round" stroke-linejoin="round" stroke-width="1.5"/>
    <line id="Line_70" data-name="Line 70" x2="0.842" y2="0.842" transform="translate(350.516 933.925)" fill="none" stroke="#464646" stroke-linecap="round" stroke-linejoin="round" stroke-width="1.5"/>
    <line id="Line_71" data-name="Line 71" x2="0.842" y2="0.842" transform="translate(361.459 944.869)" fill="none" stroke="#464646" stroke-linecap="round" stroke-linejoin="round" stroke-width="1.5"/>
  </g>
</svg>
