<svg xmlns="http://www.w3.org/2000/svg" width="40" height="40" viewBox="0 0 40 40">
  <g id="Group_6120" data-name="Group 6120" transform="translate(-336 -586)">
    <g id="Group_3005" data-name="Group 3005" transform="translate(336.486 586.483)">
      <circle id="Ellipse_371" data-name="Ellipse 371" cx="20" cy="20" r="20" transform="translate(-0.487 -0.483)" fill="#d1e7ff"/>
      <g id="Group_5844" data-name="Group 5844" transform="translate(4.608 5.265)">
        <g id="Group_2891" data-name="Group 2891">
          <g id="Group_2890" data-name="Group 2890">
            <path id="Path_2652" data-name="Path 2652" d="M992.645,202.91a14.833,14.833,0,0,0-11.439,24.284c.005.008.005.016.012.023a14.841,14.841,0,0,0,5.6,4.182l.074.032c.174.074.349.142.525.208l.208.077c.152.054.3.106.461.155.1.032.2.063.294.093.136.04.274.081.411.117.121.033.243.064.364.093s.246.059.37.086c.14.029.281.056.42.081.112.021.225.042.339.061.155.025.313.045.47.065.1.013.2.027.305.038.178.02.357.033.536.045.085.006.167.015.251.019.263.015.528.023.795.023s.533-.009.8-.022c.085,0,.167-.014.249-.019.181-.013.362-.027.54-.045.1-.01.2-.026.3-.039.158-.02.315-.04.471-.066.112-.017.227-.04.339-.06.141-.026.28-.052.42-.082.123-.027.246-.056.371-.086s.243-.06.363-.093c.138-.036.275-.076.411-.117.1-.029.2-.06.3-.092.152-.05.307-.1.459-.155l.208-.079c.177-.066.352-.135.526-.207.026-.01.049-.022.074-.033a14.838,14.838,0,0,0,5.6-4.182c.006-.007.006-.016.012-.024a14.835,14.835,0,0,0-11.443-24.284Zm6.015,27.318-.022.01c-.177.085-.356.166-.536.244-.042.017-.082.035-.124.051-.158.068-.316.13-.48.19-.066.026-.133.051-.2.075q-.215.076-.432.147l-.271.082q-.193.059-.389.111c-.109.029-.221.056-.332.082s-.232.056-.348.081-.258.051-.386.073c-.106.019-.209.04-.313.056-.146.024-.293.042-.439.061-.092.011-.183.025-.278.035-.166.018-.333.029-.5.041-.074,0-.147.014-.224.017-.245.014-.49.02-.738.02s-.49-.006-.735-.02c-.075,0-.15-.012-.226-.017-.168-.012-.335-.023-.5-.041-.093-.01-.185-.024-.279-.035-.144-.019-.291-.037-.436-.061-.107-.015-.209-.037-.315-.056-.129-.022-.257-.047-.385-.073s-.233-.053-.348-.081-.223-.053-.332-.082c-.131-.034-.26-.072-.388-.111l-.272-.082c-.145-.047-.288-.1-.43-.147-.069-.024-.136-.05-.2-.075-.161-.059-.322-.122-.481-.19l-.122-.051c-.181-.078-.36-.159-.538-.244l-.021-.011a13.93,13.93,0,0,1-4.488-3.46,10.922,10.922,0,0,1,7.146-7.489c.069.042.14.08.213.12.04.022.082.047.125.069.146.078.3.151.448.217.118.051.238.094.36.139l.07.027a6.323,6.323,0,0,0,4.28,0l.07-.027c.122-.045.244-.087.359-.139.153-.066.3-.139.45-.217.041-.023.082-.047.124-.069.072-.04.144-.078.213-.12a10.922,10.922,0,0,1,7.147,7.489A13.961,13.961,0,0,1,998.659,230.228ZM987.2,213.794a5.442,5.442,0,1,1,8.4,4.559,5.043,5.043,0,0,1-.6.34l-.073.035a5.565,5.565,0,0,1-4.562,0l-.074-.035a5.245,5.245,0,0,1-.606-.34A5.434,5.434,0,0,1,987.2,213.794Zm16.687,12.033a11.928,11.928,0,0,0-6.949-7.259,6.432,6.432,0,1,0-8.59,0,11.921,11.921,0,0,0-6.949,7.259,13.851,13.851,0,1,1,22.489,0Z" transform="translate(-977.504 -202.61)" fill="#292724"/>
            <path id="Path_2653" data-name="Path 2653" d="M992.6,232.843q-.409,0-.812-.023c-.052,0-.106-.008-.16-.012l-.094-.007c-.182-.014-.367-.027-.548-.046-.075-.008-.148-.017-.222-.027l-.089-.011c-.191-.026-.334-.045-.479-.066l-.345-.063c-.144-.027-.288-.053-.429-.084s-.251-.056-.377-.088-.249-.059-.373-.093-.278-.077-.417-.118c-.1-.031-.2-.063-.3-.1-.156-.051-.311-.1-.468-.159l-.213-.079c-.181-.068-.359-.137-.536-.212h0l-.076-.033a15.236,15.236,0,0,1-5.717-4.267l-.041-.06a15.139,15.139,0,1,1,23.406,0l-.044.063a15.217,15.217,0,0,1-5.718,4.265l-.075.035c-.178.072-.357.143-.536.21l-.209.078c-.158.057-.315.11-.472.16-.1.033-.2.064-.3.094-.139.042-.28.083-.419.12-.121.032-.244.063-.368.093s-.253.06-.379.087c-.144.031-.286.057-.429.084l-.083.015c-.087.017-.176.033-.263.047-.159.026-.319.045-.481.066l-.1.014c-.07.009-.141.019-.213.026-.18.02-.364.033-.547.046l-.255.02C993.14,232.835,992.868,232.843,992.6,232.843ZM986.96,231.1c.172.071.343.138.516.2l.2.076c.148.053.3.1.448.152l.294.091q.2.061.4.114c.12.033.238.063.355.091s.245.058.366.083c.137.03.272.055.409.081l.334.06c.136.022.275.039.414.057l.342.044c.176.018.352.032.528.043l.244.02a15.038,15.038,0,0,0,1.561,0l.248-.021c.175-.011.352-.025.527-.042l.2-.026.1-.013c.156-.02.309-.039.461-.064l.333-.059c.137-.026.275-.051.411-.081.119-.026.241-.053.362-.083s.239-.058.358-.091c.136-.035.269-.075.4-.114l.29-.09c.151-.049.3-.1.451-.152l.172-.065c.205-.077.377-.144.546-.215l.189.245-.118-.276a14.637,14.637,0,0,0,5.46-4.06l.039-.056a14.541,14.541,0,1,0-22.415-.005l.04.057a14.634,14.634,0,0,0,5.462,4.062l-.045.309Zm5.635.749c-.251,0-.5-.007-.752-.02l-.229-.018c-.172-.011-.342-.023-.513-.042l-.284-.035c-.18-.024-.315-.04-.447-.062-.084-.014-.167-.028-.25-.045l-.072-.014c-.129-.023-.262-.047-.393-.074-.1-.022-.208-.046-.31-.072l-.129-.031c-.087-.021-.172-.041-.256-.063-.134-.037-.265-.074-.4-.113l-.276-.084c-.149-.048-.3-.1-.443-.15l-.2-.075c-.167-.062-.332-.126-.493-.195l-.12-.051c-.189-.082-.373-.164-.552-.251a14.147,14.147,0,0,1-4.609-3.545l-.1-.121.041-.154a11.292,11.292,0,0,1,7.344-7.7l.132-.042.118.072c.043.026.085.05.13.074l.19.107c.14.073.281.144.429.207.1.042.2.078.3.115l.073.027a5.974,5.974,0,0,0,4.121.015l.065-.024c.149-.055.248-.091.346-.132.147-.063.288-.135.427-.208l.19-.106c.045-.024.089-.048.131-.075l.118-.071.133.042a11.293,11.293,0,0,1,7.341,7.7l.042.155-.1.12a14.128,14.128,0,0,1-4.585,3.534c-.2.1-.386.18-.571.26l-.094.04c-.195.082-.358.146-.523.208l-.208.076c-.146.051-.292.1-.44.148l-.275.084c-.132.039-.264.076-.4.113-.108.029-.219.056-.331.082l-.063.015c-.1.024-.2.048-.3.069-.131.027-.263.051-.4.075l-.069.013c-.084.016-.167.031-.251.045-.132.021-.265.038-.4.056l-.331.041c-.172.019-.343.031-.515.042l-.228.018Q992.973,231.853,992.6,231.853Zm-10.167-5.21a13.53,13.53,0,0,0,4.286,3.265c.192.093.369.172.546.249l.118.05c.158.065.311.127.471.185l.2.073c.14.05.282.1.423.142l.264.081c.126.038.253.075.381.108.08.021.161.041.243.061l.083.02c.142.034.24.058.339.079.124.025.251.049.376.07l.076.015c.077.014.154.028.232.04.126.02.254.037.382.053l.318.04c.163.017.327.029.491.039l.22.018a13.953,13.953,0,0,0,1.442,0l.221-.018c.162-.011.327-.022.491-.039l.27-.034c.174-.022.3-.039.429-.059.078-.012.156-.027.234-.04l.072-.015c.127-.022.255-.045.378-.071.1-.02.192-.044.286-.066l.133.277-.07-.292c.105-.026.211-.051.317-.079.127-.033.253-.069.378-.107l.267-.082c.142-.046.283-.093.422-.142.067-.023.13-.047.2-.071.159-.06.317-.122.472-.187l.123-.051c.174-.076.348-.154.521-.238a13.579,13.579,0,0,0,4.308-3.275,10.691,10.691,0,0,0-6.781-7.086c-.008.006-.021.012-.032.018l-.193.108c-.157.083-.315.16-.475.228-.1.047-.216.087-.327.129l-.118.044a6.636,6.636,0,0,1-4.484,0l-.076-.028c-.157-.058-.268-.1-.374-.146-.16-.068-.316-.145-.472-.227l-.2-.111-.03-.016A10.69,10.69,0,0,0,982.428,226.643Zm21.314-.217-.186-.552a11.559,11.559,0,0,0-6.775-7.076l-.455-.177.363-.326a6.132,6.132,0,1,0-8.186,0l.362.327-.455.177a11.546,11.546,0,0,0-6.773,7.076l-.189.552-.341-.474a14.153,14.153,0,1,1,22.976,0ZM992.6,204.151a13.566,13.566,0,0,0-13.55,13.551,13.431,13.431,0,0,0,2.224,7.425,12.152,12.152,0,0,1,6.493-6.713,6.73,6.73,0,1,1,9.669,0,12.144,12.144,0,0,1,6.491,6.713A13.54,13.54,0,0,0,992.6,204.151Zm0,15.318a5.848,5.848,0,0,1-2.4-.516l-.062-.03a5.665,5.665,0,0,1-.658-.367,5.743,5.743,0,1,1,6.249,0,5.434,5.434,0,0,1-.641.359l-.081.038A5.841,5.841,0,0,1,992.6,219.469ZM990.44,218.4a5.344,5.344,0,0,0,4.312,0l.2.238-.129-.271a4.831,4.831,0,0,0,.569-.321,5.139,5.139,0,1,0-5.592,0,4.833,4.833,0,0,0,.571.321l-.055.306Z" transform="translate(-977.454 -202.56)" fill="#292724"/>
          </g>
        </g>
      </g>
    </g>
  </g>
</svg>
