<svg xmlns="http://www.w3.org/2000/svg" width="78.212" height="93.413" viewBox="0 0 78.212 93.413">
  <g id="canned_responses" data-name="canned responses" transform="translate(-0.003 0.001)" opacity="0.71">
    <g id="Group_2675" data-name="Group 2675" transform="translate(0.003 -0.001)">
      <path id="Path_989" data-name="Path 989" d="M509.591,2281.034l-18.683-18.688-5.483-5.484H436.863v93.413H465.91v-5.482H442.346v-82.447h43.076v24.17h24.17v15.96h5.483v-15.964Zm-18.687,0V2270.1l10.933,10.933Z" transform="translate(-436.863 -2256.862)" fill="#db4d34"/>
      <path id="Path_990" data-name="Path 990" d="M493.656,2316.283a13.275,13.275,0,1,0-18.5,0,19.387,19.387,0,0,0-11.765,17.623,2.815,2.815,0,0,0,2.775,2.776l36.075-.007a2.563,2.563,0,0,0,.267.014,2.676,2.676,0,0,0,1.822-.694,2.794,2.794,0,0,0,.891-2.059C505.51,2326.41,500.945,2319.579,493.656,2316.283Zm-8.991-1.887a7.748,7.748,0,0,1-7.586-7.543,7.543,7.543,0,1,1,7.586,7.544Zm14.592,16.574H469.426c1.442-6.245,7.679-10.942,14.884-10.942C491.6,2320.029,497.755,2324.638,499.257,2330.971Z" transform="translate(-427.028 -2243.277)" fill="#db4d34"/>
    </g>
    <rect id="Rectangle_1225" data-name="Rectangle 1225" width="26.275" height="5.483" transform="translate(13.423 32.301)" fill="#db4d34"/>
    <rect id="Rectangle_1226" data-name="Rectangle 1226" width="13.137" height="5.483" transform="translate(13.423 44.643)" fill="#db4d34"/>
  </g>
</svg>
