<svg xmlns="http://www.w3.org/2000/svg" width="103.89" height="103.883" viewBox="0 0 103.89 103.883">
  <g id="Group_6314" data-name="Group 6314" transform="translate(-350.135 -942.11)">
    <g id="Group_6260" data-name="Group 6260" transform="translate(350.135 942.11)">
      <path id="Path_5901" data-name="Path 5901" d="M2054.862,1598.855v-73.037a13.519,13.519,0,0,1,1.746-3.289,9,9,0,0,1,4.137-2.391h39.361a8.386,8.386,0,0,1,1.464,1.206c2.646,2.66,5.314,5.3,7.948,7.97a1.768,1.768,0,0,0,1.412.575c2.535-.03,5.071.018,7.605-.029a2.857,2.857,0,0,1,2.233.936c2.684,2.718,5.411,5.394,8.079,8.127a2.185,2.185,0,0,0,1.769.705c2.5-.036,5,.008,7.5-.027a2.571,2.571,0,0,1,1.982.8q8.918,8.937,17.852,17.858a2.5,2.5,0,0,1,.8,1.879q-.019,28.444-.015,56.889a7.028,7.028,0,0,1-7,6.983q-25.454.018-50.908-.019a6.715,6.715,0,0,1-6.454-4.331,9.673,9.673,0,0,1-.534-4.459c.029-.742-.147-.955-.924-.945-3.853.047-7.707.033-11.561.018a7.048,7.048,0,0,1-6.705-5,10.949,10.949,0,0,1-.288-3.807c.032-.737-.138-.958-.921-.949-3.853.048-7.707.042-11.561.013a7.06,7.06,0,0,1-4.9-2.011A10.364,10.364,0,0,1,2054.862,1598.855Zm42.2-17.147q0,17.7,0,35.4a3.635,3.635,0,0,0,3.629,3.658q25.612.007,51.223,0a3.656,3.656,0,0,0,3.575-3.619q.007-26.979.021-53.958c0-.734-.211-.871-.9-.865-3.854.035-7.709.018-11.563.016-4.416,0-7.026-2.608-7.031-7.023,0-3.786-.027-7.573.015-11.359.009-.825-.106-1.125-1.058-1.122-11.36.042-22.721.026-34.081.028a3.65,3.65,0,0,0-3.834,3.855Q2097.062,1564.213,2097.063,1581.708Zm-19.478-9.653q0,17.649,0,35.3a3.631,3.631,0,0,0,3.411,3.666c4.057.029,8.115,0,12.172.023.557,0,.661-.182.657-.688-.022-2.806-.027-5.613,0-8.418.006-.562-.189-.66-.691-.655-2.231.023-4.463.015-6.695.008-1.276,0-1.975-.6-1.964-1.64s.708-1.6,2-1.6c2.164-.005,4.328-.02,6.492.01.6.008.892-.068.864-.794-.063-1.654-.058-3.314,0-4.969.023-.67-.217-.763-.8-.754-2.164.033-4.328.016-6.492.013-1.371,0-2.073-.569-2.06-1.647.014-1.063.714-1.6,2.107-1.6,2.063,0,4.126-.04,6.187.019.8.023,1.118-.115,1.066-1.011-.088-1.516-.061-3.043-.007-4.562.025-.715-.1-.987-.909-.961-2.128.069-4.26.026-6.39.022-1.37,0-2.072-.571-2.055-1.652.016-1.029.718-1.589,2.013-1.592,2.2,0,4.4-.018,6.593.011.545.007.761-.1.746-.7-.043-1.689-.055-3.382,0-5.07.024-.69-.251-.748-.815-.741-2.164.028-4.328.014-6.492.011-1.365,0-2.068-.575-2.048-1.657.019-1.032.715-1.585,2.018-1.587,2.2,0,4.4-.019,6.593.011.554.008.754-.117.739-.712-.042-1.656-.044-3.314,0-4.969.018-.644-.135-.856-.818-.841-2.163.048-4.328.021-6.491.017-1.362,0-2.066-.582-2.042-1.664.023-1.029.718-1.577,2.027-1.579,2.164,0,4.328-.027,6.491.015.655.012.841-.155.834-.825-.035-3.719-.018-7.438-.017-11.157,0-4.537,2.972-7.51,7.506-7.511,4.8,0,9.6-.013,14.4.016.659,0,.853-.16.831-.827-.052-1.554-.072-3.113.006-4.664.042-.85-.2-1.04-1.039-1.037q-17.041.047-34.082.022a3.655,3.655,0,0,0-3.855,3.837Q2077.585,1554.508,2077.585,1572.055Zm-19.477-9.755v1.521q0,16.885,0,33.771a3.644,3.644,0,0,0,3.692,3.7c3.921.005,7.843-.012,11.764.016.605,0,.811-.115.791-.766-.053-1.655-.046-3.313,0-4.968.016-.61-.121-.8-.768-.79-2.332.045-4.665.023-7,.015a1.767,1.767,0,0,1-1.975-1.588c-.027-.957.8-1.651,2.009-1.655,2.333-.006,4.665-.02,7,.011.563.007.747-.132.733-.717q-.059-2.534,0-5.07c.012-.566-.138-.739-.719-.731-2.332.033-4.665.018-7,.012-1.208,0-2.036-.685-2.021-1.642s.835-1.6,2.063-1.6c2.333,0,4.666-.017,7,.011.525.006.688-.13.677-.669-.035-1.69-.044-3.381,0-5.07.017-.625-.144-.793-.776-.781-2.3.042-4.6.02-6.9.016-1.239,0-2.044-.627-2.069-1.593-.025-.984.823-1.65,2.116-1.652,2.3,0,4.6-.02,6.9.012.571.008.74-.146.727-.723q-.057-2.534,0-5.07c.013-.574-.151-.734-.725-.725-2.265.033-4.53.014-6.795.013-1.4,0-2.24-.627-2.219-1.646s.851-1.6,2.269-1.6c2.265,0,4.53-.016,6.794.012.53.007.685-.139.674-.672-.033-1.69-.044-3.381,0-5.07.018-.631-.154-.789-.78-.778-2.23.041-4.462.017-6.694.016-1.421,0-2.25-.585-2.268-1.6s.83-1.647,2.22-1.648c2.2,0,4.4-.038,6.592.02.764.02.939-.181.933-.936-.039-4.732-.02-9.465-.019-14.2,0-4.676,2.933-7.608,7.608-7.609,4.767,0,9.534-.014,14.3.015.656,0,.854-.156.832-.826-.052-1.553-.072-3.112,0-4.663.042-.846-.191-1.042-1.036-1.04q-17.038.049-34.077.022a3.655,3.655,0,0,0-3.863,3.827Q2058.107,1544.755,2058.108,1562.3Zm95.867-3.211-14.7-14.691c0,3.992-.048,8.03.027,12.066a2.842,2.842,0,0,0,2.75,2.612C2146.028,1559.114,2150.006,1559.089,2153.975,1559.089Zm-48.821-29.213-4.844-4.831c0,1.33.016,2.8-.01,4.275-.008.444.126.573.567.566C2102.34,1529.86,2103.813,1529.876,2105.154,1529.876Zm19.425,9.739-4.792-4.827c0,1.331.018,2.806-.01,4.28-.008.456.148.563.576.556C2121.824,1539.6,2123.3,1539.615,2124.579,1539.615Z" transform="translate(-2054.862 -1520.138)" fill="#c37184"/>
      <path id="Path_5902" data-name="Path 5902" d="M2445.375,1891.269q-10.448,0-20.9.008a1.611,1.611,0,0,1-1.8-1.258,1.555,1.555,0,0,1,.965-1.884,2.167,2.167,0,0,1,.987-.107q20.693-.009,41.386,0c1.349,0,2.1.6,2.075,1.649s-.747,1.6-2.129,1.6Z" transform="translate(-2373.956 -1839.332)" fill="#c37184"/>
      <path id="Path_5903" data-name="Path 5903" d="M2445.281,1964.864q-10.4,0-20.8.009a1.614,1.614,0,0,1-1.8-1.252,1.553,1.553,0,0,1,.956-1.889,1.939,1.939,0,0,1,.884-.109q20.846-.008,41.692,0c1.171,0,1.891.637,1.88,1.638s-.732,1.6-1.917,1.605Q2455.729,1964.866,2445.281,1964.864Z" transform="translate(-2373.955 -1903.188)" fill="#c37184"/>
      <path id="Path_5904" data-name="Path 5904" d="M2445.595,2035.19q10.3,0,20.592,0c1.29,0,2.007.565,2.028,1.591.022,1.054-.728,1.655-2.073,1.655h-41.388c-1.34,0-2.025-.59-1.984-1.7.035-.968.7-1.545,1.827-1.546q5.833-.007,11.666,0Z" transform="translate(-2374.076 -1967.023)" fill="#c37184"/>
      <path id="Path_5905" data-name="Path 5905" d="M2445.55,2108.729q10.448,0,20.9-.008a1.6,1.6,0,0,1,1.741,1.349,1.573,1.573,0,0,1-.991,1.8,2.019,2.019,0,0,1-.99.105q-20.744.007-41.489,0c-1.262,0-1.948-.589-1.937-1.643s.69-1.6,1.975-1.6Z" transform="translate(-2374.086 -2030.823)" fill="#c37184"/>
      <path id="Path_5906" data-name="Path 5906" d="M2445.277,2185.6q-10.4,0-20.795.008a1.61,1.61,0,0,1-1.8-1.258,1.558,1.558,0,0,1,.964-1.886,1.94,1.94,0,0,1,.885-.1q20.845-.008,41.691,0c1.165,0,1.893.65,1.874,1.645s-.738,1.6-1.926,1.6Q2455.725,2185.6,2445.277,2185.6Z" transform="translate(-2373.959 -2094.712)" fill="#c37184"/>
    </g>
  </g>
</svg>
