<svg xmlns="http://www.w3.org/2000/svg" width="104.076" height="104.07" viewBox="0 0 104.076 104.07">
  <g id="Group_6313" data-name="Group 6313" transform="translate(-1625.334 -941.333)">
    <g id="Group_6312" data-name="Group 6312" transform="translate(1625.334 941.333)">
      <path id="Path_5943" data-name="Path 5943" d="M-2429.991-2266.884q0,18.191,0,36.381c0,3.409-2.053,5.461-5.464,5.461q-18.558,0-37.115-.023c-.881,0-1.072.218-1.074,1.078a27.244,27.244,0,0,1-.167,5.746,8.4,8.4,0,0,1-9.125,6.6,8.428,8.428,0,0,1-7.46-8.332c-.007-1.363-.062-2.73.021-4.087.052-.859-.25-1-1.034-1-12.337.024-24.674-.05-37.01.063a5.483,5.483,0,0,1-5.647-5.679c.082-24.289.044-48.578.046-72.868,0-3.346,2.057-5.39,5.417-5.393,1.293,0,2.588-.045,3.878.018.686.034.8-.209.785-.825-.041-1.711.005-3.425-.025-5.137-.01-.548.072-.792.716-.784q4.35.056,8.7,0c.594-.007.678.216.67.722-.025,1.642.068,3.29-.036,4.926-.062.989.294,1.137,1.156,1.1,1.5-.069,3.007-.07,4.507,0,.833.039,1.151-.125,1.1-1.048-.089-1.638,0-3.284-.037-4.926-.011-.562.1-.781.726-.773,2.866.035,5.732.043,8.6,0,.708-.011.78.255.768.842-.034,1.642.031,3.286-.029,4.927-.027.754.128.989.946.985,7.654-.038,15.307-.023,22.961-.023,1.782,0,3.566-.038,5.346.018.747.023,1.026-.117.988-.945-.078-1.674,0-3.354-.037-5.031-.012-.569.117-.776.734-.769,2.866.033,5.732.043,8.6-.005.717-.012.771.271.761.849-.032,1.712.012,3.425-.024,5.137-.012.576.125.776.738.761,1.747-.042,3.5-.037,5.242,0,.579.012.775-.131.761-.74-.043-1.746.007-3.495-.03-5.242-.012-.583.142-.766.745-.759q4.3.047,8.6,0c.587-.006.768.148.754.747-.04,1.747.01,3.5-.028,5.242-.013.591.151.769.749.751,1.431-.044,2.865-.021,4.3-.013a4.965,4.965,0,0,1,5.031,5.043Q-2429.984-2285.389-2429.991-2266.884Zm-55.371-4.318c0,3.337.077,6.589-.036,9.834a2.8,2.8,0,0,0,1.562,2.9c1.876,1.1,1.776,1.1,3.647.018a2.79,2.79,0,0,0,1.576-2.892c-.116-3.268-.037-6.543-.037-9.918,3.086,1.186,5.75,2.725,7.64,5.4a12.8,12.8,0,0,1-.434,15.645,9.742,9.742,0,0,0-2.189,6.372q.091,7.181-.01,14.365c-.012.972.292,1.1,1.156,1.1q18.3-.043,36.6-.021c2.059,0,2.543-.479,2.544-2.511q0-29.518,0-59.036c0-2.2,0-2.208-2.2-2.208q-47.083,0-94.164-.012c-.627,0-.98-.005-.979.839q.044,30.409.027,60.818c0,1.479.635,2.109,2.1,2.109q18.665.007,37.33.02c.7,0,.852-.206.847-.87-.028-4.719-.082-9.439.011-14.156a10.306,10.306,0,0,0-2.373-7.05,12.072,12.072,0,0,1-2.677-7.122C-2495.748-2263.424-2492.243-2268.941-2485.363-2271.2Zm3.318-24.313h13.317q17.2,0,34.394.022c.844,0,1.024-.238,1-1.032-.053-2.271-.015-4.543-.02-6.815,0-1.619-.6-2.231-2.187-2.24-1.224-.007-2.449.036-3.67-.016-.663-.028-.9.131-.873.843.058,1.711,0,3.426.033,5.137.012.579-.135.769-.741.762q-4.3-.048-8.6,0c-.586.006-.77-.145-.756-.746.04-1.747-.011-3.5.028-5.242.013-.59-.149-.764-.748-.751q-2.62.06-5.242,0c-.594-.014-.763.157-.749.75.039,1.747-.01,3.5.029,5.242.014.6-.17.753-.756.747q-4.3-.044-8.6,0c-.606.007-.753-.18-.741-.76.036-1.747-.015-3.5.028-5.243.015-.611-.187-.737-.762-.735q-14.366.025-28.731,0c-.613,0-.749.194-.736.766.035,1.677-.02,3.356.028,5.033.02.685-.09.963-.877.948q-4.193-.081-8.388,0c-.729.012-.849-.239-.833-.884.041-1.712,0-3.426.025-5.138.007-.5-.067-.74-.667-.725q-2.672.066-5.347,0c-.643-.017-.728.236-.718.786.03,1.747-.006,3.5.022,5.242.008.521-.1.72-.679.714-2.9-.031-5.8-.036-8.7,0-.657.009-.718-.254-.708-.793.029-1.747-.008-3.5.024-5.243.01-.534-.12-.725-.687-.706-1.292.043-2.586.007-3.879.015-1.537.01-2.15.621-2.155,2.164-.008,2.307.043,4.615-.025,6.92-.026.856.254,1,1.038,1Q-2505.848-2295.531-2482.044-2295.515Zm6.749,30.007c0,2.477-.016,4.776.012,7.075a1.187,1.187,0,0,1-.618,1.176c-1.821,1.161-3.623,2.356-5.388,3.6a1.074,1.074,0,0,1-1.463-.028q-2.618-1.82-5.308-3.535a1.284,1.284,0,0,1-.67-1.255c.034-2.291.014-4.582.014-6.941a2.319,2.319,0,0,0-.924.793,9.346,9.346,0,0,0-.332,12.2,13.223,13.223,0,0,1,2.964,8.8c-.116,5.867-.011,11.739-.055,17.607-.007.859.262,1.009,1.04,1,2.689-.046,5.381-.058,8.07.006.859.02,1-.263,1-1.042-.031-5.695.09-11.392-.056-17.083a14.115,14.115,0,0,1,3.112-9.486A9.379,9.379,0,0,0-2475.3-2265.509Zm-6.677,43.82q-1.674,0-3.349,0c-1.831,0-1.831,0-1.71,1.843a4.994,4.994,0,0,0,6.278,4.661c3.007-.8,4.005-3.391,3.786-6.164-.037-.467-.364-.333-.609-.335C-2479.042-2221.694-2480.508-2221.689-2481.973-2221.689Zm-35.269-85.484q0-1.31,0-2.62c0-2.577-.005-2.553-2.636-2.517-.618.009-.737.206-.73.771.03,2.27.011,4.54.01,6.811,0,2.539,0,2.507,2.532,2.522.718,0,.86-.229.838-.881C-2517.274-2304.448-2517.241-2305.811-2517.242-2307.173Zm16.779-.087q0-1.257,0-2.514c0-2.587,0-2.566-2.619-2.534-.59.008-.758.159-.749.752.033,2.27.012,4.54.011,6.811,0,2.659,0,2.644,2.724,2.534.5-.02.654-.144.643-.648C-2500.483-2304.325-2500.462-2305.793-2500.463-2307.26Zm40.269.1q0-1.31,0-2.62c0-2.586,0-2.565-2.622-2.535-.591.007-.758.161-.749.753.034,2.235.015,4.472.013,6.708,0,2.759,0,2.743,2.727,2.638.5-.019.653-.143.642-.646C-2460.214-2304.29-2460.193-2305.723-2460.193-2307.155Zm16.779-.054q0-1.258,0-2.516c0-2.612,0-2.585-2.571-2.588-.653,0-.815.165-.8.809.043,2.235.018,4.472.016,6.708,0,2.661,0,2.642,2.676,2.585.551-.011.707-.156.693-.7C-2443.439-2304.344-2443.415-2305.777-2443.415-2307.21Z" transform="translate(2534.066 2315.672)" fill="#6859f0"/>
      <path id="Path_5944" data-name="Path 5944" d="M-2307.7-2052.311l.424.279a20.921,20.921,0,0,1,2.166,1.461,2.343,2.343,0,0,0,3.062.364c.515-.3.867-.513.959-1.171.163-1.169.5-2.313.695-3.479.079-.467.207-.634.707-.632q7.548.029,15.1,0c.439,0,.583.137.65.57.16,1.031.435,2.044.587,3.076a2.041,2.041,0,0,0,1.411,1.779,1.992,1.992,0,0,0,2.34-.229c.773-.643,1.682-1.12,2.5-1.711.4-.289.653-.322,1.04.068q5.238,5.29,10.528,10.527c.424.42.379.686.065,1.124-.711.991-1.371,2.02-2.037,3.042-.518.794.332,2.776,1.269,2.975,1.225.26,2.449.527,3.68.76.379.072.611.13.609.617q-.028,7.6,0,15.2c0,.46-.177.569-.586.636-1.063.175-2.113.433-3.177.6a1.927,1.927,0,0,0-1.629,1.3,2.094,2.094,0,0,0,.27,2.519c.64.776,1.122,1.68,1.707,2.505a.565.565,0,0,1-.075.876q-5.243,5.209-10.455,10.451a.763.763,0,0,1-1,.2c-1.182-.5-2.388-.958-3.6-1.388-.48-.17-.585-.4-.341-.823a2.76,2.76,0,0,0,.165-.383c.827-2.135.835-2.159,2.951-1.38a.781.781,0,0,0,.988-.216q3.433-3.463,6.9-6.892a.562.562,0,0,0,.092-.875c-.587-.822-1.1-1.694-1.7-2.51a.9.9,0,0,1-.079-1.114,21.535,21.535,0,0,0,1.806-4.321.887.887,0,0,1,.833-.753c.929-.128,1.836-.411,2.764-.544.594-.085.818-.284.811-.92q-.052-4.56,0-9.121c.006-.626-.2-.839-.8-.926a8.386,8.386,0,0,1-3.134-.692c-.884-.546-.771-1.924-1.282-2.858-.017-.03-.015-.072-.035-.1-1.437-1.837-1.091-3.515.46-5.079.682-.688.548-1.186-.156-1.852-2.081-1.969-4.083-4.021-6.092-6.065-.422-.43-.714-.6-1.281-.167-.881.676-1.812,1.617-2.8,1.726-.915.1-1.9-.97-2.912-1.132-2.466-.393-3.242-1.979-3.322-4.161-.031-.835-.386-1.016-1.167-1-2.935.046-5.871.036-8.807,0-.638-.007-.973.125-1,.827-.092,2.287-.864,4.01-3.461,4.391-1.005.148-1.872,1.273-2.819,1.1a7,7,0,0,1-2.624-1.656c-.637-.5-1.005-.37-1.529.169-2.07,2.13-4.181,4.221-6.3,6.3-.385.378-.49.635-.137,1.117.677.927,1.674,1.871,1.785,2.889.1.946-.971,1.959-1.184,3.011-.427,2.116-1.582,3.158-3.72,3.122-1.276-.021-1.448.667-1.411,1.791.09,2.758.049,5.521.015,8.282-.008.646.135.962.835.989,2.244.087,4.015.811,4.308,3.394a.4.4,0,0,0,.087.187c1.517,1.917,1.008,3.644-.5,5.267-.547.587-.524,1.01.1,1.611q3.222,3.076,6.3,6.3a1.306,1.306,0,0,0,1.7.346c1.665-.7,1.677-.668,2.308.963.6,1.544.6,1.55-.958,2.144-1.035.394-2.175,1.219-3.093,1.025s-1.649-1.4-2.438-2.184c-2.774-2.762-5.529-5.543-8.315-8.292-.441-.436-.581-.742-.146-1.278.5-.62.825-1.393,1.357-1.982a2.4,2.4,0,0,0,.347-3.157,1.4,1.4,0,0,0-1.121-.881c-1.2-.177-2.381-.519-3.582-.718-.463-.077-.547-.257-.546-.669q.016-7.549,0-15.1c0-.414.086-.6.549-.667,1.1-.167,2.18-.47,3.281-.628a1.87,1.87,0,0,0,1.529-1.263,2.068,2.068,0,0,0-.217-2.521c-.729-.927-1.87-2-1.812-2.949.063-1.03,1.52-1.779,2.375-2.643q4.094-4.135,8.227-8.231C-2308.227-2051.939-2308.064-2052.231-2307.7-2052.311Z" transform="translate(2344.225 2082.344)" fill="#6859f0"/>
      <path id="Path_5945" data-name="Path 5945" d="M-2224.875-1937.67a20.1,20.1,0,0,1,17.379-19.9,20.074,20.074,0,0,1,22.611,16.457,19.709,19.709,0,0,1-4.518,16.594c-.488.589-.839.774-1.4.089-.483-.589-1.4-1.018-1.534-1.643s.8-1.181,1.235-1.786c7.233-10.014,1.2-24.519-10.965-26.326a16.738,16.738,0,0,0-19.164,13.72,16.062,16.062,0,0,0,3.743,13.65c.534.637.432.885-.1,1.375-1.911,1.761-1.908,1.791-3.43-.315A19.8,19.8,0,0,1-2224.875-1937.67Z" transform="translate(2256.789 1994.699)" fill="#6859f0"/>
      <path id="Path_5946" data-name="Path 5946" d="M-2046.1-1640.007c0-2.76.025-5.521-.016-8.281-.01-.686.176-.862.858-.858,2.512.015,2.512-.012,2.512,2.537,0,5-.02,9.993.021,14.989.006.782-.178.983-.965.968-2.411-.045-2.412-.006-2.411-2.438Q-2046.1-1636.548-2046.1-1640.007Z" transform="translate(2096.483 1717.944)" fill="#6859f0"/>
    </g>
  </g>
</svg>
