<svg xmlns="http://www.w3.org/2000/svg" width="71.977" height="93.759" viewBox="0 0 71.977 93.759">
  <g id="Group_6161" data-name="Group 6161" transform="translate(15110.442 4783.516)">
    <g id="Group_6160" data-name="Group 6160" transform="translate(-15110.442 -4783.516)">
      <path id="Path_5829" data-name="Path 5829" d="M-398.269,294.9h-45.28c-1.222-.012-2.443-.028-3.666-.034-2.329-.011-3.264-.96-3.281-3.32-.008-1.593-.026-3.184-.04-4.777q0-2.2-.008-4.4,0-7.8.006-15.6,0-2.123-.008-4.247l.008-15.821q0-2.124-.008-4.247,0-7.913.008-15.821l-.008-4.247.008-15.821c.015-.881.018-1.758.049-2.644a2.651,2.651,0,0,1,.782-1.941,2.651,2.651,0,0,1,1.946-.769c.809-.028,1.617-.027,2.426-.039l15.832-.006,4.242.006c4.508.012,9.018.029,13.527.027a5.374,5.374,0,0,1,1.846.275,2.616,2.616,0,0,1,.92,2.856,3.516,3.516,0,0,1-1.376,1.275l-4.219.1h-20.074c-3.591-.012-7.182-.016-10.772-.043-.469,0-.642.105-.638.611.034,3.591.04,7.18.054,10.771l.006,4.24q0,7.917-.006,15.833,0,2.12.006,4.24,0,7.916-.006,15.833,0,2.12.006,4.24,0,7.916-.006,15.833,0,2.12.006,4.24c-.016,2.772-.021,5.543-.06,8.321-.007.5.159.621.633.614,2.329-.034,4.657-.036,6.986-.049l4.242.006,15.831-.006,4.242.006,15.832-.006,4.242.006c3.442.012,6.885.015,10.327.043.469,0,.642-.105.638-.611-.035-3.442-.039-6.884-.053-10.326q0-2.12-.007-4.24,0-7.916.011-15.833l-.007-4.241V239.355q0-2.12-.007-4.241c.016-.294.043-.586.047-.884q.046-3.322,3.281-2.557a2.7,2.7,0,0,1,1.225,2.556q0,7.8-.006,15.6l.008,4.247v15.827q0,2.124.008,4.247V289.98c-.015.734-.021,1.467-.048,2.2a2.661,2.661,0,0,1-.786,1.936,2.661,2.661,0,0,1-1.941.772c-.66.025-1.321.027-1.982.039h-1.113Z" transform="translate(450.547 -201.168)" fill="#685ce2"/>
      <path id="Path_5830" data-name="Path 5830" d="M-252.733,220.483q.025-6.5.05-12.992c.006-1.679.559-2.72,1.766-3.148a2.937,2.937,0,0,1,3.281.993c1.549,1.586,3.155,3.115,4.737,4.668a21.542,21.542,0,0,0,2.461,2.461q3.693,3.888,7.581,7.58a21.536,21.536,0,0,0,2.461,2.461c1.24,1.267,2.468,2.547,3.726,3.8a2.741,2.741,0,0,1,.856,3.2,2.821,2.821,0,0,1-2.95,1.71c-3.74-.019-7.478.016-11.218.029H-244l-5.459-.035a2.885,2.885,0,0,1-2.4-.833,2.885,2.885,0,0,1-.812-2.407c-.012-1.076-.028-2.152-.042-3.229Q-252.729,222.6-252.733,220.483Zm4.541-8.907q0,1.778.011,3.556,0,2.122.011,4.246c-.016,2.184-.023,4.37-.057,6.555-.008.492.087.744.661.736,3.036-.041,6.073-.049,9.11-.069h5.375l-2.9-3.208-7.819-7.805a13.786,13.786,0,0,0-2.016-2.006l-1.983-2.015a.333.333,0,0,0-.352-.258,1.351,1.351,0,0,0-.039.266Z" transform="translate(296.957 -203.511)" fill="#685ce2"/>
      <path id="Path_5831" data-name="Path 5831" d="M-387.453,405.388a2.475,2.475,0,0,1,2.027-1.842l4.021-.013,16.056-.008,4.022.008,15.828.033a2.615,2.615,0,0,1,1.808,1.825c-.117,1.875-.714,2.475-2.7,2.7h-20.073l-4.24-.006c-4.507-.014-9.015-.035-13.521-.038a7.209,7.209,0,0,1-2.078-.234,2.724,2.724,0,0,1-1.156-2.42Z" transform="translate(401.568 -358.307)" fill="#685ce2"/>
      <path id="Path_5832" data-name="Path 5832" d="M-374.635,534.5a30.1,30.1,0,0,0-4.237-.008c-1.893-.019-3.787-.042-5.679-.054a3.7,3.7,0,0,1-1.523-.244,2.251,2.251,0,0,1-1.245-2.4,2.147,2.147,0,0,1,2.209-1.813c3.381-.033,6.763-.013,10.144-.022.479,0,.959-.052,1.438-.078a21.8,21.8,0,0,0,4.036.013c3.825.022,7.649.052,11.474.066,1.449,0,2.9-.023,4.346-.036a35.179,35.179,0,0,0,4.453-.021c1.033.02,2.066.035,3.1.062,1.55.04,2.494.887,2.488,2.227a2.261,2.261,0,0,1-.756,1.673,2.261,2.261,0,0,1-1.748.561c-2.661.031-5.324.009-7.986.015a3.2,3.2,0,0,0-.437.059,30.015,30.015,0,0,0-4.237-.008C-364.079,534.4-369.361,534.385-374.635,534.5Z" transform="translate(401.487 -456.418)" fill="#685ce2"/>
      <path id="Path_5833" data-name="Path 5833" d="M-359.471,466.559h4.242l8.914.035c1.659.008,2.643.811,2.676,2.174.033,1.406-.986,2.279-2.678,2.285q-7.131.026-14.264.042h-24.094a2.605,2.605,0,0,1-2.109-.8,2.119,2.119,0,0,1-.391-2.283,2.12,2.12,0,0,1,2.067-1.406c1.855-.032,3.71-.034,5.567-.048h4.242Z" transform="translate(401.486 -407.249)" fill="#685ce2"/>
    </g>
  </g>
</svg>
