<svg xmlns="http://www.w3.org/2000/svg" width="122.092" height="96.239" viewBox="0 0 122.092 96.239">
  <g id="Group_6150" data-name="Group 6150" transform="translate(-1674.456 -321.179)">
    <g id="Group_6140" data-name="Group 6140" transform="translate(1736.81 335.507)">
      <g id="Group_6139" data-name="Group 6139" transform="translate(0 0)">
        <path id="Path_5817" data-name="Path 5817" d="M2113.047,573.309a15.646,15.646,0,1,1,15.646-15.646,15.646,15.646,0,0,1-15.646,15.646Zm0-26.667a11.02,11.02,0,1,0,11.021,11.02,11.02,11.02,0,0,0-11.021-11.02Z" transform="translate(-2097.401 -542.016)" fill="#5288c5" stroke="#fff" stroke-width="0.5"/>
      </g>
    </g>
    <g id="Group_6141" data-name="Group 6141" transform="translate(1743.847 381.949)">
      <path id="Path_5818" data-name="Path 5818" d="M2186.815,893.4h-39.158a2.313,2.313,0,0,1-2.225-2.944L2154.087,860a2.313,2.313,0,0,1,2.225-1.681h39.158a2.313,2.313,0,0,1,2.225,2.945l-8.656,30.456A2.313,2.313,0,0,1,2186.815,893.4Zm-36.1-4.626h34.35l7.337-25.823h-34.35Z" transform="translate(-2145.344 -858.314)" fill="#5288c5" stroke="#fff" stroke-width="0.5"/>
    </g>
    <g id="Group_6142" data-name="Group 6142" transform="translate(1737.955 384.589)">
      <path id="Path_5819" data-name="Path 5819" d="M2119.25,887.99h-10.212a3.827,3.827,0,0,1-3.823-3.823v-5.535a2.313,2.313,0,0,1,4.626,0v4.732h9.41a2.313,2.313,0,1,1,0,4.626Z" transform="translate(-2105.215 -876.319)" fill="#5288c5" stroke="#fff" stroke-width="0.5"/>
    </g>
    <g id="Group_6143" data-name="Group 6143" transform="translate(1726.258 369.747)">
      <path id="Path_5820" data-name="Path 5820" d="M2048.091,813.361h-12.067a10.443,10.443,0,0,1-10.432-10.432V791.7a16.494,16.494,0,0,1,16.475-16.475h19.444a16.419,16.419,0,0,1,11.254,4.442,2.313,2.313,0,0,1-3.16,3.378,11.806,11.806,0,0,0-8.095-3.19H2042.08a11.862,11.862,0,0,0-11.851,11.85v11.229a5.812,5.812,0,0,0,5.806,5.806H2048.1a2.313,2.313,0,1,1,0,4.626Z" transform="translate(-2025.592 -775.222)" fill="#5288c5" stroke="#fff" stroke-width="0.5"/>
    </g>
    <g id="Group_6144" data-name="Group 6144" transform="translate(1728.46 412.402)">
      <path id="Path_5821" data-name="Path 5821" d="M2058.269,1070.307h-15.388a2.313,2.313,0,1,1,0-4.626h15.388a2.313,2.313,0,1,1,0,4.626Z" transform="translate(-2040.568 -1065.681)" fill="#5288c5" stroke="#fff" stroke-width="0.5"/>
    </g>
    <g id="Group_6145" data-name="Group 6145" transform="translate(1674.756 321.439)">
      <path id="Path_5822" data-name="Path 5822" d="M1722.61,541.948a47.864,47.864,0,1,1,24.617-88.921c.518.311,1.04.641,1.552.973a2.313,2.313,0,1,1-2.531,3.872c-.463-.3-.934-.6-1.4-.88a43.243,43.243,0,1,0-22.234,80.331,2.313,2.313,0,0,1,0,4.626Z" transform="translate(-1674.756 -446.22)" fill="#5288c5" stroke="#fff" stroke-width="0.5"/>
    </g>
    <g id="Group_6146" data-name="Group 6146" transform="translate(1717.136 321.559)">
      <path id="Path_5823" data-name="Path 5823" d="M1972.955,458.891a6.6,6.6,0,0,1-1.884-.252,7.351,7.351,0,0,1-4.6-5.046c-.684-1.726-.894-1.935-1.431-2.015a2.313,2.313,0,0,1,.678-4.575c3.312.49,4.36,3.137,5.052,4.887.6,1.507.891,2.1,1.625,2.318a9.473,9.473,0,0,0,7.642-3.8,2.313,2.313,0,1,1,4.311,1.672C1982.966,455.664,1977.219,458.891,1972.955,458.891Z" transform="translate(-1963.118 -446.986)" fill="#5288c5" stroke="#fff" stroke-width="0.5"/>
    </g>
    <g id="Group_6147" data-name="Group 6147" transform="translate(1677.514 323.998)">
      <path id="Path_5824" data-name="Path 5824" d="M1718.7,542.865a7.783,7.783,0,0,1-4.346-2.084c-4.631-3.7-3.89-9.618-3.294-14.377a19.56,19.56,0,0,0,.2-6.251c-.247-1-1.4-1.9-2.616-2.858a10.348,10.348,0,0,1-4.051-4.9,4.756,4.756,0,0,1,.733-4.453,2.57,2.57,0,0,0,.412-.782,17.415,17.415,0,0,0-3.888-3.6c-3.158-2.464-7.088-5.529-8.175-9.685a2.313,2.313,0,1,1,4.476-1.17c.691,2.642,3.8,5.068,6.545,7.213,3.206,2.5,6.236,4.865,5.6,8.06a6.7,6.7,0,0,1-1.107,2.515c-.076.114-.173.263-.22.346a1.524,1.524,0,0,0,.049.208c.265.867,1.344,1.714,2.485,2.611a10.32,10.32,0,0,1,4.248,5.384,22.7,22.7,0,0,1-.1,7.944c-.6,4.77-.823,8.077,1.41,10.038l-.032-.226a11.086,11.086,0,0,1-.1-4.328c.689-2.457,3.227-5.107,7.019-8.871a44.112,44.112,0,0,0,3.921-4.182c2.342-3.224,2.725-4.358,2.763-4.716a12.7,12.7,0,0,0-2.073-1.221c-.975-.508-2.188-1.141-3.512-2a13.74,13.74,0,0,1-4.283-5.147c-1.282-2.23-2.084-3.507-3.931-3.847a7.427,7.427,0,0,0-1.706.127,6.572,6.572,0,0,1-4.567-.465,5.642,5.642,0,0,1-2.546-5.516c0-.189.011-.442,0-.63a5.324,5.324,0,0,0-.558.063,4.387,4.387,0,0,1-4.421-1.468,3.935,3.935,0,0,1-.844-3.464c.609-2.619,3.621-4.155,4.53-4.564l.069-.03c2.207-.907,2.412-1.306,2.784-2.031a10.4,10.4,0,0,1,4.168-4.384c6.359-4.168,10.541-4.261,13.04-4.312a11.583,11.583,0,0,0,1.4-.08,22.5,22.5,0,0,0-2.331-2.736,17.579,17.579,0,0,1-4.464-6.386,2.313,2.313,0,1,1,4.436-1.313,14.867,14.867,0,0,0,3.4,4.528c1.985,2.106,3.858,4.1,3.757,6.4a4.007,4.007,0,0,1-1.4,2.85,6.61,6.61,0,0,1-4.7,1.359c-2.259.048-5.352.114-10.6,3.555a5.9,5.9,0,0,0-2.581,2.624c-.79,1.544-1.621,2.749-5.105,4.187a6.516,6.516,0,0,0-1.045.6,4.83,4.83,0,0,1,3.614,1.122,4.888,4.888,0,0,1,1.483,4.219c-.027,1.122.027,1.257.281,1.425a8.491,8.491,0,0,0,1.563-.135,9.992,9.992,0,0,1,3.184-.1c4.041.739,5.743,3.708,7.111,6.091a9.945,9.945,0,0,0,2.786,3.567c1.141.739,2.2,1.292,3.135,1.781,2.026,1.056,3.94,2.055,4.448,4.214.545,2.321-.883,4.889-3.538,8.541a45.988,45.988,0,0,1-4.4,4.746c-2.148,2.13-5.389,5.346-5.819,6.819a13.392,13.392,0,0,0,.221,2.429c.346,2.4.739,5.129-1.374,6.332a3.046,3.046,0,0,1-1.534.407Zm9.661-66.739Z" transform="translate(-1693.592 -463.642)" fill="#5288c5" stroke="#fff" stroke-width="0.5"/>
    </g>
  </g>
</svg>
