<svg id="Group_6310" data-name="Group 6310" xmlns="http://www.w3.org/2000/svg" width="123.968" height="123.951" viewBox="0 0 123.968 123.951">
  <path id="Path_2523" data-name="Path 2523" d="M595.55,316.175a60.868,60.868,0,0,0-6.65.358,57.2,57.2,0,0,0-6.006.955c-.372.081-.762.165-1.134.249A62,62,0,0,0,551.18,334.86c-.776.8-1.531,1.615-2.279,2.454a62.052,62.052,0,0,0,91.026,84.275c.779-.794,1.531-1.608,2.275-2.45A62.044,62.044,0,0,0,595.55,316.175Zm-41.614,21.792c.327-.344.664-.667,1-1,.383-.376.766-.759,1.159-1.12.344-.327.7-.639,1.057-.948.393-.358.8-.713,1.2-1.053.358-.3.734-.6,1.1-.888.41-.333.825-.667,1.247-.98.379-.284.769-.558,1.148-.828.432-.305.857-.621,1.3-.9q.579-.4,1.179-.783c.443-.285.885-.555,1.338-.822.4-.245.807-.481,1.219-.713.46-.263.919-.516,1.379-.765.411-.221.829-.435,1.24-.649.475-.235.945-.464,1.422-.692.418-.194.849-.39,1.277-.58l1.471-.618c.425-.175.85-.347,1.282-.516.5-.19,1.015-.369,1.517-.544.429-.147.863-.3,1.3-.442.513-.165,1.04-.32,1.559-.474.428-.119.867-.253,1.3-.372.172-.042.337-.077.5-.126a51.52,51.52,0,0,0-13.222,21.469,69.573,69.573,0,0,1-14.166-5.452C553.82,338.1,553.88,338.026,553.936,337.967Zm-2.977,3.325a71.81,71.81,0,0,0,15.7,6.249,107.241,107.241,0,0,0-4.17,28.617h-24.8A57.84,57.84,0,0,1,550.959,341.292Zm0,73.868a57.825,57.825,0,0,1-13.279-34.87h24.8a107.33,107.33,0,0,0,4.17,28.624A71.76,71.76,0,0,0,550.959,415.16Zm29.669,19.018c-.425-.1-.849-.242-1.281-.365-.523-.155-1.046-.309-1.57-.477-.432-.137-.863-.288-1.289-.439-.515-.179-1.028-.354-1.53-.551-.431-.162-.849-.333-1.274-.5-.492-.211-.99-.415-1.479-.622-.421-.186-.839-.383-1.268-.572l-1.446-.705c-.411-.2-.822-.411-1.239-.639-.467-.249-.927-.509-1.394-.769-.411-.229-.808-.464-1.2-.7-.457-.274-.91-.555-1.349-.846-.4-.253-.79-.506-1.176-.765-.442-.3-.874-.6-1.306-.913-.386-.274-.762-.548-1.13-.829-.429-.326-.854-.663-1.264-.994-.369-.291-.742-.583-1.1-.878-.414-.351-.811-.706-1.208-1.061-.355-.316-.706-.625-1.05-.937-.4-.368-.782-.758-1.165-1.134-.33-.33-.667-.653-.994-.99-.063-.063-.123-.126-.183-.189a69.308,69.308,0,0,1,14.177-5.46A51.359,51.359,0,0,0,581.131,434.3C580.966,434.255,580.794,434.228,580.629,434.179Zm12.85,1.8c-8.844-1.253-16.606-10.494-21.49-24.134a105.489,105.489,0,0,1,21.49-2.531Zm0-30.8a108.92,108.92,0,0,0-22.786,2.721,103.676,103.676,0,0,1-4.072-27.606h26.858Zm0-29.017H566.621a103.309,103.309,0,0,1,4.072-27.6,108.921,108.921,0,0,0,22.786,2.717Zm0-29.025a104.689,104.689,0,0,1-21.49-2.524c4.884-13.639,12.646-22.88,21.49-24.137Zm46.659-5.842a57.8,57.8,0,0,1,13.282,34.866h-24.8a107.369,107.369,0,0,0-4.181-28.617A71.712,71.712,0,0,0,640.138,341.292ZM610.45,322.27c.446.109.878.249,1.3.368.53.154,1.05.309,1.567.478.439.14.87.295,1.3.446.506.165,1.015.355,1.517.545.431.161.856.337,1.281.509.492.2.99.418,1.481.615.417.193.842.386,1.264.583.47.224.955.453,1.44.7.411.2.828.415,1.239.636.467.249.935.513,1.4.772.412.228.8.467,1.2.709.45.267.906.548,1.345.836.4.253.786.506,1.18.765.438.3.871.608,1.3.92.375.267.754.541,1.13.825.432.319.85.653,1.264.99.365.285.731.583,1.092.878.411.347.811.713,1.212,1.06.354.309.705.621,1.046.941.4.368.776.751,1.166,1.127.337.329.674.653,1,.99.06.067.112.134.176.193a69.475,69.475,0,0,1-14.174,5.456,51.234,51.234,0,0,0-13.24-21.458C610.123,322.189,610.292,322.224,610.45,322.27Zm-12.828-1.8c8.855,1.257,16.606,10.5,21.49,24.137a104.662,104.662,0,0,1-21.49,2.524Zm0,30.8a108.923,108.923,0,0,0,22.785-2.717,103.15,103.15,0,0,1,4.072,27.6H597.621Zm0,29.013h26.857a103.222,103.222,0,0,1-4.072,27.606h0a108.923,108.923,0,0,0-22.785-2.721Zm0,55.686V409.311a105.461,105.461,0,0,1,21.49,2.531C614.227,425.482,606.476,434.722,597.621,435.976Zm39.546-17.488c-.33.334-.667.66-1,.993-.39.376-.772.759-1.169,1.127-.339.319-.7.618-1.044.944-.407.351-.8.706-1.215,1.053-.357.3-.727.593-1.1.888-.41.327-.821.657-1.253.98-.373.281-.756.558-1.142.825-.427.305-.86.621-1.3.906-.385.263-.783.523-1.18.772-.438.291-.884.566-1.337.828-.418.242-.811.478-1.215.713-.46.26-.917.516-1.383.762-.41.224-.825.435-1.243.65-.466.235-.944.464-1.425.691-.418.2-.836.39-1.267.579-.488.208-.976.411-1.471.625-.428.168-.853.344-1.288.505-.506.2-1.015.379-1.521.544-.432.151-.86.306-1.3.45-.516.165-1.029.319-1.559.474-.439.123-.871.256-1.31.372-.158.042-.327.077-.5.119a51.3,51.3,0,0,0,13.218-21.469,69.369,69.369,0,0,1,14.178,5.463C637.291,418.358,637.227,418.429,637.168,418.488Zm2.97-3.328a71.507,71.507,0,0,0-15.7-6.246,107.458,107.458,0,0,0,4.181-28.624h24.8A57.785,57.785,0,0,1,640.138,415.16Z" transform="translate(-533.64 -316.175)" fill="#edac42"/>
</svg>
