<svg xmlns="http://www.w3.org/2000/svg" width="101.686" height="101.564" viewBox="0 0 101.686 101.564">
  <g id="Group_6311" data-name="Group 6311" transform="translate(-758.935 -1578.249)">
    <g id="Group_6270" data-name="Group 6270" transform="translate(758.936 1578.249)">
      <path id="Path_5938" data-name="Path 5938" d="M-6198.667,5409.432c-.008,1.491-.044,2.982-.015,4.471.027,1.422-.573,2.142-2.043,2.141q-13.319-.018-26.639.005c-1.469,0-2.122-.633-2.062-2.079.083-2.03.147-4.061.221-6.091.421-.333.342-.85.477-1.29a13.884,13.884,0,0,1,4.439-5.213l.766-.473,4.024-1.226a14.122,14.122,0,0,1-2.659-2.883l-.017-.034a12.015,12.015,0,0,1-.915-6.146,1.444,1.444,0,0,0,.377-1.235,11.923,11.923,0,0,1,4.087-4.838c.324-.052.648-.1.791-.463,1.761-.063,2.53-.918,2.2-2.7a12.442,12.442,0,0,1-.105-1.414c-.021-.682.71-1.774-.874-1.606l-5.711,0-1.236.025-3.252,0-1.236-.031-5.711,0-1.237.028-3.252,0-1.236-.025-5.711,0-1.235.029c-1.071-.255-1.662-.181-1.695,1.267-.051,2.237-.116,4.257,2.8,4.627a3.265,3.265,0,0,1,.9.426l.4.262a11.83,11.83,0,0,1,3.671,6.058q.048.4.095.8-.264,1.823-.529,3.646c-.366.165-.344.5-.372.823a16.755,16.755,0,0,1-2.968,3.539,12.951,12.951,0,0,1,4.792,1.532l1.057.708a14.128,14.128,0,0,1,3.956,6.382c-.161.211-.092.375.106.512,0,1.629-.025,3.26.019,4.888.038,1.411-.512,2.186-2,2.185q-13.453-.013-26.9-.006a1.591,1.591,0,0,1-1.827-1.685c-.333-4.853.273-9.367,4.383-12.677.363-.839,1.4-.559,1.912-1.152l3.333-1-1.69-2.115a.79.79,0,0,0-.442-.728,11.577,11.577,0,0,1-.871-6.9.212.212,0,0,0,.079-.312l1.671-3.34a8.526,8.526,0,0,1,4.01-2.534c1.935-.035,1.064-1.456,1.182-2.39l-.024-1.648c.318-1.424-.326-2.97.547-4.323l1.163-.452a6.6,6.6,0,0,0,2.823-.012,2.249,2.249,0,0,0,1.674.023,28.455,28.455,0,0,0,5.673,0,1.354,1.354,0,0,0,1.265-.032,7.566,7.566,0,0,0,3.233,0,1.353,1.353,0,0,0,1.266.031,28.129,28.129,0,0,0,5.673,0,1.351,1.351,0,0,0,1.265-.032,7.611,7.611,0,0,0,3.232,0,1.372,1.372,0,0,0,1.266.028,28.5,28.5,0,0,0,5.673,0c1.634.029.576-1.161.8-1.769a15.956,15.956,0,0,1,.074-2.165c.232-1.409-.492-1.685-1.654-1.546l-.771-.484a5.977,5.977,0,0,1-.879-3.291c-.05-1.846-.582-3.3-2.8-3.31l-.843-.29c-3.515-1.881-2.424-1.866-5.207.4a.611.611,0,0,0-.608.444,2.945,2.945,0,0,1-4.395-.39,3.215,3.215,0,0,0-1.239-1.25c-1.421-1.47-3.052-2.894-1.14-5.109l1.074-1.394c.9-.836,1.6-1.7.422-2.847l-.687-1.389c-.291-2.5-1.458-3.938-4.211-3.642a7.888,7.888,0,0,1-2-.3l-.833-.773a15.261,15.261,0,0,1,0-7.417l.838-.755c1.335-.171,2.671-.333,4-.516.914-.126,1.646-.378,1.784-1.536a13.043,13.043,0,0,1,.793-2.476l.058-.086c1.536-1.57,1.091-2.914-.471-4.13a.716.716,0,0,0-.461-.671c-1.612-2.521-1.612-2.521.827-5.295a3.165,3.165,0,0,0,1.236-1.237c1.46-1.774,3.064-1.646,4.756-.359l.509.36c1.359,1.623,2.848,2.106,4.574.522.42-.108.889-.106,1.176-.519,2.012-.056,2.867-.92,2.981-3.1.2-3.768.634-3.979,4.5-3.98.61,0,1.221-.008,1.831,0,2.353.033,3.013.615,3.289,2.894.44,3.634.44,3.634,4.129,4.6.155.365.483.392.813.416,2.055,1.878,2.972-.281,4.24-1.195a.752.752,0,0,0,.679-.463c2.048-1.3,3.375.025,4.714,1.3l.836.794c2.333,2.8,2.333,2.8.83,5.216l-.332.415c-1.54,1.3-2.388,2.713-.708,4.521-.062.373.185.6.408.828.193,2.368,1.387,3.5,3.847,3.344a4.739,4.739,0,0,1,3,.916.777.777,0,0,0,.409.729q-.005,3.169-.01,6.34l-1.212,1.3a10.011,10.011,0,0,1-2.377.35c-2.509-.229-3.447,1.135-3.671,3.345-.078.17-.156.339-.233.509-1.667,1.819-1.25,3.408.535,4.846l.309.409c1.645,1.869,1.073,3.456-.624,4.9a3.013,3.013,0,0,0-1.244,1.184c-1.246,1.171-2.508,2.281-4.361,1.147l-.943-.738c-1.338-1.154-2.585-2.8-4.5-.836-.325.016-.656.018-.825.376-3.361.88-3.343.883-3.7,4.193a21.14,21.14,0,0,1-.515,2.343l-.293.344-2,.6c-.277-.043-.382.057-.279.333v4.478c.319,1.307,1.246.5,1.926.553a25.277,25.277,0,0,0,5.27,0,2.16,2.16,0,0,0,1.671-.03,6.091,6.091,0,0,0,2.824,0,2.217,2.217,0,0,0,1.674.028,28.455,28.455,0,0,0,5.673,0,1.369,1.369,0,0,0,1.266-.029,6.082,6.082,0,0,0,2.823.01,2.251,2.251,0,0,0,1.674.023,28.46,28.46,0,0,0,5.673,0,1.353,1.353,0,0,0,1.265-.032l3.178.431-.039-.04c.779,1.1.347,2.4.587,3.592q-.015.62-.031,1.24c.4,1.284-1.378,3.461,1.529,3.711a.886.886,0,0,0,.875.373,11.45,11.45,0,0,1,4.868,5.829.186.186,0,0,0,.078.295,14.028,14.028,0,0,1-.843,6.535l-.519.775-2.282,2.407a12.447,12.447,0,0,1,4.427,1.211l.817.51c4.446,3.281,4.968,7.95,4.583,12.943-.112,1.446-1.157,1.469-2.216,1.47q-6.119,0-12.236,0c-4.555,0-9.11-.05-13.663.024-1.771.029-2.479-.674-2.389-2.406.1-1.828.1-3.662.141-5.493l.271-.721a13.051,13.051,0,0,1,3.94-5.682l1.542-.961,3.761-1.262-2.333-2.917q-.184-.384-.368-.767a14.006,14.006,0,0,1-.686-4.844l.384-1.242a10.686,10.686,0,0,1,3.82-5.172c.3-.092.635-.114.768-.472,2.053-.2,2.977-1.249,2.564-3.354a11.556,11.556,0,0,1-.1-1.619c.217-1.675-.926-1-1.691-.98a37.234,37.234,0,0,0-6.085,0,1.465,1.465,0,0,0-1.265.042,4.651,4.651,0,0,0-2.415-.01,2.429,2.429,0,0,0-1.673-.035,37.889,37.889,0,0,0-6.084,0,1.46,1.46,0,0,0-1.264.046,4.646,4.646,0,0,0-2.415-.011,2.449,2.449,0,0,0-1.673-.035,37.883,37.883,0,0,0-6.083,0c-.753-.074-1.776-.578-1.523.954-.211,4.1-.211,4.1,2.689,5.06l.866.59a11.087,11.087,0,0,1,3.685,5,1.308,1.308,0,0,0,.339,1.242,15.828,15.828,0,0,1-.8,5.3l-.061.1-2.74,3.484a13.335,13.335,0,0,1,4.463,1.324l.759.519a14.767,14.767,0,0,1,4.1,5.623q.071.4.142.8l.229.865c-.026.044-.083.1-.073.133A1.658,1.658,0,0,0-6198.667,5409.432Zm-9.682-6.218-.9-.149a1.565,1.565,0,0,0-1.258.045,28.753,28.753,0,0,0-6.09-.008c-1.731-.579-3.28.347-4.912.592-3.074,1.125-4.417,3.5-4.725,6.6-.269,2.708-.167,2.8,2.689,2.435a49.23,49.23,0,0,0,8.134.032,9.27,9.27,0,0,0,3.712,0,51.635,51.635,0,0,0,7.725,0c2.175.213,2.263.063,1.718-2.958a6.436,6.436,0,0,0-3.721-5.784c-.16-.375-.493-.378-.825-.384-.316-.442-.774-.417-1.237-.379A.185.185,0,0,0-6208.349,5403.214Zm11.669-55.479q.215-.63.429-1.259a2.763,2.763,0,0,1,2.974-2.453c.941-.044,1.87-.3,2.812-.389,1-.09.749-.835.7-1.36-.059-.607.356-1.806-.284-1.722-1.217.158-2.055-.722-3.2-.656a2.643,2.643,0,0,1-3-2.393.765.765,0,0,0-.354-.823,1.317,1.317,0,0,0-.417-1.224c.123-.521-.2-.877-.458-1.26a4.139,4.139,0,0,0-.482-1.082c-1.536-1.783-1.1-3.32.349-4.945.619-.7,1.716-1.261,1.442-2.521a3.149,3.149,0,0,0-1.238-1.25c-1.545-1.384-2.11.508-2.765,1.063-1.653,1.4-3.173,1.847-5.014.551a8.132,8.132,0,0,0-3.671-1.564c-2.462-.405-3.475-1.979-3.526-4.346-.01-.47-.121-.937-.143-1.407-.077-1.65-1.336-.917-2.125-1.021-1.006-.132-1.139.385-1.07,1.355.205,2.878-.659,4.236-2.929,5.05a4.152,4.152,0,0,0-2.021.578c-3.042,1.842-6.066,3.077-8.956-.262-1.4-1.36-1.688.445-2.395.9-.96.614-.376,1.188.26,1.662,2.38,2.339,2.875,4.809.56,7.509a2.8,2.8,0,0,0-.325.945,3.337,3.337,0,0,0-.584,2.09c-.45,1.077-.945,2.1-2.257,2.365a11.541,11.541,0,0,1-2.733.345c-2.6-.169-1.3,1.741-1.487,2.645-.262,1.275,1,.683,1.571.787,2,.361,4.358.009,4.922,2.836a3.244,3.244,0,0,0,.629,2.083c.029.132.017.295.093.39,2.389,3,2.4,5.788-.63,8.4-.568.49-.45,1.062.3,1.379.616.495.8,2.039,2.1.874,2.577-2.746,5.345-2.98,8.322-.646a1.594,1.594,0,0,0,.574.154,6.533,6.533,0,0,0,2.462.784c2.637.714,2.085,3.078,2.333,4.873.18,1.294.633,1.485,1.762,1.518,1.247.037,1.709-.365,1.667-1.6-.022-.66.318-1.328.333-2a2.6,2.6,0,0,1,2.542-2.844,6.69,6.69,0,0,0,1.488-.577,8.03,8.03,0,0,0,3.4-1.523,2.873,2.873,0,0,1,3.988.4c.631.6,1.373,1.077,2.045,1.633.523.433.943.447,1.27-.208l1.231-1.233c.335-1.285-.8-1.857-1.421-2.533-1.436-1.556-1.821-3.063-.526-4.839a7.306,7.306,0,0,0,1.337-2.829C-6196.756,5348-6196.717,5347.867-6196.68,5347.735Zm16.412,39.212c-2.792.775-4.119,2.6-4.168,5.721q.064.4.128.792a2.122,2.122,0,0,0,.63,1.7,3.33,3.33,0,0,0,2.149,2.058,4.738,4.738,0,0,0,4.114.669c2.855-.628,4.213-2.088,4.5-4.837.334-3.3-1.272-5.532-4.465-6.209A2.676,2.676,0,0,0-6180.268,5386.947Zm-75.087,5.273a3.292,3.292,0,0,0,.725,2.878,4.7,4.7,0,0,0,3.7,2.8l1.23.044c3.479.1,5.538-1.7,6.043-5.293.083-.581.253-1.172-.214-1.682a4.518,4.518,0,0,0-2.962-3.663,3.655,3.655,0,0,0-2.877-.71C-6253.32,5386.986-6255.257,5388.916-6255.355,5392.221Zm46.971.443c.072-3.177-1.239-4.989-4.145-5.731-.94-.644-1.93-.107-2.9-.122-3.255.69-4.83,2.889-4.467,6.236.308,2.707,1.667,4.162,4.513,4.833a4.862,4.862,0,0,0,4.13-.632,3.454,3.454,0,0,0,2.158-2.081,2.208,2.208,0,0,0,.6-1.707Zm39.134,20.075c.859-.077,2.145.956,2.451-.612.691-3.534-.6-6.194-3.667-8.053a9.12,9.12,0,0,0-5.731-.986,28.5,28.5,0,0,0-5.681,0c-1.8-.51-3.285.66-4.937.938a6.87,6.87,0,0,0-4.015,6.167c-.164,2.829-.164,2.829,2,2.566a51.759,51.759,0,0,0,7.724,0,11.372,11.372,0,0,0,4.121,0A47.4,47.4,0,0,0-6169.25,5412.739Zm-69.449.023c.9.32,1.447.2,1.193-.938.158-.85-.512-1.364-.822-2.024a.879.879,0,0,0,.08-.376c1-.406.448-1.144.243-1.648a5.781,5.781,0,0,0-2.2-2.93c-1.318-1.6-3.307-1.262-5.012-1.74a28.437,28.437,0,0,0-6.09,0,1.618,1.618,0,0,0-1.262-.055,4.025,4.025,0,0,0-2.006.055,3.141,3.141,0,0,0-2.175.489,6.608,6.608,0,0,0-4.778,5.786c-.765,3.417-.614,3.618,2.7,3.528a7.932,7.932,0,0,0,.984-.147,52.693,52.693,0,0,0,7.724,0,9.279,9.279,0,0,0,3.712,0A51.31,51.31,0,0,0-6238.7,5412.763Z" transform="translate(6265.012 -5314.5)" fill="#e63dc4"/>
      <path id="Path_5939" data-name="Path 5939" d="M-5774.767,5485.318c.088.238.177.474.267.711q-.022,3.06-.044,6.12a.774.774,0,0,0-.33.828,17.828,17.828,0,0,1-3.326,6.136l-.463.583a23.3,23.3,0,0,1-6.1,3.847c-.441.018-.9-.023-1.227.375a26.623,26.623,0,0,1-6.51.138l-.779-.158-4.079-1.694a19.863,19.863,0,0,1-5.57-5.607q-.669-1.424-1.339-2.847l-.316-1.234a20.612,20.612,0,0,1,.071-7.245q.085-.438.169-.876l1.758-3.635a22.372,22.372,0,0,1,4.816-4.793l4.75-2.039.1.037a20.548,20.548,0,0,1,6.882.1l.878.143a22.934,22.934,0,0,1,6.116,3.661q.6.645,1.212,1.29A19.134,19.134,0,0,1-5774.767,5485.318Zm-9.113,10.9a2.152,2.152,0,0,0-1.278-.706,20.282,20.282,0,0,0-8.168-.1c-.476-.034-.951-.063-1.277.391a2.2,2.2,0,0,0-1.381.745c-1.691,1.4-1.679,1.66.161,2.757a11.254,11.254,0,0,0,5.89,1.69,2.416,2.416,0,0,0,1.916-.21,7.664,7.664,0,0,0,4.028-1.2C-5781.441,5498.22-5781.44,5497.968-5783.879,5496.213Zm-12.2-3.6a3.893,3.893,0,0,0,1.964-.649,8.28,8.28,0,0,1-3.195-5.168q-.042-.59-.084-1.181.645-1.825,1.29-3.651a9.313,9.313,0,0,1,5.229-3.071,7.938,7.938,0,0,1,7.311,3.472q.451,1.423.9,2.847a7.789,7.789,0,0,1-3.076,6.794l3.437,1.384.748.542c2.032,2.02,2.136,2.008,3.178-.73a5.1,5.1,0,0,0,.574-2.687,4.941,4.941,0,0,0,.008-3.266,9.282,9.282,0,0,0-2.818-6.288l-.245-.318a11.109,11.109,0,0,0-9.2-3.9,11.348,11.348,0,0,0-8.542,3.976,10.615,10.615,0,0,0-3.366,6.507,4.932,4.932,0,0,0-.212,3.3,10.119,10.119,0,0,0,2.072,5.061l2.692-2.265Zm5.609-2.9c2.409.444,4.335-.657,4.847-2.77a3.98,3.98,0,0,0-2.917-4.67,3.743,3.743,0,0,0-4.884,2.637C-5794.089,5487.431-5793.052,5489.117-5790.465,5489.714Z" transform="translate(5840.491 -5461.395)" fill="#e63dc4"/>
    </g>
  </g>
</svg>
