<svg xmlns="http://www.w3.org/2000/svg" width="101.425" height="103.245" viewBox="0 0 101.425 103.245">
  <g id="Group_6176" data-name="Group 6176" transform="translate(15117.353 4266.905)">
    <g id="Group_6175" data-name="Group 6175" transform="translate(-15117.354 -4266.905)">
      <path id="Path_5841" data-name="Path 5841" d="M-686.734-487.62h-78.058a9.369,9.369,0,0,1-9.358-9.358V-553.11a9.369,9.369,0,0,1,9.357-9.358h5.934a1.872,1.872,0,0,1,1.872,1.872,1.872,1.872,0,0,1-1.872,1.872h-5.934a5.621,5.621,0,0,0-5.614,5.615v56.133a5.621,5.621,0,0,0,5.614,5.615h78.058a5.621,5.621,0,0,0,5.615-5.615v-56.133a5.621,5.621,0,0,0-5.615-5.615h-11.221a1.872,1.872,0,0,1-1.872-1.872,1.872,1.872,0,0,1,1.872-1.872h11.221a9.369,9.369,0,0,1,9.358,9.358v56.133A9.369,9.369,0,0,1-686.734-487.62Z" transform="translate(776.478 573.113)" fill="#6e6e6e"/>
      <path id="Path_5842" data-name="Path 5842" d="M-544.719,806.013h10.063V800.8h-10.063Zm11.935,3.743h-13.805a1.872,1.872,0,0,1-1.872-1.872v-8.959a1.872,1.872,0,0,1,1.872-1.872h13.805a1.872,1.872,0,0,1,1.872,1.872v8.959a1.871,1.871,0,0,1-.548,1.324A1.87,1.87,0,0,1-532.784,809.757Z" transform="translate(562.594 -715.306)" fill="#6e6e6e"/>
      <path id="Path_5843" data-name="Path 5843" d="M518.661,806.013h10.063V800.8H518.661Zm11.935,3.743H516.79a1.872,1.872,0,0,1-1.872-1.872v-8.959a1.872,1.872,0,0,1,1.872-1.872H530.6a1.872,1.872,0,0,1,1.872,1.872v8.959a1.871,1.871,0,0,1-1.872,1.872Z" transform="translate(-445.17 -715.306)" fill="#6e6e6e"/>
      <path id="Path_5844" data-name="Path 5844" d="M-814.731,934.625a12.857,12.857,0,0,0,11.428,7.007h70.712a12.858,12.858,0,0,0,11.427-7.007h-10.2a1.892,1.892,0,0,1-.523,1.374,1.892,1.892,0,0,1-1.349.585h-13.807a1.872,1.872,0,0,1-1.872-1.872c0-.088-38.067-.088-38.067-.088A1.892,1.892,0,0,1-787.5,936a1.892,1.892,0,0,1-1.348.586h-13.811a1.872,1.872,0,0,1-1.862-1.875c0-.088-10.2-.088-10.2-.088Zm82.139,10.75H-803.3a16.608,16.608,0,0,1-15.036-9.614,3.439,3.439,0,0,1,.221-3.311,3.387,3.387,0,0,1,2.867-1.569h12.589a1.872,1.872,0,0,1,1.872,1.872c0,.088,10.062.088,10.062.088a1.892,1.892,0,0,1,.523-1.375,1.892,1.892,0,0,1,1.349-.585h41.81a1.872,1.872,0,0,1,1.872,1.872c0,.088,10.063.088,10.063.088a1.892,1.892,0,0,1,.523-1.375,1.893,1.893,0,0,1,1.349-.585h12.593a3.389,3.389,0,0,1,2.867,1.568,3.442,3.442,0,0,1,.221,3.311,16.609,16.609,0,0,1-15.036,9.614Z" transform="translate(818.663 -842.13)" fill="#6e6e6e"/>
      <path id="Path_5845" data-name="Path 5845" d="M-548.1,626.156h-77.7a1.872,1.872,0,0,1-1.872-1.872,1.872,1.872,0,0,1,1.872-1.872h77.7a1.872,1.872,0,0,1,1.872,1.872A1.872,1.872,0,0,1-548.1,626.156Z" transform="translate(637.665 -549.798)" fill="#6e6e6e"/>
      <path id="Path_5846" data-name="Path 5846" d="M-185.319-442.506h-29.3a1.872,1.872,0,0,1-1.872-1.872,1.871,1.871,0,0,1,.548-1.324,1.87,1.87,0,0,1,1.324-.548h29.3a1.872,1.872,0,0,1,1.872,1.872,1.872,1.872,0,0,1-1.872,1.872Z" transform="translate(247.983 462.971)" fill="#6e6e6e"/>
      <path id="Path_5847" data-name="Path 5847" d="M-185.319-292.887h-29.3a1.871,1.871,0,0,1-1.324-.548,1.871,1.871,0,0,1-.548-1.324,1.872,1.872,0,0,1,1.872-1.872h29.3a1.872,1.872,0,0,1,1.872,1.872A1.872,1.872,0,0,1-185.319-292.887Z" transform="translate(247.983 321.178)" fill="#6e6e6e"/>
      <path id="Path_5848" data-name="Path 5848" d="M-185.319-143.26h-29.3a1.871,1.871,0,0,1-1.324-.548,1.871,1.871,0,0,1-.548-1.324A1.871,1.871,0,0,1-214.617-147h29.3a1.872,1.872,0,0,1,1.872,1.872,1.872,1.872,0,0,1-1.872,1.872Z" transform="translate(247.983 179.377)" fill="#6e6e6e"/>
      <path id="Path_5849" data-name="Path 5849" d="M-185.319,6.361h-29.3a1.872,1.872,0,0,1-1.872-1.872,1.871,1.871,0,0,1,.548-1.324,1.871,1.871,0,0,1,1.324-.548h29.3a1.872,1.872,0,0,1,1.872,1.872A1.872,1.872,0,0,1-185.319,6.361Z" transform="translate(247.983 37.581)" fill="#6e6e6e"/>
      <path id="Path_5850" data-name="Path 5850" d="M-185.319,155.95h-29.3a1.871,1.871,0,0,1-1.324-.548,1.871,1.871,0,0,1-.548-1.324,1.872,1.872,0,0,1,1.872-1.872h29.3a1.872,1.872,0,0,1,1.872,1.872,1.871,1.871,0,0,1-.548,1.324A1.871,1.871,0,0,1-185.319,155.95Z" transform="translate(247.983 -104.184)" fill="#6e6e6e"/>
      <path id="Path_5851" data-name="Path 5851" d="M-370.713-572.693h42.079v-50.5h-42.079Zm43.951,3.743h-45.822a1.872,1.872,0,0,1-1.872-1.872v-54.241a1.872,1.872,0,0,1,1.872-1.872h45.822a1.872,1.872,0,0,1,1.872,1.872v54.242a1.872,1.872,0,0,1-1.872,1.872Z" transform="translate(397.689 634.207)" fill="#6e6e6e"/>
      <path id="Path_5852" data-name="Path 5852" d="M-187.256-711.745h3.853v-50.5h-42.079v3.529h36.355a1.872,1.872,0,0,1,1.872,1.872v45.1Zm5.725,3.743h-7.6A1.872,1.872,0,0,1-191-709.873v-45.1h-36.355a1.872,1.872,0,0,1-1.872-1.872v-7.273a1.87,1.87,0,0,1,.548-1.324,1.87,1.87,0,0,1,1.324-.548h45.822a1.872,1.872,0,0,1,1.872,1.872v54.242A1.872,1.872,0,0,1-181.531-708Z" transform="translate(260.055 765.986)" fill="#6e6e6e"/>
    </g>
  </g>
</svg>
