<svg xmlns="http://www.w3.org/2000/svg" width="105.114" height="103.548" viewBox="0 0 105.114 103.548">
  <g id="Group_6315" data-name="Group 6315" transform="translate(-889.187 -432.863)">
    <g id="Group_6256" data-name="Group 6256" transform="translate(889.187 432.863)">
      <path id="Path_5888" data-name="Path 5888" d="M33.394,815.73q-25.694,0-51.388.025c-.946,0-1.1-.265-1.1-1.138q.039-30.087.005-60.175a1.743,1.743,0,0,1,.72-1.553c3.415-2.66,6.8-5.363,10.217-8.016a1.512,1.512,0,0,0,.672-1.357c-.021-6.617,0-13.235-.034-19.852,0-.83.233-.994,1.016-.991,8.513.029,17.026.009,25.539.035a2.379,2.379,0,0,0,1.582-.554c4.038-3.2,8.092-6.384,12.107-9.613a.967.967,0,0,1,1.482.022c4.05,3.242,8.136,6.439,12.2,9.668a2.049,2.049,0,0,0,1.4.471c2.585-.025,5.17.006,7.755-.025a1.591,1.591,0,0,1,1.253.529q8.537,8.57,17.108,17.106A1.75,1.75,0,0,1,74.4,742c-.293,1.77.46,2.852,1.891,3.886,3.061,2.211,5.957,4.648,8.942,6.966a1.824,1.824,0,0,1,.786,1.625q-.037,30.088.005,60.175c0,.939-.254,1.105-1.134,1.1Q59.14,815.709,33.394,815.73Zm-49.1-5.759c.41-.391.682-.64.942-.9q9.145-9.132,18.287-18.267c1.6-1.6,1.56-1.554,3.242-.009.727.667.543.984-.049,1.571q-9.577,9.5-19.1,19.062c-.249.25-.615.429-.688.875h93.4c-.466-.386-.718-.563-.933-.777q-9.2-9.145-18.4-18.3c-1.581-1.57-1.55-1.529-.022-3.166.619-.663.931-.644,1.57,0q9.574,9.58,19.217,19.09c.249.247.44.6.826.672V757.647a1.541,1.541,0,0,0-.275.115q-24.064,18.646-48.115,37.309a1.01,1.01,0,0,1-1.493-.028c-2.559-2.024-5.142-4.016-7.723-6.012Q6.844,775.01-11.292,760.994c-1.428-1.1-2.865-2.195-4.414-3.38ZM24.9,726.032q-14.006,0-28.013-.005c-.614,0-1.087-.071-1.084.859q.049,17.365.014,34.731a1.2,1.2,0,0,0,.55,1.094c3.765,2.877,7.5,5.8,11.246,8.693Q20.284,781.2,32.953,791c.4.313.6.327,1.01.005,3.757-2.941,7.542-5.848,11.314-8.769q12.583-9.743,25.167-19.485a1.549,1.549,0,0,0,.666-1.378q-.042-8.631,0-17.262c.005-.8-.223-.959-.978-.954-5.031.034-10.061,0-15.092.038-.851.007-1.151-.124-1.139-1.085.061-5.03.005-10.061.051-15.091.008-.856-.266-1-1.045-1Q38.906,726.055,24.9,726.032Zm43.269,13.826L57.246,728.93c0,3.267.007,6.775-.009,10.284,0,.466.085.66.611.656C61.387,739.847,64.926,739.858,68.168,739.858ZM25.375,722.615H41.54c-2.612-2.055-5.129-4.017-7.618-6.013-.377-.3-.563-.286-.93.008C30.5,718.6,27.986,720.563,25.375,722.615ZM-7.54,759.681V748.637l-7.067,5.575ZM81.506,754.2l-7.094-5.588c0,3.574,0,6.931,0,10.287,0,.189-.089.407.172.654Z" transform="translate(19.094 -712.207)" fill="#b9ae38"/>
      <path id="Path_5889" data-name="Path 5889" d="M146.4,853c2.318-2.3,4.6-4.555,6.851-6.83.367-.371.55-.205.818.071.7.717,1.448,1.384,2.1,2.136.389.446.732.352,1.146.152.44-.213.964-.273.893-1.024-.09-.957,0-1.929-.031-2.893-.018-.521.119-.726.685-.721q4.343.039,8.686,0c.626-.006.755.249.731.8-.036.826.031,1.657-.024,2.48a1.263,1.263,0,0,0,.838,1.408c.764.375,1.038-.121,1.454-.5.779-.707,1.422-2.065,2.3-2.01.78.049,1.491,1.3,2.223,2.026,1.466,1.458,2.91,2.94,4.4,4.375.414.4.461.625.007,1.025-.7.613-1.287,1.351-2,1.946-.522.436-.414.828-.215,1.342.192.5.414.759,1.021.714.96-.071,1.93.005,2.894-.029.483-.017.649.112.645.623q-.035,4.446,0,8.892c0,.485-.114.664-.624.643-.964-.039-1.933.04-2.893-.03-.605-.044-.836.218-1.03.713s-.394.966.205,1.331a.715.715,0,0,1,.148.143c.729.81,2.121,1.483,2.092,2.371-.027.79-1.324,1.544-2.074,2.3-1.383,1.395-2.8,2.758-4.154,4.181-.5.528-.829.686-1.354.034a22.665,22.665,0,0,0-1.668-1.693c-.378-.38-.659-.781-1.369-.451a1.251,1.251,0,0,0-.843,1.407c.05.859-.009,1.723.018,2.584.016.513-.125.734-.693.729q-4.394-.037-8.789,0c-.543,0-.625-.227-.613-.679.023-.861-.057-1.729.025-2.583a1.278,1.278,0,0,0-.9-1.454c-.715-.347-.987.093-1.359.461-.638.63-1.282,1.253-1.9,1.906-.3.319-.5.348-.825.016q-3.159-3.2-6.361-6.359c-.37-.364-.31-.571.039-.893.708-.655,1.334-1.4,2.07-2.022.56-.471.291-.888.127-1.369a.828.828,0,0,0-.953-.668c-1,.058-2,0-3,.025-.437.012-.6-.1-.592-.568.021-3,.025-6,0-9-.005-.558.234-.6.675-.59.93.025,1.861-.007,2.791.013.5.011.9.01,1.088-.611.164-.547.359-.969-.2-1.448C148.044,854.694,147.271,853.858,146.4,853Zm4.594,19.074c.807.75,1.518,1.354,2.156,2.026.4.416.635.357.983-.031.483-.537,1.046-1,1.518-1.549.322-.372.57-.355.947-.1a11.639,11.639,0,0,0,4.109,1.741c.664.14.8.407.8,1.026.014,2.776.032,2.762,2.784,2.6.453-.026.6-.145.577-.592-.032-.722.007-1.447-.014-2.17-.014-.479.1-.713.65-.828a12.533,12.533,0,0,0,4.306-1.8.557.557,0,0,1,.862.092c.533.585,1.114,1.126,1.672,1.689.2.206.382.4.674.095.686-.724,1.671-1.332,1.975-2.186.171-.482-1.016-1.127-1.551-1.736a.753.753,0,0,0-.144-.147c-.525-.336-.485-.731-.176-1.2a11.38,11.38,0,0,0,1.661-4.044.745.745,0,0,1,.928-.669c.719.059,1.446,0,2.169.021.437.016.576-.128.609-.582.212-2.911.225-2.91-2.6-2.926a.5.5,0,0,0-.1,0c-.639.129-.916-.178-1.034-.78a8.715,8.715,0,0,0-1.4-3.49c-.626-.862-.4-1.372.311-2.032,1.612-1.5,1.537-1.5.008-3.134-.672-.719-1.106-.829-1.742-.013-.441.564-.945,1.275-1.557,1.455s-1.224-.587-1.865-.878c-.311-.141-.611-.313-.931-.424-.858-.3-2.009-.331-2.509-.922-.53-.625-.13-1.783-.157-2.707-.011-.362-.066-.527-.5-.573-2.863-.3-2.886-.293-2.9,2.5a1.9,1.9,0,0,0,0,.206c.052.513-.079.776-.682.9a11.17,11.17,0,0,0-4.034,1.652.856.856,0,0,1-1.354-.174c-.531-.623-1.14-1.555-1.78-1.611-.755-.066-1.209,1.073-1.879,1.592-.542.42-.65.769-.034,1.241.461.353.805.856,1.26,1.219.549.438.518.845.158,1.384a10.23,10.23,0,0,0-1.558,3.755c-.126.649-.4.867-1.08.862-2.842-.023-2.827,0-2.664,2.851.029.5.185.643.665.634.927-.016,2.09-.3,2.715.14.6.428.7,1.625.927,2.507.269,1.023,1.514,1.872,1.17,2.806C153.02,870.65,151.889,871.244,150.992,872.078Z" transform="translate(-110.627 -816.595)" fill="#b9ae38"/>
      <path id="Path_5890" data-name="Path 5890" d="M80.831,806.877c-1.709,0-1.709,0-1.711-1.75,0-1.586,0-1.586,1.548-1.584,1.826,0,1.826,0,1.816,1.837a1.636,1.636,0,0,0,0,.309c.2,1.037-.284,1.358-1.243,1.191A2.471,2.471,0,0,0,80.831,806.877Z" transform="translate(-58.759 -784.609)" fill="#b9ae38"/>
      <path id="Path_5891" data-name="Path 5891" d="M113.4,806.852c-1.653,0-1.653,0-1.653-1.658s0-1.668,1.633-1.675c1.694-.007,1.694-.007,1.7,1.706C115.078,806.852,115.078,806.852,113.4,806.852Z" transform="translate(-84.619 -784.588)" fill="#b9ae38"/>
      <path id="Path_5892" data-name="Path 5892" d="M146.376,803.546c1.561,0,1.561,0,1.561,1.524,0,1.8,0,1.8-1.8,1.8-1.511,0-1.511,0-1.511-1.48v-.1C144.621,803.546,144.621,803.546,146.376,803.546Z" transform="translate(-110.682 -784.611)" fill="#b9ae38"/>
      <path id="Path_5893" data-name="Path 5893" d="M201.995,910.143a8.419,8.419,0,1,1,.172-16.836,8.527,8.527,0,0,1,8.344,8.513A8.424,8.424,0,0,1,201.995,910.143Zm.012-3.336a5.12,5.12,0,0,0,5.178-5.111,5.237,5.237,0,0,0-5.031-5.07,5.123,5.123,0,0,0-5.262,5.131A5.055,5.055,0,0,0,202.007,906.807Z" transform="translate(-149.477 -855.762)" fill="#b9ae38"/>
    </g>
  </g>
</svg>
