<svg xmlns="http://www.w3.org/2000/svg" width="115.188" height="99.151" viewBox="0 0 115.188 99.151">
  <path id="Path_5947" data-name="Path 5947" d="M2544.18,184.625a24.288,24.288,0,1,0-30.448-34.284c-.233-.007-.46-.035-.7-.035-.529,0-1.046.046-1.568.081a24.286,24.286,0,1,0-30.475,34.238,33.668,33.668,0,0,0-15.74,9.525c-6.384,6.849-10.265,16.556-10.258,27.918a2.515,2.515,0,0,0,2.516,2.519h21.376a46.181,46.181,0,0,0-1.089,9.917,2.523,2.523,0,0,0,2.518,2.519h65.439a2.517,2.517,0,0,0,2.518-2.519,46.276,46.276,0,0,0-1.087-9.917h20.476a2.522,2.522,0,0,0,2.521-2.519c0-11.362-3.873-21.068-10.261-27.918A33.677,33.677,0,0,0,2544.18,184.625Zm-53.951-41.717a19.174,19.174,0,0,1,13.614,5.639,19.6,19.6,0,0,1,2.29,2.767,24.23,24.23,0,0,0-16.405,30.079,19.246,19.246,0,0,1,.5-38.485Zm44.712,0a19.245,19.245,0,0,1,1.414,38.44,24.22,24.22,0,0,0-17.173-30.226,19.441,19.441,0,0,1,2.144-2.574A19.187,19.187,0,0,1,2534.941,142.908Zm-8.294,18.074a19.252,19.252,0,1,1-13.612-5.639A19.166,19.166,0,0,1,2526.647,160.982Zm-33.493,27.547a24.338,24.338,0,0,0,10.642,8.528,33.726,33.726,0,0,0-15.742,9.529,37.2,37.2,0,0,0-7.75,12.964h-20.167c.524-9.084,3.8-16.6,8.8-21.964a28.767,28.767,0,0,1,21.3-9.207C2491.22,188.379,2492.192,188.435,2493.154,188.529Zm-1.413,21.488a29.238,29.238,0,0,1,42.589,0c5,5.369,8.272,12.883,8.8,21.968h-60.19C2483.465,222.9,2486.744,215.387,2491.741,210.017Zm46.272-3.432a33.719,33.719,0,0,0-15.741-9.529,24.351,24.351,0,0,0,10.679-8.577c.662-.042,1.319-.1,1.991-.1a28.763,28.763,0,0,1,21.3,9.207c5,5.366,8.273,12.88,8.8,21.964h-19.275A37.1,37.1,0,0,0,2538.013,206.586Z" transform="translate(-2454.994 -137.871)" fill="#93ad3c"/>
</svg>
